<?xml version="1.0" encoding="utf-8"?>
<!-- Generator: Adobe Illustrator 21.0.0, SVG Export Plug-In . SVG Version: 6.00 Build 0)  -->
<svg version="1.1" id="Layer_1" xmlns="http://www.w3.org/2000/svg" xmlns:xlink="http://www.w3.org/1999/xlink" x="0px" y="0px"
	 viewBox="0 0 160 160" style="enable-background:new 0 0 160 160;" xml:space="preserve">
<style type="text/css">
	.st0{fill:url(#SVGID_1_);}
</style>
<linearGradient id="SVGID_1_" gradientUnits="userSpaceOnUse" x1="91.2391" y1="71.9021" x2="115.3164" y2="30.199">
	<stop  offset="0" style="stop-color:#2FACF5"/>
	<stop  offset="0.1892" style="stop-color:#33AEF3"/>
	<stop  offset="0.3853" style="stop-color:#40B6ED"/>
	<stop  offset="0.5845" style="stop-color:#54C2E2"/>
	<stop  offset="0.7859" style="stop-color:#71D3D4"/>
	<stop  offset="0.9873" style="stop-color:#96E9C1"/>
	<stop  offset="1" style="stop-color:#99EBC0"/>
</linearGradient>
<path class="st0" d="M87.7,133.8h46.1V87.7H87.7V133.8z M92.8,92.8h35.8v35.8H92.8V92.8z M39.6,26.2l-8.2,32.7l5,1.2l2.7-10.9h10.1
	l2.7,10.9l5-1.2l-8.2-32.7L39.6,26.2z M40.4,44.2l3.2-12.8h1.1l3.2,12.8H40.4z M62.1,26.2h15.4v5.1h-5.1v23h5.1v5.1H62.1v-5.1h5.1
	v-23h-5.1V26.2z M144,39c0,4.2,3.4,7.7,7.7,7.7s7.7-3.4,7.7-7.7c0-3.3-2.1-6.2-5.1-7.2v-5.6c0-4.2-3.4-7.7-7.7-7.7h-64v0
	c-0.2,0-0.4,0-0.6,0C79.6,8.2,70.4,0.6,59.5,0.6c-9.1,0-17.2,5.3-20.9,13.4c-1.5-0.4-3.1-0.6-4.7-0.6c-9.2,0-16.7,6.9-17.8,16
	c-9,2.3-15.5,10.4-15.5,19.8c0,7.6,4.1,14.2,10.2,17.7v59.1c0,4.2,3.4,7.7,7.7,7.7h13.3c1.1,3,3.9,5.1,7.2,5.1
	c4.2,0,7.7-3.4,7.7-7.7s-3.4-7.7-7.7-7.7c-3.3,0-6.2,2.1-7.2,5.1H18.5c-1.4,0-2.6-1.1-2.6-2.6v-57c1.6,0.4,3.3,0.7,5.1,0.7v35.8
	c0,4.2,3.4,7.7,7.7,7.7h8.2c1.1,3,3.9,5.1,7.2,5.1c4.2,0,7.7-3.4,7.7-7.7s-3.4-7.7-7.7-7.7c-3.3,0-6.2,2.1-7.2,5.1h-8.2
	c-1.4,0-2.6-1.1-2.6-2.6V69.8h5.1v15.4c0,4.2,3.4,7.7,7.7,7.7h3c1.1,3,3.9,5.1,7.2,5.1c4.2,0,7.7-3.4,7.7-7.7s-3.4-7.7-7.7-7.7
	c-3.3,0-6.2,2.1-7.2,5.1h-3c-1.4,0-2.6-1.1-2.6-2.6V69.8h46.1v7.7c-2.8,0-5.1,2.3-5.1,5.1H62.1v15.4h15.4v5.1H62.1v15.4h15.4v5.1
	H62.1v15.4h15.4c0,2.8,2.3,5.1,5.1,5.1v15.4h15.4V144h5.1v15.4h15.4V144h5.1v15.4h15.4V144c2.8,0,5.1-2.3,5.1-5.1h15.4v-15.4H144
	v-5.1h15.4V103H144v-5.1h15.4V82.6H144c0-2.8-2.3-5.1-5.1-5.1V62.1h-15.4v15.4h-5.1V62.1h-9.6c2.8-3.5,4.5-8,4.5-12.8
	c0-6.1-2.7-11.6-7-15.4h19.8c1.4,0,2.6,1.1,2.6,2.6v5.6c-3,1.1-5.1,3.9-5.1,7.2c0,4.2,3.4,7.7,7.7,7.7c4.2,0,7.7-3.4,7.7-7.7
	c0-3.3-2.1-6.2-5.1-7.2v-5.6c0-4.2-3.4-7.7-7.7-7.7H98.7c-0.9-1.9-2.1-3.7-3.6-5.1h51.5c1.4,0,2.6,1.1,2.6,2.6v5.6
	C146.2,32.9,144,35.7,144,39z M39,128.7c1.4,0,2.6,1.1,2.6,2.6c0,1.4-1.1,2.6-2.6,2.6c-1.4,0-2.6-1.1-2.6-2.6
	C36.5,129.8,37.6,128.7,39,128.7z M44.2,108.2c1.4,0,2.6,1.1,2.6,2.6s-1.1,2.6-2.6,2.6c-1.4,0-2.6-1.1-2.6-2.6
	S42.7,108.2,44.2,108.2z M49.3,87.7c1.4,0,2.6,1.1,2.6,2.6s-1.1,2.6-2.6,2.6c-1.4,0-2.6-1.1-2.6-2.6S47.9,87.7,49.3,87.7z
	 M67.2,92.8v-5.1h10.2v5.1H67.2z M67.2,113.3v-5.1h10.2v5.1H67.2z M67.2,133.8v-5.1h10.2v5.1H67.2z M131.2,51.8
	c-1.4,0-2.6-1.1-2.6-2.6s1.1-2.6,2.6-2.6c1.4,0,2.6,1.1,2.6,2.6S132.6,51.8,131.2,51.8z M87.7,69.8h5.1v7.7h-5.1V69.8z M97.9,77.4
	v-8.4c1.8-0.5,3.5-1.2,5.1-2.1v10.5H97.9z M92.8,154.3h-5.1V144h5.1V154.3z M113.3,154.3h-5.1V144h5.1V154.3z M133.8,154.3h-5.1V144
	h5.1V154.3z M154.3,128.7v5.1H144v-5.1H154.3z M154.3,108.2v5.1H144v-5.1H154.3z M154.3,87.7v5.1H144v-5.1H154.3z M138.9,138.9H82.6
	V82.6h56.3L138.9,138.9z M128.7,67.2h5.1v10.2h-5.1V67.2z M113.3,77.4h-5.1V67.2h5.1V77.4z M94.8,32.7l0.4,1.4l1.4,0.4
	c6.8,1.7,11.6,7.9,11.6,14.9c0,8.5-6.9,15.4-15.4,15.4H21.1c-8.5,0-15.4-6.9-15.4-15.4c0-7.6,5.7-14.1,13.2-15.2l2.2-0.5v-2.2
	c0-7.1,5.7-12.8,12.8-12.8c1.8,0,3.5,0.4,5.1,1.1l2.6,1.1l0.9-2.7c2.4-7.4,9.3-12.3,17-12.3c9.1,0,16.8,6.8,17.8,15.9l0.3,2.7
	l2.7-0.5c0.8-0.1,1.5-0.2,2.3-0.2C88.2,23.7,93.1,27.3,94.8,32.7z M151.7,41.6c-1.4,0-2.6-1.1-2.6-2.6s1.1-2.6,2.6-2.6
	c1.4,0,2.6,1.1,2.6,2.6C154.3,40.4,153.1,41.6,151.7,41.6z"/>
</svg>
