<?xml version="1.0" encoding="utf-8"?>
<!-- Generator: Adobe Illustrator 21.0.0, SVG Export Plug-In . SVG Version: 6.00 Build 0)  -->
<svg version="1.1" id="Layer_1" xmlns="http://www.w3.org/2000/svg" xmlns:xlink="http://www.w3.org/1999/xlink" x="0px" y="0px"
	 viewBox="0 0 160 160" style="enable-background:new 0 0 160 160;" xml:space="preserve">
<style type="text/css">
	.st0{fill:url(#SVGID_1_);}
</style>
<linearGradient id="SVGID_1_" gradientUnits="userSpaceOnUse" x1="-486.0294" y1="904.5469" x2="-473.5951" y2="926.0839" gradientTransform="matrix(8 0 0 -8 3913 7389)">
	<stop  offset="0" style="stop-color:#2FACF5"/>
	<stop  offset="0.2108" style="stop-color:#33AEF3"/>
	<stop  offset="0.4017" style="stop-color:#3EB5EE"/>
	<stop  offset="0.585" style="stop-color:#50C0E4"/>
	<stop  offset="0.7635" style="stop-color:#6ACFD8"/>
	<stop  offset="0.9371" style="stop-color:#8BE3C7"/>
	<stop  offset="1" style="stop-color:#99EBC0"/>
</linearGradient>
<path class="st0" d="M0.6,113.3h31c0.6,3.1,2.4,5.8,4.9,7.6v38.5h87.1v-38.5c2.4-1.8,4.2-4.5,4.9-7.6h31V0.6H0.6V113.3z M57,110.7
	c0-0.9-0.1-1.7-0.3-2.6h46.6c-0.2,0.8-0.3,1.7-0.3,2.6c0,4.2,2,7.8,5.1,10.2v33.4H51.8v-33.4C54.9,118.6,57,114.9,57,110.7L57,110.7
	z M64.6,92.8c-1.4,0-2.6-1.1-2.6-2.6V69.8c0-1.4,1.1-2.6,2.6-2.6h30.7c1.4,0,2.6,1.1,2.6,2.6v20.5c0,1.4-1.1,2.6-2.6,2.6H64.6z
	 M87.7,97.9v5.1H72.3v-5.1H87.7z M44.2,118.4c-4.2,0-7.7-3.4-7.7-7.7s3.4-7.7,7.7-7.7s7.7,3.4,7.7,7.7S48.4,118.4,44.2,118.4z
	 M41.6,123.3c0.8,0.2,1.7,0.3,2.6,0.3s1.7-0.1,2.6-0.3v31h-5.1V123.3z M118.4,154.3h-5.1v-31c0.8,0.2,1.7,0.3,2.6,0.3
	s1.7-0.1,2.6-0.3V154.3z M115.8,118.4c-4.2,0-7.7-3.4-7.7-7.7s3.4-7.7,7.7-7.7s7.7,3.4,7.7,7.7S120.1,118.4,115.8,118.4z
	 M128.4,108.2c-1.2-5.8-6.4-10.2-12.5-10.2c-4.2,0-7.8,2-10.2,5.1H92.8v-5.1h2.6c3.3,0,6.2-2.1,7.2-5.1h3c4.2,0,7.7-3.4,7.7-7.7
	V74.9c0-4.2-3.4-7.7-7.7-7.7h-3c-1.1-3-3.9-5.1-7.2-5.1H64.6c-3.3,0-6.2,2.1-7.2,5.1h-3c-4.2,0-7.7,3.4-7.7,7.7v10.2
	c0,4.2,3.4,7.7,7.7,7.7h3c1.1,3,3.9,5.1,7.2,5.1h2.6v5.1H54.3c-2.3-3.1-6-5.1-10.2-5.1c-6.2,0-11.4,4.4-12.5,10.2H5.7V26.2h148.5
	v81.9H128.4z M103,72.3h2.6c1.4,0,2.6,1.1,2.6,2.6v10.2c0,1.4-1.1,2.6-2.6,2.6H103V72.3z M57,87.7h-2.6c-1.4,0-2.6-1.1-2.6-2.6V74.9
	c0-1.4,1.1-2.6,2.6-2.6H57V87.7z M154.3,5.7v15.4H5.7V5.7H154.3z M16,16h-5.1v-5.1H16V16z M26.2,16h-5.1v-5.1h5.1V16z M36.5,16h-5.1
	v-5.1h5.1V16z M10.9,31.3H16v20.5h-5.1V31.3z M21.1,51.8h15.4V31.3H21.1V51.8z M26.2,36.5h5.1v10.2h-5.1V36.5z M10.9,62.1H16v20.5
	h-5.1V62.1z M21.1,82.6h15.4V62.1H21.1V82.6z M26.2,67.2h5.1v10.2h-5.1V67.2z M41.6,31.3h5.1v20.5h-5.1V31.3z M51.8,51.8h15.4V31.3
	H51.8V51.8z M57,36.5h5.1v10.2H57V36.5z M72.3,31.3h5.1v20.5h-5.1V31.3z M82.6,31.3h5.1v20.5h-5.1V31.3z M92.8,51.8h15.4V31.3H92.8
	V51.8z M97.9,36.5h5.1v10.2h-5.1V36.5z M113.3,31.3h5.1v20.5h-5.1V31.3z M123.5,51.8h15.4V31.3h-15.4V51.8z M128.7,36.5h5.1v10.2
	h-5.1V36.5z M144,31.3h5.1v20.5H144V31.3z M123.5,82.6h15.4V62.1h-15.4V82.6z M128.7,67.2h5.1v10.2h-5.1V67.2z M144,62.1h5.1v20.5
	H144V62.1z M64.6,149.1h30.7c4.2,0,7.7-3.4,7.7-7.7v-10.2c0-4.2-3.4-7.7-7.7-7.7H64.6c-4.2,0-7.7,3.4-7.7,7.7v10.2
	C57,145.7,60.4,149.1,64.6,149.1z M62.1,131.2c0-1.4,1.1-2.6,2.6-2.6h30.7c1.4,0,2.6,1.1,2.6,2.6v10.2c0,1.4-1.1,2.6-2.6,2.6H64.6
	c-1.4,0-2.6-1.1-2.6-2.6V131.2z M67.2,72.3h5.1v5.1h-5.1V72.3z M87.7,72.3h5.1v5.1h-5.1V72.3z"/>
</svg>
