<?xml version="1.0" encoding="utf-8"?>
<!-- Generator: Adobe Illustrator 21.0.0, SVG Export Plug-In . SVG Version: 6.00 Build 0)  -->
<svg version="1.1" id="Layer_1" xmlns="http://www.w3.org/2000/svg" xmlns:xlink="http://www.w3.org/1999/xlink" x="0px" y="0px"
	 viewBox="0 0 75 80" style="enable-background:new 0 0 75 80;" xml:space="preserve">
<style type="text/css">
	.st0{fill:#727272;}
	.st1{fill:url(#SVGID_1_);}
	.st2{fill:url(#SVGID_2_);}
	.st3{fill:url(#SVGID_3_);}
	.st4{fill:url(#SVGID_4_);}
	.st5{fill:url(#SVGID_5_);}
	.st6{fill:url(#SVGID_6_);}
	.st7{fill:url(#SVGID_7_);}
	.st8{fill:url(#SVGID_8_);}
	.st9{fill:url(#SVGID_9_);}
	.st10{fill:url(#SVGID_10_);}
	.st11{fill:url(#SVGID_11_);}
	.st12{fill:url(#SVGID_12_);}
	.st13{fill:url(#SVGID_13_);}
	.st14{fill:url(#SVGID_14_);}
	.st15{fill:url(#SVGID_15_);}
</style>
<g>
	<g>
		<path class="st0" d="M6.3,74.9v1.8c0,2.1-1.1,3.3-3.1,3.3s-3.1-1.2-3.1-3.3v-6.9c0-2.1,1.1-3.3,3.1-3.3s3.1,1.2,3.1,3.3V71h-2
			v-1.4c0-0.9-0.4-1.3-1.1-1.3c-0.7,0-1.1,0.4-1.1,1.3v7.2c0,0.9,0.4,1.3,1.1,1.3c0.7,0,1.1-0.3,1.1-1.3v-1.9L6.3,74.9L6.3,74.9z"/>
		<path class="st0" d="M14.4,79.8h-2.1l-0.4-2.4H9.3L9,79.8H7l2.1-13.3h3.1L14.4,79.8z M9.6,75.6h2l-1-6.7h0L9.6,75.6z"/>
		<path class="st0" d="M19.7,76L19.7,76l1.4-9.4h2.9v13.3h-2v-9.5h0l-1.4,9.5h-2l-1.5-9.4h0v9.4h-1.8V66.6h2.9L19.7,76z"/>
		<path class="st0" d="M27.7,72.2h2.9v1.9h-2.9v3.9h3.6v1.9h-5.7V66.6h5.7v1.9h-3.6V72.2z"/>
		<path class="st0" d="M37,79.8c-0.1-0.3-0.2-0.6-0.2-1.6v-2.1c0-1.2-0.4-1.7-1.4-1.7h-0.7v5.4h-2.1V66.6h3.2c2.2,0,3.1,1,3.1,3.1v1
			c0,1.4-0.4,2.2-1.4,2.7v0c1,0.4,1.4,1.4,1.4,2.8v2.1c0,0.6,0,1.1,0.2,1.6H37z M34.7,68.5v4.1h0.8c0.8,0,1.3-0.3,1.3-1.4v-1.3
			c0-0.9-0.3-1.4-1.1-1.4L34.7,68.5L34.7,68.5z"/>
		<path class="st0" d="M47,79.8h-2.1l-0.4-2.4H42l-0.4,2.4h-1.9l2.1-13.3h3.1L47,79.8z M42.2,75.6h2l-1-6.7h0L42.2,75.6z"/>
		<path class="st0" d="M46.6,66.6h6.5v1.9h-2.2v11.4h-2.1V68.5h-2.2L46.6,66.6L46.6,66.6z"/>
		<path class="st0" d="M56.1,72.2H59v1.9h-2.9v3.9h3.6v1.9H54V66.6h5.7v1.9h-3.6V72.2z"/>
		<path class="st0" d="M67,74.9v1.8c0,2.1-1.1,3.3-3.1,3.3c-2.1,0-3.1-1.2-3.1-3.3v-6.9c0-2.1,1.1-3.3,3.1-3.3
			c2.1,0,3.1,1.2,3.1,3.3V71h-2v-1.4c0-0.9-0.4-1.3-1.1-1.3c-0.7,0-1.1,0.4-1.1,1.3v7.2c0,0.9,0.4,1.3,1.1,1.3
			c0.7,0,1.1-0.3,1.1-1.3v-1.9L67,74.9L67,74.9z"/>
		<path class="st0" d="M70.4,79.8h-2.1V66.6h2.1v5.7h2.4v-5.7h2.1v13.3h-2.1v-5.7h-2.4V79.8z"/>
	</g>
	<g>
		
			<linearGradient id="SVGID_1_" gradientUnits="userSpaceOnUse" x1="59.1415" y1="495.2778" x2="11.4651" y2="442.7604" gradientTransform="matrix(1 0 0 -1 0 502)">
			<stop  offset="0" style="stop-color:#8C8C8C"/>
			<stop  offset="1" style="stop-color:#646464"/>
		</linearGradient>
		<path class="st1" d="M36.4,22.9c-4,0.9-6.5,4.8-5.7,8.8c0.9,4,4.8,6.5,8.8,5.7c1.1-0.2,2.1-0.7,3-1.4c-1-0.2-1.9-1-2.1-2.1
			c-0.3-1.4,0.6-2.8,2-3.1c1.1-0.2,2.2,0.2,2.8,1.1c0.3-1,0.3-2.2,0-3.3C44.3,24.6,40.4,22,36.4,22.9z M36.1,29
			c-0.9,0.2-1.7-0.4-1.9-1.2c-0.2-0.9,0.4-1.7,1.2-1.9c0.9-0.2,1.7,0.4,1.9,1.2C37.5,28,37,28.8,36.1,29z"/>
		
			<linearGradient id="SVGID_2_" gradientUnits="userSpaceOnUse" x1="68.9028" y1="476.2267" x2="37.342" y2="441.4613" gradientTransform="matrix(1 0 0 -1 0 502)">
			<stop  offset="0" style="stop-color:#8C8C8C"/>
			<stop  offset="1" style="stop-color:#646464"/>
		</linearGradient>
		<circle class="st2" cx="61.1" cy="34.4" r="4.6"/>
		
			<linearGradient id="SVGID_3_" gradientUnits="userSpaceOnUse" x1="59.7465" y1="494.7283" x2="12.0703" y2="442.211" gradientTransform="matrix(1 0 0 -1 0 502)">
			<stop  offset="0" style="stop-color:#8C8C8C"/>
			<stop  offset="1" style="stop-color:#646464"/>
		</linearGradient>
		<path class="st3" d="M57.7,46.7c-0.7,0-1.4,0.1-2,0.3l-6.8-7.5c2.9-3.3,4.2-7.9,3.2-12.5c-0.4-2-1.2-3.7-2.3-5.3l4.6-4.2
			c0.4,0.1,0.8,0.2,1.2,0.3c2.2,0.1,4-1.6,4.1-3.7c0.1-2.2-1.6-4-3.7-4.1c-2.2-0.1-4,1.6-4.1,3.7c0,0.4,0,0.9,0.1,1.2l-4.6,4.2
			c-3.3-2.9-7.9-4.2-12.5-3.2c-2,0.4-3.8,1.2-5.3,2.3L23.9,12c0.3-0.6,0.5-1.2,0.5-1.9c0.1-2.7-1.9-5-4.6-5.1
			c-2.7-0.1-5,1.9-5.1,4.6c-0.1,2.7,1.9,5,4.6,5.1c0.7,0,1.4-0.1,2-0.3l5.8,6.3c-2.9,3.3-4.2,7.9-3.2,12.5c0.4,2,1.2,3.7,2.3,5.3
			l-5.9,5.3c-1-0.7-2.2-1.1-3.5-1.1c-3.8-0.2-7.1,2.8-7.3,6.6c-0.2,3.8,2.8,7.1,6.6,7.3c3.8,0.2,7.1-2.8,7.3-6.6
			c0.1-1.3-0.2-2.5-0.8-3.6l5.9-5.3c3.3,2.9,7.9,4.2,12.5,3.2c2-0.4,3.7-1.2,5.3-2.3l6.8,7.5c-0.3,0.6-0.5,1.3-0.5,2
			c-0.1,2.7,1.9,5,4.6,5.1c2.7,0.1,5-1.9,5.1-4.6C62.5,49.2,60.4,46.9,57.7,46.7z M40.3,40.8c-5.9,1.3-11.7-2.5-13-8.4
			c-1.3-5.9,2.5-11.7,8.4-13c5.9-1.3,11.7,2.5,13,8.4C49.9,33.7,46.2,39.5,40.3,40.8z"/>
		
			<linearGradient id="SVGID_4_" gradientUnits="userSpaceOnUse" x1="46.6307" y1="506.635" x2="-1.0457" y2="454.1176" gradientTransform="matrix(1 0 0 -1 0 502)">
			<stop  offset="0" style="stop-color:#8C8C8C"/>
			<stop  offset="1" style="stop-color:#646464"/>
		</linearGradient>
		<path class="st4" d="M37.7,9.8c2.7,0.1,5-1.9,5.1-4.6c0.1-2.7-1.9-5-4.6-5.1c-2.7-0.1-5,1.9-5.1,4.6C33,7.3,35,9.6,37.7,9.8z"/>
		
			<linearGradient id="SVGID_5_" gradientUnits="userSpaceOnUse" x1="43.3947" y1="509.5729" x2="-4.2816" y2="457.0555" gradientTransform="matrix(1 0 0 -1 0 502)">
			<stop  offset="0" style="stop-color:#8C8C8C"/>
			<stop  offset="1" style="stop-color:#646464"/>
		</linearGradient>
		<circle class="st5" cx="14.6" cy="24.1" r="3.9"/>
		
			<linearGradient id="SVGID_6_" gradientUnits="userSpaceOnUse" x1="66.8727" y1="488.2588" x2="19.1967" y2="435.7418" gradientTransform="matrix(1 0 0 -1 0 502)">
			<stop  offset="0" style="stop-color:#8C8C8C"/>
			<stop  offset="1" style="stop-color:#646464"/>
		</linearGradient>
		<circle class="st6" cx="32.5" cy="51.6" r="4.9"/>
		
			<linearGradient id="SVGID_7_" gradientUnits="userSpaceOnUse" x1="37.9068" y1="471.9393" x2="42.3404" y2="476.5035" gradientTransform="matrix(1 0 0 -1 0 502)">
			<stop  offset="0" style="stop-color:#FFFFFF;stop-opacity:0"/>
			<stop  offset="1" style="stop-color:#FFFFFF;stop-opacity:0.3"/>
		</linearGradient>
		<path class="st7" d="M43.9,28.8C43.3,26,40.8,24,38,24c-0.4,0-0.9,0-1.3,0.1c-3.3,0.7-5.4,4-4.7,7.2c0.6,2.8,3.1,4.8,6,4.8h0
			c0.4,0,0.9,0,1.3-0.1c0.7-0.1,1.3-0.4,1.9-0.8c-0.4-0.4-0.7-0.8-0.8-1.4c-0.3-1.4,0.6-2.8,2-3.1c0.6-0.1,1.1,0,1.6,0.2
			C44.1,30.2,44.1,29.5,43.9,28.8z M36.1,29c-0.9,0.2-1.7-0.4-1.9-1.2c-0.2-0.9,0.4-1.7,1.2-1.9c0.9-0.2,1.7,0.4,1.9,1.2
			C37.5,28,37,28.8,36.1,29z"/>
		
			<linearGradient id="SVGID_8_" gradientUnits="userSpaceOnUse" x1="18.0661" y1="454.2962" x2="12.0023" y2="447.1892" gradientTransform="matrix(1 0 0 -1 0 502)">
			<stop  offset="0" style="stop-color:#FFFFFF;stop-opacity:0"/>
			<stop  offset="1" style="stop-color:#FFFFFF;stop-opacity:0.3"/>
		</linearGradient>
		<path class="st8" d="M16.5,55.3c-0.1,0-0.2,0-0.3,0c-3.1-0.2-5.6-2.8-5.4-6c0.2-3,2.6-5.4,5.7-5.4c0.1,0,0.2,0,0.3,0
			c3.1,0.2,5.6,2.8,5.4,6C22,52.9,19.5,55.3,16.5,55.3L16.5,55.3z"/>
		
			<linearGradient id="SVGID_9_" gradientUnits="userSpaceOnUse" x1="62.1133" y1="468.8221" x2="58.0992" y2="464.1175" gradientTransform="matrix(1 0 0 -1 0 502)">
			<stop  offset="0" style="stop-color:#FFFFFF;stop-opacity:0"/>
			<stop  offset="1" style="stop-color:#FFFFFF;stop-opacity:0.3"/>
		</linearGradient>
		<path class="st9" d="M61.1,38.2c-0.1,0-0.1,0-0.2,0c-2.1-0.1-3.7-1.9-3.6-4c0.1-2,1.8-3.6,3.8-3.6c0.1,0,0.1,0,0.2,0
			c2.1,0.1,3.7,1.9,3.6,4C64.7,36.6,63.1,38.2,61.1,38.2L61.1,38.2z"/>
		
			<linearGradient id="SVGID_10_" gradientUnits="userSpaceOnUse" x1="56.5726" y1="451.3459" x2="59.8489" y2="447.7273" gradientTransform="matrix(1 0 0 -1 0 502)">
			<stop  offset="0" style="stop-color:#FFFFFF;stop-opacity:0"/>
			<stop  offset="1" style="stop-color:#FFFFFF;stop-opacity:0.3"/>
		</linearGradient>
		<path class="st10" d="M57.5,55.2c-0.1,0-0.1,0-0.2,0c-2-0.1-3.5-1.8-3.4-3.8c0.1-1.9,1.7-3.4,3.6-3.4c0.1,0,0.1,0,0.2,0
			c1,0,1.9,0.5,2.5,1.2c0.6,0.7,1,1.6,0.9,2.6C61,53.7,59.4,55.2,57.5,55.2L57.5,55.2z"/>
		
			<linearGradient id="SVGID_11_" gradientUnits="userSpaceOnUse" x1="37.1076" y1="498.0782" x2="40.384" y2="494.4595" gradientTransform="matrix(1 0 0 -1 0 502)">
			<stop  offset="0" style="stop-color:#FFFFFF;stop-opacity:0"/>
			<stop  offset="1" style="stop-color:#FFFFFF;stop-opacity:0.3"/>
		</linearGradient>
		<path class="st11" d="M38,8.5c-0.1,0-0.1,0-0.2,0c-2-0.1-3.5-1.8-3.4-3.8c0.1-1.9,1.7-3.4,3.6-3.4c0.1,0,0.1,0,0.2,0
			c1,0,1.9,0.5,2.5,1.2c0.6,0.7,1,1.6,0.9,2.6C41.5,7,39.9,8.5,38,8.5L38,8.5z"/>
		
			<linearGradient id="SVGID_12_" gradientUnits="userSpaceOnUse" x1="55.4304" y1="487.6236" x2="58.1036" y2="490.4272" gradientTransform="matrix(1 0 0 -1 0 502)">
			<stop  offset="0" style="stop-color:#FFFFFF;stop-opacity:0"/>
			<stop  offset="1" style="stop-color:#FFFFFF;stop-opacity:0.3"/>
		</linearGradient>
		<path class="st12" d="M55.9,16.6c0,0-0.1,0-0.1,0c-1.5-0.1-2.6-1.3-2.5-2.8c0.1-1.4,1.2-2.5,2.6-2.5c0,0,0.1,0,0.1,0
			c1.5,0.1,2.6,1.3,2.5,2.8C58.4,15.5,57.3,16.6,55.9,16.6L55.9,16.6z"/>
		
			<linearGradient id="SVGID_13_" gradientUnits="userSpaceOnUse" x1="845.8201" y1="-176.8596" x2="848.4933" y2="-174.056" gradientTransform="matrix(-0.7071 -0.7071 -0.7071 0.7071 488.2712 747.2521)">
			<stop  offset="0" style="stop-color:#FFFFFF;stop-opacity:0"/>
			<stop  offset="1" style="stop-color:#FFFFFF;stop-opacity:0.3"/>
		</linearGradient>
		<path class="st13" d="M16.5,22.3C16.5,22.3,16.5,22.3,16.5,22.3c1.1,1.2,1,2.9-0.1,3.8c-1,0.9-2.7,0.9-3.7-0.1
			c0,0-0.1-0.1-0.1-0.1c-1-1.1-0.9-2.8,0.2-3.7C13.9,21.2,15.5,21.3,16.5,22.3L16.5,22.3z"/>
		
			<linearGradient id="SVGID_14_" gradientUnits="userSpaceOnUse" x1="20.7965" y1="490.6372" x2="17.0148" y2="495.2665" gradientTransform="matrix(1 0 0 -1 0 502)">
			<stop  offset="0" style="stop-color:#FFFFFF;stop-opacity:0"/>
			<stop  offset="1" style="stop-color:#FFFFFF;stop-opacity:0.3"/>
		</linearGradient>
		<path class="st14" d="M19.5,13.4c-0.1,0-0.1,0-0.2,0c-2-0.1-3.5-1.8-3.4-3.8c0.1-1.9,1.7-3.4,3.6-3.4c0.1,0,0.1,0,0.2,0
			c2,0.1,3.5,1.8,3.4,3.8C23,11.9,21.4,13.4,19.5,13.4L19.5,13.4z"/>
		
			<linearGradient id="SVGID_15_" gradientUnits="userSpaceOnUse" x1="33.7758" y1="448.7952" x2="29.9941" y2="453.4246" gradientTransform="matrix(1 0 0 -1 0 502)">
			<stop  offset="0" style="stop-color:#FFFFFF;stop-opacity:0"/>
			<stop  offset="1" style="stop-color:#FFFFFF;stop-opacity:0.3"/>
		</linearGradient>
		<path class="st15" d="M32.5,55.2c-0.1,0-0.1,0-0.2,0c-2-0.1-3.5-1.8-3.4-3.8c0.1-1.9,1.7-3.4,3.6-3.4c0.1,0,0.1,0,0.2,0
			c2,0.1,3.5,1.8,3.4,3.8C36,53.7,34.4,55.2,32.5,55.2L32.5,55.2z"/>
	</g>
</g>
</svg>
