<?xml version="1.0" encoding="utf-8"?>
<!-- Generator: Adobe Illustrator 21.0.0, SVG Export Plug-In . SVG Version: 6.00 Build 0)  -->
<svg version="1.1" id="Layer_1" xmlns="http://www.w3.org/2000/svg" xmlns:xlink="http://www.w3.org/1999/xlink" x="0px" y="0px"
	 viewBox="0 0 117.8 37.8" style="enable-background:new 0 0 117.8 37.8;" xml:space="preserve">
<style type="text/css">
	.st0{fill:url(#SVGID_1_);}
	.st1{fill:url(#SVGID_2_);}
	.st2{fill:url(#SVGID_3_);}
	.st3{fill:url(#SVGID_4_);}
	.st4{fill:url(#SVGID_5_);}
	.st5{fill:url(#SVGID_6_);}
	.st6{fill:url(#SVGID_7_);}
</style>
<g>
	<g>
		<path d="M7.9,35.9h-3c-1,0-1.9-0.3-2.5-0.9c-0.5-0.6-0.9-1.4-0.9-2.5V24c0-1.1,0.3-1.9,0.9-2.5s1.4-0.9,2.5-0.9h3
			c1,0,1.9,0.3,2.5,0.9s0.9,1.4,0.9,2.5v1.1c0,0.2-0.1,0.3-0.3,0.3h-0.7c-0.2,0-0.3-0.1-0.3-0.3V24c0-0.7-0.2-1.3-0.6-1.7
			c-0.4-0.4-0.9-0.6-1.7-0.6H5c-0.7,0-1.3,0.2-1.7,0.6s-0.6,1-0.6,1.7v8.4c0,0.7,0.2,1.3,0.6,1.7s0.9,0.6,1.7,0.6h2.8
			c0.7,0,1.3-0.2,1.7-0.6c0.4-0.4,0.6-1,0.6-1.7v-1.1c0-0.2,0.1-0.3,0.3-0.3H11c0.2,0,0.3,0.1,0.3,0.3v1.1c0,1.1-0.3,1.9-0.9,2.5
			C9.8,35.6,9,35.9,7.9,35.9z"/>
		<path d="M23.1,35.9h-2.9c-1,0-1.9-0.3-2.5-0.9c-0.6-0.6-0.9-1.4-0.9-2.5V24c0-1.1,0.3-1.9,0.9-2.5c0.6-0.6,1.4-0.9,2.5-0.9h2.9
			c1,0,1.9,0.3,2.5,0.9c0.6,0.6,0.9,1.4,0.9,2.5v8.5c0,1.1-0.3,1.9-0.9,2.5C24.9,35.6,24.1,35.9,23.1,35.9z M20.2,34.8h2.7
			c0.7,0,1.3-0.2,1.7-0.6c0.4-0.4,0.6-1,0.6-1.7v-8.5c0-0.7-0.2-1.3-0.6-1.7c-0.4-0.4-0.9-0.6-1.7-0.6h-2.7c-0.7,0-1.3,0.2-1.7,0.6
			c-0.4,0.4-0.6,1-0.6,1.7v8.4c0,0.7,0.2,1.3,0.6,1.7C18.9,34.6,19.5,34.8,20.2,34.8z"/>
		<path d="M32.5,35.6V21c0-0.2,0.1-0.3,0.3-0.3h5.9c1,0,1.9,0.3,2.5,0.9c0.6,0.6,0.9,1.4,0.9,2.5v8.5c0,1.1-0.3,1.9-0.9,2.5
			S39.7,36,38.6,36h-5.9C32.6,35.9,32.5,35.8,32.5,35.6z M34,34.8h4.5c0.7,0,1.3-0.2,1.7-0.6c0.4-0.4,0.6-1,0.6-1.7v-8.5
			c0-0.7-0.2-1.3-0.6-1.7c-0.4-0.4-0.9-0.6-1.7-0.6H34c-0.1,0-0.3,0.1-0.3,0.2v12.7C33.7,34.8,33.8,34.8,34,34.8z"/>
		<path d="M55.7,35.9h-7.3c-0.1,0-0.3-0.1-0.3-0.3V21c0-0.2,0.1-0.3,0.3-0.3h7.3c0.2,0,0.3,0.1,0.3,0.3v0.5c0,0.2-0.1,0.3-0.3,0.3
			h-6.1c-0.1,0-0.3,0.1-0.3,0.2v5.5c0,0.1,0.1,0.2,0.3,0.2H55c0.2,0,0.3,0.1,0.3,0.3v0.5c0,0.2-0.1,0.3-0.3,0.3h-5.5
			c-0.1,0-0.3,0.1-0.3,0.2v5.7c0,0.1,0.1,0.2,0.3,0.2h6.1c0.2,0,0.3,0.1,0.3,0.3v0.5C55.9,35.8,55.9,35.9,55.7,35.9z"/>
		<path d="M65.4,35.9h-1.2c-0.2,0-0.3-0.1-0.3-0.3L60.6,21c-0.1-0.2,0-0.3,0.3-0.3h0.8c0.2,0,0.3,0.1,0.3,0.3l2.8,13.6h0.1l3.6-13.6
			c0-0.2,0.1-0.3,0.3-0.3h0.9c0.2,0,0.3,0.1,0.3,0.3l3.7,13.6h0.1L76.7,21c0-0.2,0.1-0.3,0.3-0.3h0.8c0.2,0,0.3,0.1,0.2,0.3
			l-3.3,14.6c0,0.2-0.1,0.3-0.3,0.3h-1.2c-0.2,0-0.3-0.1-0.3-0.3l-3.5-13.4h-0.1l-3.5,13.4C65.7,35.8,65.5,35.9,65.4,35.9z"/>
		<path d="M84.3,20.9v14.6c0,0.2-0.1,0.3-0.3,0.3h-0.7c-0.1,0-0.3-0.1-0.3-0.3V20.9c0-0.2,0.1-0.3,0.3-0.3h0.7
			C84.3,20.7,84.3,20.7,84.3,20.9z"/>
		<path d="M91.8,35.9h-0.7c-0.1,0-0.3-0.1-0.3-0.3V21c0-0.2,0.1-0.3,0.3-0.3h0.7c0.1,0,0.3,0.1,0.3,0.1l7.3,12.5h0.1V20.9
			c0-0.2,0.1-0.3,0.3-0.3h0.7c0.2,0,0.3,0.1,0.3,0.3v14.6c0,0.2-0.1,0.3-0.3,0.3h-0.5c-0.1,0-0.3-0.1-0.4-0.3l-7.3-12.4h-0.1v12.4
			C92.1,35.8,92,35.9,91.8,35.9z"/>
		<path d="M112.6,35.9H110c-1,0-1.9-0.3-2.5-0.9c-0.6-0.6-0.9-1.4-0.9-2.5V24c0-1.1,0.3-1.9,0.9-2.5c0.6-0.6,1.4-0.9,2.5-0.9h2.6
			c1,0,1.9,0.3,2.5,0.9s0.9,1.4,0.9,2.5v1.1c0,0.2-0.1,0.3-0.3,0.3h-0.7c-0.2,0-0.3-0.1-0.3-0.3v-1c0-0.7-0.2-1.3-0.6-1.7
			s-0.9-0.6-1.7-0.6h-2.4c-0.7,0-1.3,0.2-1.7,0.6s-0.6,1-0.6,1.7v8.4c0,0.7,0.2,1.3,0.6,1.7s0.9,0.6,1.7,0.6h2.4
			c0.7,0,1.3-0.2,1.7-0.6c0.4-0.4,0.6-1,0.6-1.7v-3.1c0-0.1-0.1-0.2-0.2-0.2h-2.7c-0.2,0-0.3-0.1-0.3-0.3v-0.5
			c0-0.2,0.1-0.3,0.3-0.3h3.7c0.3,0,0.5,0.1,0.5,0.5v4c0,1.1-0.3,1.9-0.9,2.5C114.5,35.6,113.7,35.9,112.6,35.9z"/>
	</g>
	<g>
		
			<linearGradient id="SVGID_1_" gradientUnits="userSpaceOnUse" x1="39.5376" y1="26.7876" x2="115.0088" y2="43.407" gradientTransform="matrix(1 0 0 -1 0 38.8924)">
			<stop  offset="0" style="stop-color:#3B79EB"/>
			<stop  offset="0.2811" style="stop-color:#2FACF5"/>
			<stop  offset="1" style="stop-color:#31F5CB"/>
		</linearGradient>
		<path class="st0" d="M81.7,6.2c-0.5,0.8-1.3,1.3-2.3,1.3H64.2c-1.2,0-2.2,0.5-3.1,1.4c-0.8,1-1.5,1.9-2.3,2.9
			c-0.7-0.9-1.5-1.9-2.3-2.9c-0.9-0.9-2-1.4-3.1-1.4H38.2c-1.1,0-1.9-0.5-2.3-1.3c-1.6,0.3-3-0.1-4-0.9v0.3c0,1.7,0.5,3.1,1.7,4.2
			c1.1,1.1,2.5,1.7,4.2,1.7h16.2l4.5,4.9h0.8l4.5-4.9h16.2c1.7,0,3.1-0.5,4.2-1.7c1.1-1.1,1.7-2.5,1.7-4.2V5.3
			C84.7,6.2,83.3,6.6,81.7,6.2z"/>
		
			<linearGradient id="SVGID_2_" gradientUnits="userSpaceOnUse" x1="58.9165" y1="31.683" x2="108.3243" y2="34.2298" gradientTransform="matrix(1 0 0 -1 0 38.8924)">
			<stop  offset="0" style="stop-color:#2DB5EB"/>
			<stop  offset="1" style="stop-color:#33FFD3"/>
		</linearGradient>
		<path class="st1" d="M58.8,11.8c2.1-4.4,6.5-7.4,11.5-7.6c2.4-0.1,4.9-0.1,7.3,0c4.3,0.3,8.3-0.5,11.1-2.1c0.1-0.1,1-0.6,1.7-1
			c-0.7,2.3-2.1,3.9-3.9,5.1c-2.5,1.6-5.3,2.3-8.3,2.5c-2.3,0.1-4.6,0.1-6.9,0.1c-2,0.1-4,0.2-6,0.3C63.3,9.4,60.5,10.6,58.8,11.8z"
			/>
		
			<linearGradient id="SVGID_3_" gradientUnits="userSpaceOnUse" x1="88.4689" y1="34.2514" x2="62.042" y2="27.9252" gradientTransform="matrix(1 0 0 -1 0 38.8924)">
			<stop  offset="0" style="stop-color:#3B79EB"/>
			<stop  offset="0.2811" style="stop-color:#2FACF5"/>
			<stop  offset="1" style="stop-color:#31F5CB"/>
		</linearGradient>
		<path class="st2" d="M63.2,10.7c1.3-2.3,3-3.5,5.1-4.1c0.9-0.3,1.9-0.3,2.9-0.3c1.9,0.1,3.9,0.1,5.8,0.3c2.7,0.3,5.1,0.1,7.6-1.1
			c0.2-0.1,0.6-0.3,1.1-0.7c-0.5,1.6-1.5,2.5-2.6,3.3c-1.7,1.1-3.7,1.7-5.8,1.7c-2,0-4-0.1-5.9-0.3C68.6,9.4,66,9.4,63.2,10.7z"/>
		
			<linearGradient id="SVGID_4_" gradientUnits="userSpaceOnUse" x1="-1483.4435" y1="27.1333" x2="-1483.4435" y2="27.1333" gradientTransform="matrix(-1 0 0 -1 -1424.6469 38.8924)">
			<stop  offset="0" style="stop-color:#2FACF5"/>
			<stop  offset="1" style="stop-color:#31F5CB"/>
		</linearGradient>
		<path class="st3" d="M58.8,11.8"/>
		
			<linearGradient id="SVGID_5_" gradientUnits="userSpaceOnUse" x1="44.3869" y1="32.4113" x2="12.4028" y2="34.2565" gradientTransform="matrix(1 0 0 -1 0 38.8924)">
			<stop  offset="0" style="stop-color:#2FACF5"/>
			<stop  offset="1" style="stop-color:#31C4F5"/>
		</linearGradient>
		<path class="st4" d="M58.8,11.8c-2.1-4.4-6.5-7.4-11.5-7.6c-2.4-0.1-4.9-0.1-7.3,0C35.7,4.4,31.8,3.6,28.9,2c-0.1-0.1-1-0.6-1.7-1
			c0.7,2.3,2.1,3.9,3.9,5.1c2.5,1.6,5.3,2.3,8.3,2.5c2.3,0.1,4.6,0.1,6.9,0.1c2,0.1,4,0.2,6,0.3C54.3,9.4,57.1,10.6,58.8,11.8z"/>
		
			<linearGradient id="SVGID_6_" gradientUnits="userSpaceOnUse" x1="52.578" y1="24.9396" x2="32.4042" y2="37.7484" gradientTransform="matrix(1 0 0 -1 0 38.8924)">
			<stop  offset="0" style="stop-color:#3B79EB"/>
			<stop  offset="0.2811" style="stop-color:#2FACF5"/>
			<stop  offset="1" style="stop-color:#31F5CB"/>
		</linearGradient>
		<path class="st5" d="M54.4,10.7c-1.3-2.3-3-3.5-5.1-4.1c-0.9-0.3-1.9-0.3-2.9-0.3c-1.9,0.1-3.9,0.1-5.8,0.3
			c-2.7,0.3-5.1,0.1-7.6-1.1c-0.2-0.1-0.6-0.3-1.1-0.7c0.5,1.6,1.5,2.5,2.6,3.3c1.7,1.1,3.7,1.7,5.8,1.7c2,0,4-0.1,5.9-0.3
			C48.9,9.4,51.6,9.4,54.4,10.7z"/>
		
			<linearGradient id="SVGID_7_" gradientUnits="userSpaceOnUse" x1="57.2731" y1="27.1333" x2="57.2731" y2="27.1333" gradientTransform="matrix(1 0 0 -1 1.5235 38.8924)">
			<stop  offset="0" style="stop-color:#2FACF5"/>
			<stop  offset="1" style="stop-color:#31F5CB"/>
		</linearGradient>
		<path class="st6" d="M58.8,11.8"/>
	</g>
</g>
</svg>
