<?xml version="1.0" encoding="utf-8"?>
<!-- Generator: Adobe Illustrator 21.0.0, SVG Export Plug-In . SVG Version: 6.00 Build 0)  -->
<svg version="1.1" id="Layer_1" xmlns="http://www.w3.org/2000/svg" xmlns:xlink="http://www.w3.org/1999/xlink" x="0px" y="0px"
	 viewBox="0 0 84 27.1" style="enable-background:new 0 0 84 27.1;" xml:space="preserve">
<style type="text/css">
	.st0{fill:url(#SVGID_1_);}
	.st1{fill:url(#SVGID_2_);}
	.st2{fill:url(#SVGID_3_);}
	.st3{fill:url(#SVGID_4_);}
	.st4{fill:url(#SVGID_5_);}
	.st5{fill:url(#SVGID_6_);}
	.st6{fill:url(#SVGID_7_);}
</style>
<g>
	<g>
		<path d="M5.3,26.1H3.2c-0.7,0-1.3-0.2-1.8-0.7c-0.4-0.4-0.6-1-0.6-1.8v-6.1c0-0.8,0.2-1.3,0.6-1.8c0.4-0.4,1-0.7,1.8-0.7h2.1
			c0.7,0,1.3,0.2,1.8,0.7c0.4,0.4,0.6,1,0.6,1.8v0.8c0,0.1,0,0.2-0.2,0.2H7c-0.1,0-0.2,0-0.2-0.2v-0.8c0-0.5-0.1-1-0.4-1.2
			c-0.3-0.3-0.7-0.4-1.2-0.4H3.3c-0.5,0-0.9,0.1-1.2,0.4c-0.3,0.3-0.4,0.7-0.4,1.2v6c0,0.5,0.1,1,0.4,1.2c0.3,0.3,0.7,0.4,1.2,0.4h2
			c0.5,0,0.9-0.1,1.2-0.4c0.3-0.3,0.4-0.7,0.4-1.2v-0.8c0-0.1,0-0.2,0.2-0.2h0.5c0.1,0,0.2,0,0.2,0.2v0.8c0,0.8-0.2,1.3-0.6,1.8
			C6.7,25.8,6.1,26.1,5.3,26.1z"/>
		<path d="M16.2,26.1h-2.1c-0.7,0-1.3-0.2-1.8-0.7c-0.4-0.4-0.6-1-0.6-1.8v-6.1c0-0.8,0.2-1.3,0.6-1.8c0.4-0.4,1-0.7,1.8-0.7h2.1
			c0.7,0,1.3,0.2,1.8,0.7c0.4,0.4,0.6,1,0.6,1.8v6.1c0,0.8-0.2,1.3-0.6,1.8C17.5,25.8,16.9,26.1,16.2,26.1z M14.1,25.3h1.9
			c0.5,0,0.9-0.1,1.2-0.4s0.4-0.7,0.4-1.2v-6c0-0.5-0.1-1-0.4-1.2c-0.3-0.3-0.7-0.4-1.2-0.4h-1.9c-0.5,0-0.9,0.1-1.2,0.4
			c-0.3,0.3-0.4,0.7-0.4,1.2v6c0,0.5,0.1,1,0.4,1.2C13.2,25.1,13.6,25.3,14.1,25.3z"/>
		<path d="M22.9,25.9V15.4c0-0.1,0-0.2,0.2-0.2h4.2c0.7,0,1.3,0.2,1.8,0.7c0.4,0.4,0.6,1,0.6,1.8v6.1c0,0.8-0.2,1.3-0.6,1.8
			c-0.4,0.4-1,0.7-1.8,0.7h-4.2C23,26.1,22.9,26,22.9,25.9z M24,25.3h3.2c0.5,0,0.9-0.1,1.2-0.4s0.4-0.7,0.4-1.2v-6
			c0-0.5-0.1-1-0.4-1.2c-0.3-0.3-0.7-0.4-1.2-0.4H24c-0.1,0-0.2,0-0.2,0.1v9.1C23.8,25.3,23.8,25.3,24,25.3z"/>
		<path d="M39.5,26.1h-5.2c-0.1,0-0.2,0-0.2-0.2V15.4c0-0.1,0-0.2,0.2-0.2h5.2c0.1,0,0.2,0,0.2,0.2v0.4c0,0.1,0,0.2-0.2,0.2h-4.4
			c-0.1,0-0.2,0-0.2,0.1V20c0,0.1,0,0.1,0.2,0.1H39c0.1,0,0.2,0,0.2,0.2v0.4c0,0.1,0,0.2-0.2,0.2h-3.9c-0.1,0-0.2,0-0.2,0.1v4.1
			c0,0.1,0,0.1,0.2,0.1h4.4c0.1,0,0.2,0,0.2,0.2v0.4C39.7,26,39.6,26.1,39.5,26.1z"/>
		<path d="M46.4,26.1h-0.9c-0.1,0-0.2,0-0.2-0.2L43,15.4c0-0.1,0-0.2,0.2-0.2h0.6c0.1,0,0.2,0,0.2,0.2l2,9.7h0.1l2.6-9.7
			c0-0.1,0.1-0.2,0.2-0.2h0.7c0.1,0,0.2,0,0.2,0.2l2.6,9.7h0.1l2-9.7c0-0.1,0.1-0.2,0.2-0.2h0.6c0.1,0,0.2,0,0.1,0.2l-2.3,10.5
			c0,0.1-0.1,0.2-0.2,0.2H52c-0.1,0-0.2,0-0.2-0.2l-2.5-9.6h0l-2.5,9.6C46.6,26,46.5,26.1,46.4,26.1z"/>
		<path d="M59.9,15.4v10.5c0,0.1,0,0.2-0.2,0.2h-0.5c-0.1,0-0.2,0-0.2-0.2V15.4c0-0.1,0-0.2,0.2-0.2h0.5
			C59.9,15.2,59.9,15.2,59.9,15.4z"/>
		<path d="M65.3,26.1h-0.5c-0.1,0-0.2,0-0.2-0.2V15.4c0-0.1,0-0.2,0.2-0.2h0.5c0.1,0,0.2,0,0.2,0.1l5.2,8.9h0v-8.9
			c0-0.1,0-0.2,0.2-0.2h0.5c0.1,0,0.2,0,0.2,0.2v10.5c0,0.1,0,0.2-0.2,0.2H71c-0.1,0-0.2,0-0.3-0.2l-5.2-8.9h0v8.8
			C65.5,26,65.4,26.1,65.3,26.1z"/>
		<path d="M80.1,26.1h-1.9c-0.7,0-1.3-0.2-1.8-0.7c-0.4-0.4-0.6-1-0.6-1.8v-6.1c0-0.8,0.2-1.3,0.6-1.8c0.4-0.4,1-0.7,1.8-0.7h1.9
			c0.7,0,1.3,0.2,1.8,0.7c0.4,0.4,0.7,1,0.7,1.8v0.8c0,0.1,0,0.2-0.2,0.2h-0.5c-0.1,0-0.2,0-0.2-0.2v-0.7c0-0.5-0.1-1-0.4-1.2
			c-0.3-0.3-0.7-0.4-1.2-0.4h-1.7c-0.5,0-0.9,0.1-1.2,0.4c-0.3,0.3-0.4,0.7-0.4,1.2v6c0,0.5,0.1,1,0.4,1.2c0.3,0.3,0.7,0.4,1.2,0.4
			h1.7c0.5,0,0.9-0.1,1.2-0.4c0.3-0.3,0.4-0.7,0.4-1.2v-2.2c0-0.1,0-0.1-0.1-0.1h-1.9c-0.1,0-0.2,0-0.2-0.2v-0.4
			c0-0.1,0-0.2,0.2-0.2h2.7c0.2,0,0.3,0.1,0.3,0.3v2.9c0,0.8-0.2,1.3-0.7,1.8C81.5,25.8,80.9,26.1,80.1,26.1z"/>
	</g>
	<g>
		
			<linearGradient id="SVGID_1_" gradientUnits="userSpaceOnUse" x1="27.9393" y1="20.0585" x2="81.8473" y2="31.9295" gradientTransform="matrix(1 0 0 -1 0 29.1151)">
			<stop  offset="0" style="stop-color:#3B79EB"/>
			<stop  offset="0.2811" style="stop-color:#2FACF5"/>
			<stop  offset="1" style="stop-color:#31F5CB"/>
		</linearGradient>
		<path class="st0" d="M58,4.8c-0.3,0.6-0.9,0.9-1.7,0.9H45.5c-0.9,0-1.6,0.3-2.2,1c-0.6,0.7-1.1,1.4-1.6,2.1
			c-0.5-0.7-1.1-1.4-1.6-2.1c-0.7-0.7-1.4-1-2.2-1H27c-0.8,0-1.3-0.3-1.7-0.9c-1.1,0.2-2.1,0-2.9-0.6v0.2c0,1.2,0.4,2.2,1.2,3
			c0.8,0.8,1.8,1.2,3,1.2h11.5l3.2,3.5h0.6l3.2-3.5h11.5c1.2,0,2.2-0.4,3-1.2c0.8-0.8,1.2-1.8,1.2-3V4.2C60.2,4.8,59.2,5.1,58,4.8z"
			/>
		
			<linearGradient id="SVGID_2_" gradientUnits="userSpaceOnUse" x1="41.7814" y1="23.5553" x2="77.0727" y2="25.3744" gradientTransform="matrix(1 0 0 -1 0 29.1151)">
			<stop  offset="0" style="stop-color:#2DB5EB"/>
			<stop  offset="1" style="stop-color:#33FFD3"/>
		</linearGradient>
		<path class="st1" d="M41.7,8.8c1.5-3.1,4.7-5.3,8.2-5.4c1.7,0,3.5-0.1,5.2,0C58.2,3.6,61,3,63,1.9c0.1,0,0.7-0.4,1.2-0.7
			c-0.5,1.7-1.5,2.8-2.8,3.7c-1.8,1.1-3.8,1.7-5.9,1.8c-1.6,0.1-3.3,0-4.9,0.1c-1.4,0-2.9,0.1-4.3,0.2C44.9,7.1,42.9,8,41.7,8.8z"/>
		
			<linearGradient id="SVGID_3_" gradientUnits="userSpaceOnUse" x1="62.8903" y1="25.3898" x2="44.0139" y2="20.8711" gradientTransform="matrix(1 0 0 -1 0 29.1151)">
			<stop  offset="0" style="stop-color:#3B79EB"/>
			<stop  offset="0.2811" style="stop-color:#2FACF5"/>
			<stop  offset="1" style="stop-color:#31F5CB"/>
		</linearGradient>
		<path class="st2" d="M44.8,8c0.9-1.6,2.1-2.5,3.7-2.9c0.7-0.2,1.4-0.2,2.1-0.2C52,5,53.3,5,54.7,5.1c1.9,0.2,3.7,0.1,5.4-0.8
			c0.1,0,0.4-0.2,0.8-0.5c-0.3,1.1-1,1.8-1.9,2.4c-1.2,0.8-2.7,1.2-4.1,1.2c-1.4,0-2.9-0.1-4.2-0.2C48.7,7.1,46.8,7.1,44.8,8z"/>
		
			<linearGradient id="SVGID_4_" gradientUnits="userSpaceOnUse" x1="-1500.5634" y1="20.3054" x2="-1500.5634" y2="20.3054" gradientTransform="matrix(-1 0 0 -1 -1458.8676 29.1151)">
			<stop  offset="0" style="stop-color:#2FACF5"/>
			<stop  offset="1" style="stop-color:#31F5CB"/>
		</linearGradient>
		<path class="st3" d="M41.7,8.8"/>
		
			<linearGradient id="SVGID_5_" gradientUnits="userSpaceOnUse" x1="31.4031" y1="24.0754" x2="8.5573" y2="25.3934" gradientTransform="matrix(1 0 0 -1 0 29.1151)">
			<stop  offset="0" style="stop-color:#2FACF5"/>
			<stop  offset="1" style="stop-color:#31C4F5"/>
		</linearGradient>
		<path class="st4" d="M41.7,8.8c-1.5-3.1-4.7-5.3-8.2-5.4c-1.7,0-3.5-0.1-5.2,0c-3.1,0.2-5.9-0.4-7.9-1.5c-0.1,0-0.7-0.4-1.2-0.7
			C19.6,2.8,20.6,4,22,4.8c1.8,1.1,3.8,1.7,5.9,1.8c1.6,0.1,3.3,0,4.9,0.1c1.4,0,2.9,0.1,4.3,0.2C38.5,7.1,40.5,8,41.7,8.8z"/>
		
			<linearGradient id="SVGID_6_" gradientUnits="userSpaceOnUse" x1="37.2539" y1="18.7386" x2="22.8441" y2="27.8876" gradientTransform="matrix(1 0 0 -1 0 29.1151)">
			<stop  offset="0" style="stop-color:#3B79EB"/>
			<stop  offset="0.2811" style="stop-color:#2FACF5"/>
			<stop  offset="1" style="stop-color:#31F5CB"/>
		</linearGradient>
		<path class="st5" d="M38.6,8c-0.9-1.6-2.1-2.5-3.7-2.9c-0.7-0.2-1.4-0.2-2.1-0.2c-1.4,0-2.8,0.1-4.1,0.2c-1.9,0.2-3.7,0.1-5.4-0.8
			c-0.1,0-0.4-0.2-0.8-0.5c0.3,1.1,1,1.8,1.9,2.4c1.2,0.8,2.7,1.2,4.1,1.2c1.4,0,2.9-0.1,4.2-0.2C34.7,7.1,36.6,7.1,38.6,8z"/>
		
			<linearGradient id="SVGID_7_" gradientUnits="userSpaceOnUse" x1="40.1723" y1="20.3054" x2="40.1723" y2="20.3054" gradientTransform="matrix(1 0 0 -1 1.5235 29.1151)">
			<stop  offset="0" style="stop-color:#2FACF5"/>
			<stop  offset="1" style="stop-color:#31F5CB"/>
		</linearGradient>
		<path class="st6" d="M41.7,8.8"/>
	</g>
</g>
</svg>
