<?xml version="1.0" encoding="utf-8"?>
<!-- Generator: Adobe Illustrator 21.0.0, SVG Export Plug-In . SVG Version: 6.00 Build 0)  -->
<svg version="1.1" id="Layer_1" xmlns="http://www.w3.org/2000/svg" xmlns:xlink="http://www.w3.org/1999/xlink" x="0px" y="0px"
	 viewBox="0 0 174 54" style="enable-background:new 0 0 174 54;" xml:space="preserve">
<style type="text/css">
	.st0{fill:url(#SVGID_1_);}
	.st1{fill:url(#SVGID_2_);}
	.st2{fill:url(#SVGID_3_);}
	.st3{fill:url(#SVGID_4_);}
	.st4{fill:url(#SVGID_5_);}
	.st5{fill:url(#SVGID_6_);}
	.st6{fill:url(#SVGID_7_);}
</style>
<g>
	<g>
		<path d="M10.5,53.2H6c-1.5,0-2.8-0.5-3.7-1.4C1.5,50.9,1,49.7,1,48.1V35.3c0-1.6,0.4-2.8,1.3-3.7c0.9-0.9,2.1-1.4,3.7-1.4h4.5
			c1.5,0,2.8,0.5,3.7,1.4c0.9,0.9,1.3,2.1,1.3,3.7v1.7c0,0.3-0.1,0.4-0.4,0.4h-1c-0.3,0-0.4-0.1-0.4-0.4v-1.7c0-1.1-0.3-2-0.9-2.6
			c-0.6-0.6-1.4-0.9-2.5-0.9H6.2c-1.1,0-1.9,0.3-2.5,0.9s-0.9,1.5-0.9,2.6v12.6c0,1.1,0.3,2,0.9,2.6s1.4,0.9,2.5,0.9h4.2
			c1.1,0,1.9-0.3,2.5-0.9c0.6-0.6,0.9-1.5,0.9-2.6v-1.7c0-0.3,0.1-0.4,0.4-0.4h1c0.3,0,0.4,0.1,0.4,0.4v1.7c0,1.6-0.4,2.8-1.3,3.7
			C13.3,52.7,12.1,53.2,10.5,53.2z"/>
		<path d="M33.3,53.2h-4.4c-1.5,0-2.8-0.5-3.7-1.4c-0.9-0.9-1.3-2.1-1.3-3.7V35.3c0-1.6,0.4-2.8,1.3-3.7c0.9-0.9,2.1-1.4,3.7-1.4
			h4.4c1.5,0,2.8,0.5,3.7,1.4c0.9,0.9,1.3,2.1,1.3,3.7v12.8c0,1.6-0.4,2.8-1.3,3.7C36,52.7,34.8,53.2,33.3,53.2z M29,51.6h4.1
			c1.1,0,1.9-0.3,2.5-0.9c0.6-0.6,0.9-1.5,0.9-2.6V35.4c0-1.1-0.3-2-0.9-2.6c-0.6-0.6-1.4-0.9-2.5-0.9H29c-1.1,0-1.9,0.3-2.5,0.9
			s-0.9,1.5-0.9,2.6v12.6c0,1.1,0.3,2,0.9,2.6S27.9,51.6,29,51.6z"/>
		<path d="M47.5,52.8v-22c0-0.3,0.1-0.4,0.4-0.4h8.8c1.5,0,2.8,0.5,3.7,1.4c0.9,0.9,1.3,2.1,1.3,3.7v12.8c0,1.6-0.4,2.8-1.3,3.7
			c-0.9,0.9-2.1,1.4-3.7,1.4h-8.8C47.6,53.2,47.5,53,47.5,52.8z M49.7,51.6h6.8c1.1,0,1.9-0.3,2.5-0.9c0.6-0.6,0.9-1.5,0.9-2.6V35.4
			c0-1.1-0.3-2-0.9-2.6c-0.6-0.6-1.4-0.9-2.5-0.9h-6.8c-0.2,0-0.4,0.1-0.4,0.3v19.1C49.3,51.5,49.4,51.6,49.7,51.6z"/>
		<path d="M82.3,53.2h-11c-0.2,0-0.4-0.1-0.4-0.4v-22c0-0.3,0.1-0.4,0.4-0.4h11c0.3,0,0.4,0.1,0.4,0.4v0.8c0,0.3-0.1,0.4-0.4,0.4
			h-9.2c-0.2,0-0.4,0.1-0.4,0.3v8.2c0,0.2,0.1,0.3,0.4,0.3h8.2c0.3,0,0.4,0.1,0.4,0.4v0.8c0,0.3-0.1,0.4-0.4,0.4h-8.2
			c-0.2,0-0.4,0.1-0.4,0.3v8.6c0,0.2,0.1,0.3,0.4,0.3h9.2c0.3,0,0.4,0.1,0.4,0.4v0.8C82.7,53.1,82.6,53.2,82.3,53.2z"/>
		<path d="M96.9,53.2h-1.8c-0.3,0-0.4-0.1-0.5-0.4l-4.9-22c-0.1-0.3,0-0.4,0.4-0.4h1.2c0.3,0,0.4,0.1,0.5,0.4L96,51.2h0.2l5.4-20.5
			c0-0.3,0.2-0.4,0.5-0.4h1.4c0.3,0,0.5,0.1,0.5,0.4l5.5,20.5h0.2l4.2-20.4c0-0.3,0.2-0.4,0.5-0.4h1.2c0.3,0,0.4,0.1,0.3,0.4
			l-4.9,22c0,0.3-0.2,0.4-0.5,0.4h-1.8c-0.3,0-0.4-0.1-0.5-0.4l-5.3-20.1h-0.1l-5.3,20.1C97.3,53,97.1,53.2,96.9,53.2z"/>
		<path d="M125.4,30.7v22c0,0.3-0.1,0.4-0.4,0.4h-1c-0.2,0-0.4-0.1-0.4-0.4v-22c0-0.3,0.1-0.4,0.4-0.4h1
			C125.3,30.3,125.4,30.4,125.4,30.7z"/>
		<path d="M136.6,53.2h-1c-0.2,0-0.4-0.1-0.4-0.4v-22c0-0.3,0.1-0.4,0.4-0.4h1c0.2,0,0.4,0.1,0.4,0.2l10.9,18.8h0.1V30.7
			c0-0.3,0.1-0.4,0.4-0.4h1c0.3,0,0.4,0.1,0.4,0.4v22c0,0.3-0.1,0.4-0.4,0.4h-0.8c-0.2,0-0.4-0.1-0.6-0.4l-10.9-18.7H137v18.6
			C137,53,136.9,53.2,136.6,53.2z"/>
		<path d="M167.9,53.2h-3.9c-1.5,0-2.8-0.5-3.7-1.4c-0.9-0.9-1.3-2.1-1.3-3.7V35.3c0-1.6,0.4-2.8,1.3-3.7c0.9-0.9,2.1-1.4,3.7-1.4
			h3.9c1.5,0,2.8,0.5,3.7,1.4c0.9,0.9,1.4,2.1,1.4,3.7v1.6c0,0.3-0.1,0.4-0.4,0.4h-1c-0.3,0-0.4-0.1-0.4-0.4v-1.5
			c0-1.1-0.3-2-0.9-2.6c-0.6-0.6-1.4-0.9-2.5-0.9h-3.6c-1.1,0-1.9,0.3-2.5,0.9s-0.9,1.5-0.9,2.6v12.6c0,1.1,0.3,2,0.9,2.6
			s1.4,0.9,2.5,0.9h3.6c1.1,0,1.9-0.3,2.5-0.9c0.6-0.6,0.9-1.5,0.9-2.6v-4.7c0-0.2-0.1-0.3-0.3-0.3h-4.1c-0.3,0-0.4-0.1-0.4-0.4
			v-0.8c0-0.3,0.1-0.4,0.4-0.4h5.6c0.5,0,0.7,0.2,0.7,0.7v6c0,1.6-0.5,2.8-1.4,3.7C170.7,52.7,169.5,53.2,167.9,53.2z"/>
	</g>
	<g>
		<linearGradient id="SVGID_1_" gradientUnits="userSpaceOnUse" x1="58.0632" y1="17.4504" x2="171.4856" y2="-7.5261">
			<stop  offset="0" style="stop-color:#3B79EB"/>
			<stop  offset="0.2811" style="stop-color:#2FACF5"/>
			<stop  offset="1" style="stop-color:#31F5CB"/>
		</linearGradient>
		<path class="st0" d="M121.4,8.5c-0.7,1.2-1.9,1.9-3.5,1.9H95.1c-1.8,0-3.3,0.7-4.7,2.1c-1.2,1.5-2.3,2.9-3.4,4.4
			c-1.1-1.4-2.3-2.9-3.4-4.4c-1.4-1.4-3-2.1-4.7-2.1H56c-1.6,0-2.8-0.7-3.5-1.9c-2.4,0.5-4.5-0.1-6-1.3v0.4c0,2.6,0.8,4.7,2.5,6.3
			c1.7,1.7,3.8,2.5,6.3,2.5h24.3l6.7,7.3h1.2l6.7-7.3h24.3c2.6,0,4.7-0.8,6.3-2.5c1.7-1.7,2.5-3.8,2.5-6.3V7.2
			C125.9,8.5,123.9,9.1,121.4,8.5z"/>
		<linearGradient id="SVGID_2_" gradientUnits="userSpaceOnUse" x1="87.1806" y1="10.0711" x2="161.4335" y2="6.2436">
			<stop  offset="0" style="stop-color:#2DB5EB"/>
			<stop  offset="1" style="stop-color:#33FFD3"/>
		</linearGradient>
		<path class="st1" d="M87,16.9c3.1-6.6,9.8-11.1,17.3-11.4c3.6-0.1,7.3-0.2,10.9,0c6.5,0.4,12.4-0.8,16.7-3.2
			c0.2-0.1,1.5-0.9,2.5-1.5c-1,3.5-3.1,5.9-5.9,7.7c-3.8,2.4-8,3.5-12.4,3.8c-3.4,0.2-6.9,0.1-10.3,0.2c-3,0.1-6,0.3-9,0.5
			C93.8,13.4,89.5,15.2,87,16.9z"/>
		<linearGradient id="SVGID_3_" gradientUnits="userSpaceOnUse" x1="131.5961" y1="6.2148" x2="91.8802" y2="15.7221">
			<stop  offset="0" style="stop-color:#3B79EB"/>
			<stop  offset="0.2811" style="stop-color:#2FACF5"/>
			<stop  offset="1" style="stop-color:#31F5CB"/>
		</linearGradient>
		<path class="st2" d="M93.6,15.3c1.9-3.4,4.5-5.2,7.7-6.1c1.4-0.4,2.9-0.5,4.4-0.5c2.9,0.1,5.8,0.2,8.7,0.5
			c4.1,0.4,7.7,0.2,11.4-1.7c0.3-0.1,0.9-0.5,1.6-1c-0.7,2.4-2.2,3.8-3.9,5c-2.6,1.7-5.6,2.5-8.7,2.5c-3,0-6-0.2-8.9-0.4
			C101.8,13.3,97.8,13.3,93.6,15.3z"/>
		
			<linearGradient id="SVGID_4_" gradientUnits="userSpaceOnUse" x1="-831.2067" y1="16.9064" x2="-831.2067" y2="16.9064" gradientTransform="matrix(-1 0 0 1 -744.2067 0)">
			<stop  offset="0" style="stop-color:#2FACF5"/>
			<stop  offset="1" style="stop-color:#31F5CB"/>
		</linearGradient>
		<path class="st3" d="M87,16.9"/>
		<linearGradient id="SVGID_5_" gradientUnits="userSpaceOnUse" x1="65.3437" y1="8.9765" x2="17.2762" y2="6.2034">
			<stop  offset="0" style="stop-color:#2FACF5"/>
			<stop  offset="1" style="stop-color:#31C4F5"/>
		</linearGradient>
		<path class="st4" d="M87,16.9c-3.1-6.6-9.8-11.1-17.3-11.4c-3.6-0.1-7.3-0.2-10.9,0c-6.5,0.4-12.4-0.8-16.7-3.2
			c-0.2-0.1-1.5-0.9-2.5-1.5c1,3.5,3.1,5.9,5.9,7.7c3.8,2.4,8,3.5,12.4,3.8c3.4,0.2,6.9,0.1,10.3,0.2c3,0.1,6,0.3,9,0.5
			C80.2,13.4,84.5,15.2,87,16.9z"/>
		<linearGradient id="SVGID_6_" gradientUnits="userSpaceOnUse" x1="77.6491" y1="20.2049" x2="47.3308" y2="0.9552">
			<stop  offset="0" style="stop-color:#3B79EB"/>
			<stop  offset="0.2811" style="stop-color:#2FACF5"/>
			<stop  offset="1" style="stop-color:#31F5CB"/>
		</linearGradient>
		<path class="st5" d="M80.4,15.3c-1.9-3.4-4.5-5.2-7.7-6.1c-1.4-0.4-2.9-0.5-4.4-0.5c-2.9,0.1-5.8,0.2-8.7,0.5
			c-4.1,0.4-7.7,0.2-11.4-1.7c-0.3-0.1-0.9-0.5-1.6-1c0.7,2.4,2.2,3.8,3.9,5c2.6,1.7,5.6,2.5,8.7,2.5c3,0,6-0.2,8.9-0.4
			C72.2,13.3,76.2,13.3,80.4,15.3z"/>
		
			<linearGradient id="SVGID_7_" gradientUnits="userSpaceOnUse" x1="85.4765" y1="16.9064" x2="85.4765" y2="16.9064" gradientTransform="matrix(1 0 0 1 1.5235 0)">
			<stop  offset="0" style="stop-color:#2FACF5"/>
			<stop  offset="1" style="stop-color:#31F5CB"/>
		</linearGradient>
		<path class="st6" d="M87,16.9"/>
	</g>
</g>
</svg>
