<?xml version="1.0" encoding="utf-8"?>
<!-- Generator: Adobe Illustrator 21.0.0, SVG Export Plug-In . SVG Version: 6.00 Build 0)  -->
<svg version="1.1" id="Layer_1" xmlns="http://www.w3.org/2000/svg" xmlns:xlink="http://www.w3.org/1999/xlink" x="0px" y="0px"
	 viewBox="0 0 106 80" style="enable-background:new 0 0 106 80;" xml:space="preserve">
<style type="text/css">
	.st0{fill:#6E6E6E;}
	.st1{fill:#3A3A3A;}
</style>
<g>
	<g>
		<g>
			<path class="st0" d="M75.9,39.9c0-1.7-0.6-3.2-1.8-4.4c-1.2-1.2-2.7-1.8-4.4-1.8c-1.7,0-3.2,0.6-4.4,1.8
				c-1.2,1.2-1.8,2.7-1.8,4.4c0,1.7,0.6,3.2,1.8,4.4c2.4,2.4,6.4,2.4,8.8,0C75.3,43.2,75.9,41.6,75.9,39.9z"/>
		</g>
		<g>
			<path class="st0" d="M42.8,6.2c0-1.7-0.6-3.2-1.8-4.4C39.8,0.6,38.2,0,36.6,0c-1.7,0-3.2,0.6-4.4,1.8C31,3,30.4,4.6,30.4,6.2
				c0,1.7,0.6,3.2,1.8,4.4c1.2,1.2,2.7,1.8,4.4,1.8c1.7,0,3.2-0.6,4.4-1.8C42.2,9.4,42.8,7.9,42.8,6.2z"/>
		</g>
		<path class="st0" d="M42.6,39.7c0-1.7-0.6-3.2-1.8-4.4c-2.4-2.4-6.4-2.4-8.8,0c-1.2,1.2-1.8,2.7-1.8,4.4c0,1.7,0.6,3.2,1.8,4.4
			c2.4,2.4,6.4,2.4,8.8,0C42,42.9,42.6,41.3,42.6,39.7z"/>
		<g>
			<path class="st0" d="M75.9,6.4c0-1.7-0.6-3.2-1.8-4.4c-1.2-1.2-2.7-1.8-4.4-1.8c-1.7,0-3.2,0.6-4.4,1.8c-0.2,0.2-0.5,0.5-0.7,0.9
				c-0.1,0.1-0.1,0.2-0.2,0.3c-0.1,0.2-0.3,0.5-0.4,0.7C64,4,63.9,4.1,63.9,4.2c-0.1,0.2-0.2,0.5-0.2,0.8c0,0.1,0,0.1,0,0.2
				c0,0,0,0.1,0,0.1l-0.1,1.4c0,0.2,0,0.4,0.1,0.6l0,0.1c0,0,0,0.1,0,0.2l0,0.1l0,0.1v0.1c0,0.1,0,0.2,0,0.3c0,2.4-1,4.7-2.8,6.5
				c-1.8,1.7-4.1,2.7-6.5,2.6l-0.1,0l-0.1,0c-0.1,0-0.1,0-0.2,0c-0.1,0-0.2,0-0.2,0l-0.1,0c-0.1,0-0.2,0-0.4,0l-1.4,0.1
				c0,0-0.1,0-0.1,0l-0.1,0c-0.3,0.1-0.5,0.1-0.8,0.2c-0.1,0.1-0.3,0.1-0.4,0.2c-0.2,0.1-0.5,0.2-0.7,0.4c-0.1,0.1-0.2,0.1-0.3,0.2
				c-0.4,0.3-0.6,0.5-0.9,0.7c-1.2,1.2-1.8,2.7-1.8,4.4c0,1.7,0.6,3.2,1.8,4.4c2.4,2.4,6.4,2.4,8.8,0c0.2-0.2,0.5-0.5,0.7-0.9
				c0.1-0.1,0.1-0.2,0.2-0.3c0.1-0.2,0.3-0.4,0.4-0.7c0.1-0.1,0.1-0.2,0.2-0.4c0.1-0.2,0.2-0.5,0.2-0.8l0-0.1c0,0,0-0.1,0-0.1
				l0.1-1.4c0-0.2,0-0.3-0.1-0.5l0-0.1c0,0,0-0.1,0-0.2l0,0l0-0.1v-0.1c0-0.1,0-0.2,0-0.3c0-2.4,1-4.7,2.8-6.5
				c1.8-1.7,4.1-2.7,6.5-2.6l0.1,0l0.1,0c0.1,0,0.1,0,0.2,0c0.1,0,0.2,0,0.2,0c0,0,0.1,0,0.2,0c0.1,0,0.2,0,0.3,0h0l1.3-0.1
				c0,0,0.2-0.1,0.2-0.1c0.3-0.1,0.5-0.1,0.8-0.2c0.1,0,0.2-0.1,0.4-0.1c0.2-0.1,0.5-0.2,0.7-0.4c0.1-0.1,0.2-0.1,0.3-0.2
				c0.3-0.2,0.6-0.5,0.9-0.7C75.3,9.6,75.9,8,75.9,6.4L75.9,6.4z"/>
		</g>
		<path class="st0" d="M75.9,23.1c0-1.7-0.6-3.2-1.8-4.4c-1.2-1.2-2.7-1.8-4.4-1.8c-1.7,0-3.2,0.6-4.4,1.8c-0.2,0.2-0.5,0.5-0.7,0.9
			c-0.1,0.1-0.1,0.2-0.2,0.3c-0.1,0.2-0.3,0.4-0.4,0.7c-0.1,0.1-0.1,0.2-0.2,0.4c-0.1,0.2-0.2,0.5-0.2,0.7c0,0-0.1,0.2-0.1,0.2
			l-0.1,1.4c0,0.2,0,0.3,0.1,0.5l0,0.1c0,0.1,0,0.1,0,0.2c0,0,0,0,0,0.1l0,0l0,0.1c0,0.1,0,0.2,0,0.3c0,2.4-1,4.7-2.8,6.4
			c-1.8,1.7-4.1,2.7-6.5,2.6l-0.3,0l0,0c0,0,0,0,0,0c-0.1,0-0.1,0-0.2,0l-0.2,0c-0.1,0-0.2,0-0.3,0l-1.3,0.1c0,0-0.2,0.1-0.2,0.1
			c-0.3,0.1-0.6,0.1-0.8,0.2c-0.1,0-0.2,0.1-0.4,0.2c-0.2,0.1-0.4,0.2-0.7,0.4l0,0c-0.1,0-0.2,0.1-0.2,0.2c-0.4,0.3-0.6,0.5-0.9,0.7
			c-1.2,1.2-1.8,2.7-1.8,4.4c0,1.7,0.6,3.2,1.8,4.4c2.4,2.4,6.4,2.4,8.8,0c0.2-0.2,0.5-0.5,0.7-0.9c0-0.1,0.1-0.1,0.1-0.2l0.1-0.1
			c0.1-0.2,0.2-0.4,0.3-0.7c0.1-0.1,0.1-0.2,0.2-0.4c0.1-0.2,0.2-0.5,0.2-0.8c0-0.1,0-0.1,0-0.2c0,0,0-0.1,0-0.1l0.1-1.4
			c0-0.2,0-0.4-0.1-0.6c0-0.1,0-0.1,0-0.2c0,0,0,0,0-0.1l0-0.1c0-0.1,0-0.2,0-0.3c0-2.4,1-4.7,2.8-6.4c1.8-1.7,4.1-2.7,6.5-2.6
			l0.1,0l0.1,0c0.1,0,0.1,0,0.2,0c0.1,0,0.1,0,0.2,0c0.1,0,0.1,0,0.2,0c0.1,0,0.2,0,0.3,0l1.4-0.1c0,0,0.2-0.1,0.2-0.1
			c0.3-0.1,0.5-0.1,0.8-0.2c0.1,0,0.2-0.1,0.3-0.1l0,0c0.2-0.1,0.4-0.2,0.7-0.3c0.1-0.1,0.2-0.1,0.3-0.2c0.4-0.2,0.6-0.5,0.9-0.7
			C75.3,26.4,75.9,24.8,75.9,23.1L75.9,23.1z"/>
		<path class="st0" d="M59.1,6.4c0-1.7-0.6-3.2-1.8-4.4c-1.2-1.2-2.7-1.8-4.4-1.8c-1.7,0-3.2,0.6-4.4,1.8c-0.2,0.2-0.5,0.5-0.7,0.9
			c-0.1,0.1-0.1,0.2-0.2,0.3c-0.1,0.2-0.2,0.4-0.4,0.7c-0.1,0.1-0.1,0.2-0.2,0.4C47,4.4,47,4.7,46.9,4.9l0,0.2c0,0,0,0.1,0,0.1
			l-0.1,1.4c0,0.2,0,0.4,0.1,0.6l0,0c0,0.1,0,0.1,0,0.2c0,0,0,0,0,0.1l0,0.1l0,0.1c0,0.1,0,0.2,0,0.3c0,2.4-1,4.7-2.8,6.4
			c-1.8,1.7-4.1,2.7-6.5,2.6l-0.1,0l-0.1,0c-0.1,0-0.2,0-0.2,0c-0.1,0-0.1,0-0.2,0l-0.2,0c-0.1,0-0.2,0-0.3,0l-1.3,0.1l0,0h0
			c0,0-0.2,0.1-0.2,0.1c-0.3,0.1-0.6,0.1-0.8,0.2c-0.1,0-0.2,0.1-0.4,0.2c-0.2,0.1-0.4,0.2-0.7,0.4l0,0c-0.1,0.1-0.2,0.1-0.3,0.2
			c-0.4,0.2-0.6,0.5-0.9,0.7c-1.2,1.2-1.8,2.7-1.8,4.4c0,1.7,0.6,3.2,1.8,4.4c2.4,2.4,6.4,2.4,8.8,0c0.2-0.2,0.5-0.5,0.7-0.9
			c0.1-0.1,0.1-0.2,0.2-0.3l0,0c0.1-0.2,0.3-0.5,0.4-0.7c0.1-0.1,0.1-0.2,0.2-0.4c0.1-0.2,0.2-0.5,0.2-0.8c0-0.1,0-0.1,0-0.2
			c0,0,0-0.1,0-0.1l0.1-1.4c0-0.2,0-0.4-0.1-0.6l0-0.1c0-0.1,0-0.1,0-0.2c0,0,0,0,0-0.1l0,0l0-0.1c0-0.1,0-0.2,0-0.3
			c0-2.4,1-4.7,2.8-6.4c1.8-1.7,4.1-2.7,6.5-2.6l0.1,0l0.1,0c0.1,0,0.1,0,0.2,0c0.1,0,0.1,0,0.2,0c0.1,0,0.1,0,0.2,0
			c0.1,0,0.2,0,0.3,0l1.4-0.1c0,0,0.1,0,0.1,0l0.1,0c0.3-0.1,0.6-0.1,0.8-0.2c0.1,0,0.2-0.1,0.4-0.2c0.2-0.1,0.4-0.2,0.7-0.4
			c0.1-0.1,0.2-0.1,0.3-0.2c0.4-0.3,0.6-0.5,0.9-0.7C58.5,9.6,59.1,8,59.1,6.4L59.1,6.4z"/>
	</g>
	<g>
		<g>
			<g>
				<path class="st1" d="M0.1,61.1h6.4c5.7,0,8.9,2.9,8.9,8.8c0,6.2-2.7,9.7-8.9,9.7H0.1V61.1z M2.5,77.6h4.1c1.7,0,6.2-0.5,6.2-7.3
					c0-4.4-1.6-7.1-6.2-7.1H2.5V77.6z"/>
				<path class="st1" d="M29.9,79.6c-0.4,0.2-0.9,0.4-1.6,0.4c-1.1,0-1.9-0.6-1.9-2.1c-1.2,1.4-2.9,2.1-4.7,2.1
					c-2.4,0-4.4-1.1-4.4-3.8c0-3,2.3-3.7,4.5-4.1c2.4-0.5,4.5-0.3,4.5-2c0-1.9-1.6-2.2-3-2.2c-1.9,0-3.2,0.6-3.3,2.5h-2.2
					c0.1-3.3,2.7-4.5,5.7-4.5c2.4,0,5,0.5,5,3.7v6.9c0,1,0,1.5,0.7,1.5c0.2,0,0.4,0,0.7-0.1V79.6z M26.3,72.7
					c-0.9,0.6-2.5,0.6-4,0.9c-1.5,0.3-2.7,0.8-2.7,2.4c0,1.5,1.2,2,2.6,2c2.9,0,4.1-1.8,4.1-3V72.7z"/>
				<path class="st1" d="M35,66.2h2.7v1.9H35v8.3c0,1,0.3,1.2,1.7,1.2h1v1.9H36c-2.3,0-3.2-0.5-3.2-2.9v-8.5h-2.3v-1.9h2.3v-4H35
					V66.2z"/>
				<path class="st1" d="M52,79.6c-0.4,0.2-0.9,0.4-1.6,0.4c-1.1,0-1.9-0.6-1.9-2.1c-1.2,1.4-2.9,2.1-4.7,2.1
					c-2.4,0-4.4-1.1-4.4-3.8c0-3,2.3-3.7,4.5-4.1c2.4-0.5,4.5-0.3,4.5-2c0-1.9-1.6-2.2-3-2.2c-1.9,0-3.2,0.6-3.3,2.5h-2.2
					c0.1-3.3,2.7-4.5,5.7-4.5c2.4,0,5,0.5,5,3.7v6.9c0,1,0,1.5,0.7,1.5c0.2,0,0.4,0,0.7-0.1V79.6z M48.4,72.7
					c-0.9,0.6-2.5,0.6-4,0.9c-1.5,0.3-2.7,0.8-2.7,2.4c0,1.5,1.2,2,2.6,2c2.9,0,4.1-1.8,4.1-3V72.7z"/>
			</g>
			<g>
				<path class="st1" d="M51.4,61.1h15v2.8h-5.9v15.7h-3.2V63.9h-5.9V61.1z"/>
				<path class="st1" d="M67.6,73.7c0,2.1,1.1,4,3.6,4c1.7,0,2.8-0.8,3.3-2.2h2.8c-0.6,2.9-3.1,4.6-6.1,4.6c-4.2,0-6.6-2.9-6.6-7.1
					c0-3.8,2.5-7.1,6.5-7.1c4.2,0,6.8,3.8,6.3,7.8H67.6z M74.5,71.7c-0.1-1.9-1.4-3.6-3.4-3.6c-2.1,0-3.5,1.6-3.5,3.6H74.5z"/>
				<path class="st1" d="M88.8,70.7c-0.2-1.6-1.4-2.5-3.1-2.5c-1.5,0-3.7,0.8-3.7,4.9c0,2.2,1,4.6,3.6,4.6c1.7,0,2.9-1.1,3.2-3.1h3
					C91.2,78.1,89,80,85.6,80c-4.2,0-6.5-3-6.5-6.9c0-4,2.2-7.2,6.6-7.2c3.1,0,5.8,1.6,6,4.9H88.8z"/>
				<path class="st1" d="M94.1,61.1h3V68h0.1c0.7-1.2,2.3-2.1,4-2.1c2.9,0,4.8,1.6,4.8,4.6v9.2h-3v-8.4c-0.1-2.1-0.9-3-2.6-3
					c-2,0-3.2,1.6-3.2,3.5v7.9h-3V61.1z"/>
			</g>
		</g>
	</g>
</g>
</svg>
