<?xml version="1.0" encoding="utf-8"?>
<!-- Generator: Adobe Illustrator 21.0.0, SVG Export Plug-In . SVG Version: 6.00 Build 0)  -->
<svg version="1.1" id="Layer_1" xmlns="http://www.w3.org/2000/svg" xmlns:xlink="http://www.w3.org/1999/xlink" x="0px" y="0px"
	 viewBox="0 0 45 45" style="enable-background:new 0 0 45 45;" xml:space="preserve">
<style type="text/css">
	.st0{fill:url(#SVGID_1_);}
</style>
<linearGradient id="SVGID_1_" gradientUnits="userSpaceOnUse" x1="8.3537" y1="47.0021" x2="36.6463" y2="-2.0021">
	<stop  offset="0" style="stop-color:#2FACF5"/>
	<stop  offset="0.1892" style="stop-color:#33AEF3"/>
	<stop  offset="0.3853" style="stop-color:#40B6ED"/>
	<stop  offset="0.5845" style="stop-color:#54C2E2"/>
	<stop  offset="0.7859" style="stop-color:#71D3D4"/>
	<stop  offset="0.9873" style="stop-color:#96E9C1"/>
	<stop  offset="1" style="stop-color:#99EBC0"/>
</linearGradient>
<path class="st0" d="M40.9,1H4.1C2.3,1,1,2.3,1,4.1v36.9C1,42.7,2.3,44,4.1,44H24V27.4h-5.6v-6.5H24v-4.8c0-5.6,3.4-8.6,8.4-8.6
	c2.4,0,4.4,0.2,5,0.3v5.8h-3.4c-2.7,0-3.2,1.3-3.2,3.2v4.2h6.5l-0.8,6.5h-5.6V44h10.2c1.7,0,3.1-1.4,3.1-3.1V4.1
	C44,2.3,42.7,1,40.9,1z"/>
</svg>
