<?xml version="1.0" encoding="utf-8"?>
<!-- Generator: Adobe Illustrator 21.0.0, SVG Export Plug-In . SVG Version: 6.00 Build 0)  -->
<svg version="1.1" id="Layer_1" xmlns="http://www.w3.org/2000/svg" xmlns:xlink="http://www.w3.org/1999/xlink" x="0px" y="0px"
	 viewBox="0 0 45 45" style="enable-background:new 0 0 45 45;" xml:space="preserve">
<style type="text/css">
	.st0{fill:url(#SVGID_1_);}
	.st1{fill:url(#SVGID_2_);}
	.st2{fill:url(#SVGID_3_);}
</style>
<g>
	<linearGradient id="SVGID_1_" gradientUnits="userSpaceOnUse" x1="16.4698" y1="32.9389" x2="28.525" y2="12.0586">
		<stop  offset="0" style="stop-color:#2FACF5"/>
		<stop  offset="0.1892" style="stop-color:#33AEF3"/>
		<stop  offset="0.3853" style="stop-color:#40B6ED"/>
		<stop  offset="0.5845" style="stop-color:#54C2E2"/>
		<stop  offset="0.7859" style="stop-color:#71D3D4"/>
		<stop  offset="0.9873" style="stop-color:#96E9C1"/>
		<stop  offset="1" style="stop-color:#99EBC0"/>
	</linearGradient>
	<path class="st0" d="M32.1,15.2c-0.2-0.5-0.5-1-0.9-1.4c-0.4-0.4-0.9-0.7-1.4-0.9c-0.4-0.2-1.1-0.4-2.3-0.4c-1.3-0.1-1.7-0.1-5-0.1
		c-3.3,0-3.7,0-5,0.1c-1.2,0.1-1.9,0.3-2.3,0.4c-0.5,0.2-1,0.5-1.4,0.9c-0.4,0.4-0.7,0.9-0.9,1.4c-0.2,0.4-0.4,1.1-0.4,2.3
		c-0.1,1.3-0.1,1.7-0.1,5c0,3.3,0,3.7,0.1,5c0.1,1.2,0.3,1.9,0.4,2.3c0.2,0.5,0.5,1,0.9,1.4c0.4,0.4,0.9,0.7,1.4,0.9
		c0.4,0.2,1.1,0.4,2.3,0.4c1.3,0.1,1.7,0.1,5,0.1c3.3,0,3.7,0,5-0.1c1.2-0.1,1.9-0.3,2.3-0.4c1.1-0.4,1.9-1.3,2.3-2.3
		c0.2-0.4,0.4-1.1,0.4-2.3c0.1-1.3,0.1-1.7,0.1-5c0-3.3,0-3.7-0.1-5C32.5,16.3,32.3,15.6,32.1,15.2z M22.5,28.9
		c-3.5,0-6.4-2.8-6.4-6.4s2.8-6.4,6.4-6.4c3.5,0,6.4,2.8,6.4,6.4S26,28.9,22.5,28.9z M29.1,17.4c-0.8,0-1.5-0.7-1.5-1.5
		c0-0.8,0.7-1.5,1.5-1.5c0.8,0,1.5,0.7,1.5,1.5C30.6,16.7,29.9,17.4,29.1,17.4z"/>
	<linearGradient id="SVGID_2_" gradientUnits="userSpaceOnUse" x1="20.4378" y1="26.0718" x2="24.5622" y2="18.9282">
		<stop  offset="0" style="stop-color:#2FACF5"/>
		<stop  offset="0.1892" style="stop-color:#33AEF3"/>
		<stop  offset="0.3853" style="stop-color:#40B6ED"/>
		<stop  offset="0.5845" style="stop-color:#54C2E2"/>
		<stop  offset="0.7859" style="stop-color:#71D3D4"/>
		<stop  offset="0.9873" style="stop-color:#96E9C1"/>
		<stop  offset="1" style="stop-color:#99EBC0"/>
	</linearGradient>
	<path class="st1" d="M26.6,22.5c0,2.3-1.8,4.1-4.1,4.1s-4.1-1.8-4.1-4.1s1.8-4.1,4.1-4.1S26.6,20.2,26.6,22.5z"/>
	<linearGradient id="SVGID_3_" gradientUnits="userSpaceOnUse" x1="8.3537" y1="47.0021" x2="36.6463" y2="-2.0021">
		<stop  offset="0" style="stop-color:#2FACF5"/>
		<stop  offset="0.1892" style="stop-color:#33AEF3"/>
		<stop  offset="0.3853" style="stop-color:#40B6ED"/>
		<stop  offset="0.5845" style="stop-color:#54C2E2"/>
		<stop  offset="0.7859" style="stop-color:#71D3D4"/>
		<stop  offset="0.9873" style="stop-color:#96E9C1"/>
		<stop  offset="1" style="stop-color:#99EBC0"/>
	</linearGradient>
	<path class="st2" d="M40.9,1H4.1C2.3,1,1,2.3,1,4.1v36.9C1,42.7,2.3,44,4.1,44h36.9c1.7,0,3.1-1.4,3.1-3.1V4.1
		C44,2.3,42.7,1,40.9,1z M34.8,27.6c-0.1,1.3-0.3,2.2-0.6,3c-0.6,1.7-2,3-3.6,3.6c-0.8,0.3-1.7,0.5-3,0.6c-1.3,0.1-1.7,0.1-5.1,0.1
		c-3.4,0-3.8,0-5.1-0.1c-1.3-0.1-2.2-0.3-3-0.6c-0.8-0.3-1.6-0.8-2.2-1.4c-0.6-0.6-1.1-1.4-1.4-2.2c-0.3-0.8-0.5-1.7-0.6-3
		c-0.1-1.3-0.1-1.7-0.1-5.1s0-3.8,0.1-5.1c0.1-1.3,0.3-2.2,0.6-3c0.3-0.8,0.8-1.6,1.4-2.2c0.6-0.6,1.4-1.1,2.2-1.4
		c0.8-0.3,1.7-0.5,3-0.6c1.3-0.1,1.7-0.1,5.1-0.1s3.8,0,5.1,0.1c1.3,0.1,2.2,0.3,3,0.6c0.8,0.3,1.6,0.8,2.2,1.4
		c0.6,0.6,1.1,1.4,1.4,2.2c0.3,0.8,0.5,1.7,0.6,3c0.1,1.3,0.1,1.7,0.1,5.1S34.9,26.3,34.8,27.6z"/>
</g>
</svg>
