<?xml version="1.0" encoding="utf-8"?>
<!-- Generator: Adobe Illustrator 21.0.0, SVG Export Plug-In . SVG Version: 6.00 Build 0)  -->
<svg version="1.1" id="Layer_1" xmlns="http://www.w3.org/2000/svg" xmlns:xlink="http://www.w3.org/1999/xlink" x="0px" y="0px"
	 viewBox="0 0 45 45" style="enable-background:new 0 0 45 45;" xml:space="preserve">
<style type="text/css">
	.st0{fill:url(#SVGID_1_);}
</style>
<linearGradient id="SVGID_1_" gradientUnits="userSpaceOnUse" x1="8.3537" y1="47.0021" x2="36.6463" y2="-2.0021">
	<stop  offset="0" style="stop-color:#2FACF5"/>
	<stop  offset="0.1892" style="stop-color:#33AEF3"/>
	<stop  offset="0.3853" style="stop-color:#40B6ED"/>
	<stop  offset="0.5845" style="stop-color:#54C2E2"/>
	<stop  offset="0.7859" style="stop-color:#71D3D4"/>
	<stop  offset="0.9873" style="stop-color:#96E9C1"/>
	<stop  offset="1" style="stop-color:#99EBC0"/>
</linearGradient>
<path class="st0" d="M40.9,1H4.1C2.3,1,1,2.3,1,4.1v36.9C1,42.7,2.3,44,4.1,44h36.9c1.7,0,3.1-1.4,3.1-3.1V4.1C44,2.3,42.7,1,40.9,1
	z M16.2,33.5H11V17.7h5.2V33.5z M13.6,15.6L13.6,15.6c-1.8,0-2.9-1.2-2.9-2.7c0-1.5,1.2-2.7,3-2.7s2.9,1.2,2.9,2.7
	C16.6,14.4,15.4,15.6,13.6,15.6z M35.2,33.5h-5.2v-8.4c0-2.1-0.8-3.6-2.7-3.6c-1.4,0-2.3,1-2.7,1.9c-0.1,0.3-0.2,0.8-0.2,1.3v8.8
	h-5.2c0,0,0.1-14.3,0-15.8h5.2V20c0.7-1.1,1.9-2.6,4.7-2.6c3.5,0,6,2.3,6,7.1V33.5z"/>
</svg>
