<?xml version="1.0" encoding="utf-8"?>
<!-- Generator: Adobe Illustrator 21.0.0, SVG Export Plug-In . SVG Version: 6.00 Build 0)  -->
<svg version="1.1" id="Layer_1" xmlns="http://www.w3.org/2000/svg" xmlns:xlink="http://www.w3.org/1999/xlink" x="0px" y="0px"
	 viewBox="0 0 96 80" style="enable-background:new 0 0 96 80;" xml:space="preserve">
<style type="text/css">
	.st0{fill:#2B2B2B;}
	.st1{fill:#606060;}
	.st2{fill:#373737;}
	.st3{fill:#8E8E8E;}
	.st4{fill:#B3B3B3;}
</style>
<g>
	<g>
		<path class="st0" d="M7.5,77.7v2.1H0.2V68.9h2.5v8.8L7.5,77.7L7.5,77.7z"/>
		<path class="st0" d="M9.1,68.9h2.4v10.9H9.1V68.9z"/>
		<path class="st0" d="M21.3,79.8c-0.7-1.2-1.5-2.5-2.3-3.7c-0.8-1.2-1.7-2.4-2.6-3.4v7.1H14V68.9h2c0.3,0.3,0.7,0.8,1.2,1.3
			c0.4,0.5,0.8,1,1.3,1.6c0.4,0.6,0.9,1.2,1.3,1.8c0.4,0.6,0.8,1.2,1.2,1.8v-6.4h2.4v10.9L21.3,79.8L21.3,79.8z"/>
		<path class="st0" d="M32.4,79.8c-0.2-0.4-0.5-0.7-0.8-1.2c-0.3-0.4-0.6-0.8-1-1.2c-0.3-0.4-0.7-0.8-1.1-1.2s-0.8-0.7-1.1-1v4.6
			h-2.4V68.9h2.4V73c0.6-0.7,1.3-1.4,1.9-2.1c0.6-0.7,1.3-1.4,1.8-2H35c-0.8,0.9-1.5,1.7-2.2,2.5c-0.8,0.8-1.6,1.6-2.4,2.5
			c0.9,0.7,1.7,1.6,2.5,2.6c0.8,1,1.6,2.1,2.3,3.3L32.4,79.8L32.4,79.8z"/>
		<path class="st0" d="M36.7,79.8V68.9H44v2.1h-4.9v2.1h4.4v2h-4.4v2.6h5.3v2L36.7,79.8L36.7,79.8z"/>
		<path class="st0" d="M55.7,74.3c0,0.9-0.2,1.8-0.4,2.5c-0.3,0.7-0.7,1.3-1.3,1.7c-0.5,0.5-1.2,0.8-2,1c-0.8,0.2-1.6,0.3-2.6,0.3
			c-0.4,0-0.9,0-1.6,0c-0.6,0-1.2-0.1-1.7-0.2V69c0.6-0.1,1.2-0.2,1.8-0.2c0.6,0,1.1,0,1.6,0c0.9,0,1.8,0.1,2.5,0.3
			c0.8,0.2,1.4,0.5,2,1c0.5,0.5,1,1,1.3,1.7C55.6,72.5,55.7,73.3,55.7,74.3z M48.6,77.8c0.1,0,0.3,0,0.4,0c0.2,0,0.3,0,0.5,0
			c1.2,0,2.1-0.3,2.7-0.9c0.6-0.6,0.9-1.5,0.9-2.6c0-1.1-0.3-2-0.8-2.6s-1.5-0.9-2.7-0.9c-0.2,0-0.3,0-0.5,0c-0.2,0-0.3,0-0.5,0
			L48.6,77.8L48.6,77.8z"/>
		<path class="st0" d="M65.5,68.9V71h-3.3v8.8h-2.4V71h-3.3v-2.1L65.5,68.9L65.5,68.9L65.5,68.9z"/>
		<path class="st0" d="M67.1,79.8V68.9h7.3v2.1h-4.9v2.1h4.4v2h-4.4v2.6h5.3v2L67.1,79.8L67.1,79.8z"/>
		<path class="st0" d="M81.6,80c-1.8,0-3.1-0.5-4-1.5c-0.9-1-1.4-2.4-1.4-4.2c0-0.9,0.1-1.7,0.4-2.4c0.3-0.7,0.7-1.3,1.2-1.8
			c0.5-0.5,1.1-0.8,1.8-1.1c0.7-0.3,1.4-0.4,2.2-0.4c0.5,0,0.9,0,1.3,0.1c0.4,0.1,0.7,0.2,1,0.2c0.3,0.1,0.5,0.2,0.7,0.3
			c0.2,0.1,0.3,0.2,0.4,0.2l-0.7,2c-0.3-0.2-0.7-0.3-1.2-0.5c-0.4-0.1-0.9-0.2-1.5-0.2c-0.4,0-0.8,0.1-1.1,0.2
			c-0.4,0.1-0.7,0.3-0.9,0.6c-0.3,0.3-0.5,0.6-0.7,1.1c-0.2,0.4-0.3,1-0.3,1.6c0,0.5,0,1,0.2,1.4c0.1,0.4,0.3,0.8,0.5,1.1
			c0.2,0.3,0.6,0.6,1,0.8c0.4,0.2,0.9,0.3,1.4,0.3c0.4,0,0.7,0,0.9-0.1c0.3,0,0.5-0.1,0.8-0.2c0.2,0,0.4-0.1,0.6-0.2
			c0.2-0.1,0.3-0.1,0.5-0.2l0.7,2c-0.3,0.2-0.8,0.4-1.5,0.6C83.1,79.9,82.4,80,81.6,80z"/>
		<path class="st0" d="M93.3,68.9h2.4v10.9h-2.4v-4.6h-4.1v4.6h-2.4V68.9h2.4V73h4.1V68.9z"/>
	</g>
	<g>
		<path class="st0" d="M31.5,16c0.2-1.6,0.9-3.2,1.9-4.4L30.8,9l-7.7,4.4c-0.9,0.5-1.7,1.5-2.2,2.5H31.5z"/>
		<path class="st1" d="M48,45l-6.2-19.2c-0.5,0.1-1.1,0.2-1.6,0.2c-1.1,0-2.1-0.2-3-0.5l-6.1,11.7c0.9,0.8,1.4,1.9,1.4,3.2
			c0,0.2,0,0.3,0,0.5l14,5.6C46.9,45.8,47.4,45.4,48,45z"/>
		<path class="st2" d="M28.2,36c0.3,0,0.6,0,0.9,0.1l6.1-11.7c-2-1.4-3.4-3.6-3.7-6.1H20.3v0v8.3l6.5,9.7C27.2,36,27.7,36,28.2,36z"
			/>
		<path class="st1" d="M50.6,44.3c0.4,0,0.7,0,1.1,0.1l7.5-15.6c-1.6-1.2-2.7-3.1-2.7-5.2c0-0.2,0-0.5,0-0.7l-8.3-2.4
			c-0.8,2-2.4,3.6-4.3,4.5l6.2,19.2C50.3,44.3,50.4,44.3,50.6,44.3z"/>
		<path class="st3" d="M66.6,28.9c-0.4,0.3-0.8,0.5-1.2,0.6l1.7,7.2c1.8,0.2,3.2,1.7,3.2,3.6c0,0.6-0.1,1.1-0.4,1.6l4.8,4.8
			c0.6-0.9,0.9-2,0.9-2.9V38L66.6,28.9z"/>
		<path class="st3" d="M45.6,49.2c0-0.3,0-0.5,0-0.8l-14-5.6c-0.3,0.4-0.8,0.8-1.2,1.1l3.1,10.6l6.4,3.7l6.4-6.4
			C45.9,51.1,45.6,50.2,45.6,49.2z"/>
		<path class="st3" d="M64.9,37.2L63.2,30c-0.1,0-0.2,0-0.3,0c-0.6,0-1.2-0.1-1.7-0.2l-7.5,15.6c0.2,0.2,0.4,0.4,0.6,0.5l9-5
			c0-0.2-0.1-0.4-0.1-0.7C63.2,39,63.8,37.9,64.9,37.2z"/>
		<path class="st1" d="M73.9,14.2L68.1,20c0.7,1,1.2,2.3,1.2,3.7s-0.4,2.6-1.2,3.7l7.6,7.6V18.2C75.7,16.9,74.9,15.3,73.9,14.2z"/>
		<path class="st4" d="M53.2,53.5c-0.8,0.5-1.7,0.8-2.6,0.8s-1.9-0.3-2.6-0.8l-6,6l3.3,1.9c1.5,0.9,4,0.9,5.5,0l6.6-3.8L53.2,53.5z"
			/>
		<path class="st1" d="M28.3,44.6C28.2,44.6,28.2,44.6,28.3,44.6c-2.5,0-4.4-1.9-4.4-4.3c0-1.1,0.4-2.1,1.1-2.8l-4.6-6.9v13.3
			c0,1.8,1.2,3.9,2.8,4.8l7.6,4.4L28.3,44.6z"/>
		<path class="st4" d="M68.3,43.5c-0.5,0.2-1,0.4-1.6,0.4c-0.9,0-1.8-0.4-2.4-0.9l-9,5c0.1,0.4,0.2,0.9,0.2,1.4c0,1-0.3,1.9-0.8,2.6
			l4.6,4.5l13.6-7.8c0.1-0.1,0.2-0.1,0.3-0.2L68.3,43.5z"/>
		<path class="st2" d="M49,17.1c0,0.5,0,0.9-0.1,1.3l8.3,2.4c0.8-1.6,2.3-2.9,4.1-3.3l-1-11.4L51.5,1l-5.7,9.2
			C47.7,11.9,49,14.3,49,17.1z"/>
		<path class="st0" d="M34.9,10c1.5-1.1,3.3-1.7,5.2-1.7c1.3,0,2.5,0.3,3.6,0.8l5.6-8.9c-1.4-0.3-3-0.1-4.1,0.5L32.8,7.8L34.9,10z"
			/>
		<path class="st2" d="M72,12.9l-9.5-5.5l0.9,9.8c1.2,0.1,2.2,0.5,3.1,1.1L72,12.9z"/>
	</g>
</g>
</svg>
