<?xml version="1.0" encoding="utf-8"?>
<!-- Generator: Adobe Illustrator 21.0.0, SVG Export Plug-In . SVG Version: 6.00 Build 0)  -->
<svg version="1.1" id="Layer_1" xmlns="http://www.w3.org/2000/svg" xmlns:xlink="http://www.w3.org/1999/xlink" x="0px" y="0px"
	 viewBox="0 0 358 510" style="enable-background:new 0 0 358 510;" xml:space="preserve">
<style type="text/css">
	.st0{fill:url(#SVGID_1_);}
	.st1{fill:url(#SVGID_2_);}
	.st2{fill:url(#SVGID_3_);}
	.st3{fill:url(#SVGID_4_);}
	.st4{fill:url(#SVGID_5_);}
	.st5{fill:url(#SVGID_6_);}
	.st6{fill:url(#SVGID_7_);}
	.st7{fill:url(#SVGID_8_);}
	.st8{fill:url(#SVGID_9_);}
	.st9{fill:url(#SVGID_10_);}
	.st10{fill:url(#SVGID_11_);}
	.st11{fill:url(#SVGID_12_);}
	.st12{fill:url(#SVGID_13_);}
</style>
<g>
	
		<radialGradient id="SVGID_1_" cx="603.7072" cy="1170.0963" r="177.3901" gradientTransform="matrix(0.9496 0.3135 -0.3135 0.9496 99.1222 -1052.7831)" gradientUnits="userSpaceOnUse">
		<stop  offset="0" style="stop-color:#BFFFF2"/>
		<stop  offset="1" style="stop-color:#ACD9EB;stop-opacity:0"/>
	</radialGradient>
	<circle class="st0" cx="305.6" cy="247.6" r="177.4"/>
	
		<radialGradient id="SVGID_2_" cx="405.5412" cy="1192.1173" r="139.9144" gradientTransform="matrix(0.9496 0.3135 -0.3135 0.9496 99.1222 -1052.7831)" gradientUnits="userSpaceOnUse">
		<stop  offset="0" style="stop-color:#D1FFF6"/>
		<stop  offset="1" style="stop-color:#BCDEEB;stop-opacity:0"/>
	</radialGradient>
	<circle class="st1" cx="110.5" cy="206.4" r="139.9"/>
	<g>
		
			<radialGradient id="SVGID_3_" cx="458.3701" cy="1088.1882" r="89.4979" gradientTransform="matrix(0.9111 0.3008 -0.2984 0.9039 214.4341 -1011.0531)" gradientUnits="userSpaceOnUse">
			<stop  offset="0" style="stop-color:#80FFE3"/>
			<stop  offset="1" style="stop-color:#73C9EB;stop-opacity:0"/>
		</radialGradient>
		<path class="st2" d="M388.9,137.3c-14.8,44.7-63.2,68.8-108.2,54S211,128.1,225.8,83.5S289,14.6,334,29.5S403.6,92.6,388.9,137.3z
			"/>
		
			<radialGradient id="SVGID_4_" cx="389.7268" cy="1165.8357" r="54.4905" gradientTransform="matrix(0.9111 0.3008 -0.2984 0.9039 214.4341 -1011.0531)" gradientUnits="userSpaceOnUse">
			<stop  offset="1.081081e-02" style="stop-color:#91DFFF"/>
			<stop  offset="1" style="stop-color:#96FFE8;stop-opacity:0"/>
		</radialGradient>
		<path class="st3" d="M271.2,176.3c-9,27.2-38.5,41.9-65.9,32.9c-27.4-9.1-42.4-38.4-33.4-65.6c9-27.2,38.5-41.9,65.9-32.9
			S280.2,149.1,271.2,176.3z"/>
	</g>
	<g>
		<linearGradient id="SVGID_5_" gradientUnits="userSpaceOnUse" x1="83.0383" y1="29.9153" x2="290.1601" y2="-15.6944">
			<stop  offset="0" style="stop-color:#3B79EB"/>
			<stop  offset="0.2811" style="stop-color:#2FACF5"/>
			<stop  offset="1" style="stop-color:#31F5CB"/>
		</linearGradient>
		<path class="st4" d="M198.8,13.7c-1.3,2.2-3.4,3.4-6.4,3.4h-41.7c-3.2,0-6.1,1.3-8.6,3.9c-2.1,2.7-4.2,5.3-6.2,8
			c-2.1-2.6-4.1-5.3-6.2-8c-2.5-2.6-5.4-3.9-8.6-3.9H79.4c-3,0-5-1.2-6.4-3.4c-4.5,1-8.1-0.1-11-2.4V12c0,4.7,1.5,8.5,4.6,11.6
			c3,3,6.9,4.6,11.6,4.6h44.4l12.3,13.2h2.2l12.3-13.2h44.4c4.7,0,8.5-1.5,11.6-4.6c3-3,4.6-6.9,4.6-11.6v-0.7
			C206.9,13.5,203.2,14.6,198.8,13.7z"/>
		<linearGradient id="SVGID_6_" gradientUnits="userSpaceOnUse" x1="136.21" y1="16.4399" x2="271.8039" y2="9.4505">
			<stop  offset="0" style="stop-color:#2DB5EB"/>
			<stop  offset="1" style="stop-color:#33FFD3"/>
		</linearGradient>
		<path class="st5" d="M135.9,28.9c5.7-12.1,17.9-20.3,31.5-20.8c6.6-0.2,13.3-0.3,20,0c11.9,0.7,22.6-1.4,30.5-5.8
			c0.4-0.3,2.8-1.7,4.5-2.8c-1.8,6.4-5.6,10.8-10.8,14.1c-6.9,4.4-14.6,6.4-22.7,6.9c-6.2,0.4-12.5,0.2-18.8,0.4
			c-5.5,0.2-10.9,0.5-16.4,1C148.2,22.5,140.4,25.8,135.9,28.9z"/>
		<linearGradient id="SVGID_7_" gradientUnits="userSpaceOnUse" x1="217.3175" y1="9.3979" x2="144.7919" y2="26.7593">
			<stop  offset="0" style="stop-color:#3B79EB"/>
			<stop  offset="0.2811" style="stop-color:#2FACF5"/>
			<stop  offset="1" style="stop-color:#31F5CB"/>
		</linearGradient>
		<path class="st6" d="M148,26c3.5-6.2,8.2-9.4,14.1-11.1c2.6-0.7,5.4-0.9,8.1-0.9c5.3,0.1,10.6,0.4,15.8,0.9
			c7.5,0.8,14.2,0.3,20.8-3.2c0.5-0.3,1.6-0.9,2.9-1.8c-1.4,4.4-3.9,7-7.2,9.2c-4.8,3.2-10.2,4.5-15.9,4.5c-5.4,0-10.9-0.3-16.3-0.7
			C162.8,22.4,155.6,22.4,148,26z"/>
		
			<linearGradient id="SVGID_8_" gradientUnits="userSpaceOnUse" x1="-914.0868" y1="28.9219" x2="-914.0868" y2="28.9219" gradientTransform="matrix(-1 0 0 1 -778.2067 0)">
			<stop  offset="0" style="stop-color:#2FACF5"/>
			<stop  offset="1" style="stop-color:#31F5CB"/>
		</linearGradient>
		<path class="st7" d="M135.9,28.9"/>
		<linearGradient id="SVGID_9_" gradientUnits="userSpaceOnUse" x1="96.3333" y1="14.4411" x2="8.5568" y2="9.3771">
			<stop  offset="0" style="stop-color:#2FACF5"/>
			<stop  offset="1" style="stop-color:#31C4F5"/>
		</linearGradient>
		<path class="st8" d="M135.9,28.9C130.2,16.8,118,8.6,104.4,8.2c-6.6-0.2-13.3-0.3-20,0C72.5,8.8,61.8,6.8,53.9,2.4
			c-0.4-0.3-2.8-1.7-4.5-2.8c1.8,6.4,5.6,10.8,10.8,14.1C67,18,74.8,20,82.9,20.6c6.2,0.4,12.5,0.2,18.8,0.4
			c5.5,0.2,10.9,0.5,16.4,1C123.5,22.5,131.3,25.8,135.9,28.9z"/>
		<linearGradient id="SVGID_10_" gradientUnits="userSpaceOnUse" x1="118.8044" y1="34.9454" x2="63.4398" y2="-0.2068">
			<stop  offset="0" style="stop-color:#3B79EB"/>
			<stop  offset="0.2811" style="stop-color:#2FACF5"/>
			<stop  offset="1" style="stop-color:#31F5CB"/>
		</linearGradient>
		<path class="st9" d="M123.8,26c-3.5-6.2-8.2-9.4-14.1-11.1c-2.6-0.7-5.4-0.9-8.1-0.9c-5.3,0.1-10.6,0.4-15.8,0.9
			c-7.5,0.8-14.2,0.3-20.8-3.2c-0.5-0.3-1.6-0.9-2.9-1.8c1.4,4.4,3.9,7,7.2,9.2c4.8,3.2,10.2,4.5,15.9,4.5c5.4,0,10.9-0.3,16.3-0.7
			C108.9,22.4,116.1,22.4,123.8,26z"/>
		
			<linearGradient id="SVGID_11_" gradientUnits="userSpaceOnUse" x1="134.3567" y1="28.9219" x2="134.3567" y2="28.9219" gradientTransform="matrix(1 0 0 1 1.5235 0)">
			<stop  offset="0" style="stop-color:#2FACF5"/>
			<stop  offset="1" style="stop-color:#31F5CB"/>
		</linearGradient>
		<path class="st10" d="M135.9,28.9"/>
	</g>
	<g>
		
			<radialGradient id="SVGID_12_" cx="5410.6431" cy="-1782.8994" r="52.3141" gradientTransform="matrix(-0.8741 -0.4858 0.4858 -0.8741 5684.0859 1210.5168)" gradientUnits="userSpaceOnUse">
			<stop  offset="1.081081e-02" style="stop-color:#8CDDFF"/>
			<stop  offset="1" style="stop-color:#7DFFE3;stop-opacity:0"/>
		</radialGradient>
		<circle class="st11" cx="88.7" cy="140.5" r="52.3"/>
		
			<radialGradient id="SVGID_13_" cx="5378.2866" cy="-1747.4807" r="29.0848" gradientTransform="matrix(-0.8741 -0.4858 0.4858 -0.8741 5684.0859 1210.5168)" gradientUnits="userSpaceOnUse">
			<stop  offset="1.081081e-02" style="stop-color:#8CDDFF"/>
			<stop  offset="1" style="stop-color:#8CFFE6;stop-opacity:0"/>
		</radialGradient>
		<circle class="st12" cx="134.1" cy="125.3" r="29.1"/>
	</g>
</g>
</svg>
