<?xml version="1.0" encoding="utf-8"?>
<!-- Generator: Adobe Illustrator 21.0.0, SVG Export Plug-In . SVG Version: 6.00 Build 0)  -->
<svg version="1.1" id="Layer_1" xmlns="http://www.w3.org/2000/svg" xmlns:xlink="http://www.w3.org/1999/xlink" x="0px" y="0px"
	 viewBox="0 0 160 160" style="enable-background:new 0 0 160 160;" xml:space="preserve">
<style type="text/css">
	.st0{fill:url(#SVGID_1_);}
</style>
<linearGradient id="SVGID_1_" gradientUnits="userSpaceOnUse" x1="-484.9915" y1="903.2085" x2="-474.1044" y2="922.0656" gradientTransform="matrix(8 0 0 -8 3913 7389)">
	<stop  offset="0" style="stop-color:#2FACF5"/>
	<stop  offset="0.2108" style="stop-color:#33AEF3"/>
	<stop  offset="0.4017" style="stop-color:#3EB5EE"/>
	<stop  offset="0.585" style="stop-color:#50C0E4"/>
	<stop  offset="0.7635" style="stop-color:#6ACFD8"/>
	<stop  offset="0.9371" style="stop-color:#8BE3C7"/>
	<stop  offset="1" style="stop-color:#99EBC0"/>
</linearGradient>
<path class="st0" d="M80,36.5c-4.2,0-7.7,3.4-7.7,7.7s3.4,7.7,7.7,7.7s7.7-3.4,7.7-7.7S84.2,36.5,80,36.5z M80,46.7
	c-1.4,0-2.6-1.1-2.6-2.6s1.1-2.6,2.6-2.6s2.6,1.1,2.6,2.6S81.4,46.7,80,46.7z M108.8,51.6l1.6-1.3c1.8-1.5,2.9-3.8,2.9-6.2
	s-1.1-4.6-2.9-6.2l-1.6-1.3c-8.1-6.7-18.3-10.4-28.8-10.4s-20.7,3.7-28.8,10.4L49.6,38c-1.8,1.5-2.9,3.8-2.9,6.2s1.1,4.6,2.9,6.2
	l1.6,1.3c8.1,6.7,18.3,10.4,28.8,10.4S100.7,58.4,108.8,51.6z M67.2,44.2c0-7.1,5.7-12.8,12.8-12.8s12.8,5.7,12.8,12.8
	S87.1,57,80,57S67.2,51.2,67.2,44.2z M107.1,41.9c0.7,0.6,1,1.4,1,2.2c0,0.9-0.4,1.7-1,2.2l-1.6,1.3c-3.2,2.7-6.8,4.7-10.6,6.3
	c1.9-2.8,3-6.2,3-9.8s-1.1-7-3-9.8c3.8,1.5,7.4,3.6,10.6,6.3L107.1,41.9z M52.9,46.4c-0.7-0.6-1-1.4-1-2.2c0-0.9,0.4-1.7,1-2.2
	l1.6-1.3c3.2-2.7,6.8-4.7,10.6-6.3c-1.9,2.8-3,6.2-3,9.8s1.1,7,3,9.8c-3.8-1.5-7.4-3.6-10.6-6.3L52.9,46.4z M39,108.2
	c7.1,0,12.8-5.7,12.8-12.8S46.1,82.6,39,82.6s-12.8,5.7-12.8,12.8S32,108.2,39,108.2z M39,87.7c4.2,0,7.7,3.4,7.7,7.7
	S43.3,103,39,103s-7.7-3.4-7.7-7.7S34.8,87.7,39,87.7z M36.5,95.4c0-1.4,1.1-2.6,2.6-2.6s2.6,1.1,2.6,2.6s-1.1,2.6-2.6,2.6
	S36.5,96.8,36.5,95.4z M87.7,95.4c0-1.4,1.1-2.6,2.6-2.6s2.6,1.1,2.6,2.6s-1.1,2.6-2.6,2.6S87.7,96.8,87.7,95.4z M121,108.2
	c7.1,0,12.8-5.7,12.8-12.8S128,82.6,121,82.6s-12.8,5.7-12.8,12.8S113.9,108.2,121,108.2z M121,87.7c4.2,0,7.7,3.4,7.7,7.7
	s-3.4,7.7-7.7,7.7s-7.7-3.4-7.7-7.7S116.7,87.7,121,87.7z M118.4,95.4c0-1.4,1.1-2.6,2.6-2.6s2.6,1.1,2.6,2.6s-1.1,2.6-2.6,2.6
	S118.4,96.8,118.4,95.4z M33.9,118.4h7.7v20.5H39c-7.1,0-12.8,5.7-12.8,12.8v7.7h107.5v-7.7c0-7.1-5.7-12.8-12.8-12.8h-2.6v-20.5
	h7.7c12.7,0,23-10.3,23-23s-10.3-23-23-23h-13c6.5-7.6,10.4-17.4,10.4-28.2c0-24-19.5-43.5-43.5-43.5S36.5,20.1,36.5,44.2
	c0,10.7,3.9,20.6,10.4,28.2h-13c-12.7,0-23,10.3-23,23S21.2,118.4,33.9,118.4z M46.7,118.4H57v20.5H46.7V118.4z M62.1,138.9v-20.5
	h35.8v20.5H62.1z M128.7,151.7v2.6H31.3v-2.6c0-4.2,3.4-7.7,7.7-7.7H121C125.2,144,128.7,147.5,128.7,151.7z M113.3,138.9H103v-20.5
	h10.2V138.9z M80,5.7c21.2,0,38.4,17.2,38.4,38.4S101.2,82.6,80,82.6S41.6,65.3,41.6,44.2S58.8,5.7,80,5.7z M97.9,95.4
	c0,4.2-3.4,7.7-7.7,7.7s-7.7-3.4-7.7-7.7s3.4-7.7,7.7-7.7S97.9,91.1,97.9,95.4z M33.9,77.4H52c7.6,6.4,17.3,10.2,28,10.2
	c0,0,0,0,0.1,0c-1.6,2.1-2.6,4.8-2.6,7.7c0,7.1,5.7,12.8,12.8,12.8s12.8-5.7,12.8-12.8c0-4.7-2.6-8.8-6.4-11
	c4.1-1.7,7.9-4.1,11.3-6.9h18.1c9.9,0,17.9,8,17.9,17.9s-8,17.9-17.9,17.9H33.9c-9.9,0-17.9-8-17.9-17.9S24,77.4,33.9,77.4z
	 M67.3,19.7l-2.5-4.4c1.6-0.9,3.3-1.7,5-2.4l1.8,4.8C70.1,18.2,68.7,18.9,67.3,19.7z M59.7,25.5l-3.6-3.7c1.3-1.3,2.7-2.5,4.1-3.6
	l3.1,4.1C62,23.3,60.8,24.4,59.7,25.5L59.7,25.5z M76,16.4l-1-5c1.7-0.3,3.3-0.5,4.9-0.5l0,5.1C78.7,16,77.4,16.1,76,16.4L76,16.4z
	 M128.7,41.6h20.5v5.1h-20.5V41.6z M128.2,37.2l-1-5l20.1-4l1,5L128.2,37.2z M31.8,37.2l-20.1-4l1-5l20.1,4L31.8,37.2z M31.3,46.7
	H10.9v-5.1h20.5V46.7z M31.8,51.1l1,5l-20.1,4l-1-5L31.8,51.1z M147.3,60.2l-20.1-4l1-5l20.1,4L147.3,60.2z"/>
</svg>
