<?xml version="1.0" encoding="utf-8"?>
<!-- Generator: Adobe Illustrator 21.0.0, SVG Export Plug-In . SVG Version: 6.00 Build 0)  -->
<svg version="1.1" id="Layer_1" xmlns="http://www.w3.org/2000/svg" xmlns:xlink="http://www.w3.org/1999/xlink" x="0px" y="0px"
	 viewBox="0 0 160 160" style="enable-background:new 0 0 160 160;" xml:space="preserve">
<style type="text/css">
	.st0{fill:url(#SVGID_1_);}
</style>
<linearGradient id="SVGID_1_" gradientUnits="userSpaceOnUse" x1="23.2894" y1="169.222" x2="123.7918" y2="-4.8533">
	<stop  offset="0" style="stop-color:#2FACF5"/>
	<stop  offset="0.1892" style="stop-color:#33AEF3"/>
	<stop  offset="0.3853" style="stop-color:#40B6ED"/>
	<stop  offset="0.5845" style="stop-color:#54C2E2"/>
	<stop  offset="0.7859" style="stop-color:#71D3D4"/>
	<stop  offset="0.9873" style="stop-color:#96E9C1"/>
	<stop  offset="1" style="stop-color:#99EBC0"/>
</linearGradient>
<path class="st0" d="M144.1,51.8c-1.8,0-3.6,0.3-5.2,0.9V8.3c0-4.2-3.4-7.7-7.7-7.7H25.8c-2.1,0-4,0.8-5.4,2.3L2.9,20.4
	c-1.5,1.4-2.3,3.4-2.3,5.4v125.9c0,4.2,3.4,7.7,7.7,7.7h122.9c4.2,0,7.7-3.4,7.7-7.7V93.9l16-16c2.9-2.9,4.5-6.7,4.5-10.8
	C159.4,58.7,152.5,51.8,144.1,51.8z M21.1,9.4v11.7H9.4L21.1,9.4z M133.8,151.7c0,1.4-1.1,2.6-2.6,2.6H8.3c-1.4,0-2.6-1.1-2.6-2.6
	V26.2h20.5V5.7h105c1.4,0,2.6,1.1,2.6,2.6v47.6c-0.1,0.1-0.3,0.2-0.4,0.4L103,86.6v-1.5c0-7.1-5.7-12.8-12.8-12.8h-6.8
	c-2.9-3.1-7.1-5.1-11.7-5.1h-2v-5.1h5.1c7.1,0,12.8-5.7,12.8-12.8v-7.7c0-16.9-13.8-30.7-30.7-30.7S26.2,24.6,26.2,41.6v7.7
	c0,7.1,5.7,12.8,12.8,12.8h5.1v5.1h-2c-4.6,0-8.8,2-11.7,5.1h-6.8c-7.1,0-12.8,5.7-12.8,12.8v12.8H16v15.4h18.6h1.9h39.9l-8.9,8.9
	l-5.1,18c-0.2,0.6-0.3,1.3-0.3,1.9c0,3.9,3.2,7,7.1,7c0.7,0,1.3-0.1,1.9-0.3l18-5.1L133.8,99V151.7z M71,128.4l11.8,11.8l-13.1,3.8
	c-1.2,0.3-2.5-0.6-2.5-1.9c0-0.2,0-0.4,0.1-0.5L71,128.4z M87.7,137.8l-5.3-5.3l55.3-55.3l5.3,5.3L87.7,137.8z M78.7,128.9l-5.3-5.3
	l55.3-55.3l5.3,5.3L78.7,128.9z M26.9,87.7l1.5,5.1H16v-7.7c0-4.2,3.4-7.7,7.7-7.7h3.6c-0.7,1.8-1.1,3.7-1.1,5.7
	C26.2,84.7,26.5,86.3,26.9,87.7z M21.1,97.9H30l3.1,10.2H21.1V97.9z M31.8,86.3c-0.3-1-0.5-2.1-0.5-3.1c0-6,4.9-10.8,10.8-10.8h29.5
	c6,0,10.8,4.9,10.8,10.8c0,1.1-0.2,2.1-0.5,3.1l-6.6,21.9H38.4L31.8,86.3z M46.7,18.1C49.9,16.8,53.3,16,57,16
	c3.6,0,7.1,0.8,10.2,2.2v3H46.7V18.1z M41.6,21.1c0,2.8,2.3,5.1,5.1,5.1h20.5c2.8,0,5.1-2.3,5.1-5.1c6.2,4.7,10.2,12.1,10.2,20.4
	v7.7c0,4.2-3.4,7.7-7.7,7.7H39c-4.2,0-7.7-3.4-7.7-7.7v-7.7C31.3,33.2,35.4,25.8,41.6,21.1L41.6,21.1z M64.6,62.1v5.1H49.3v-5.1
	H64.6z M97.9,91.7l-1.1,1.1H85.5l1.5-5.1c0.4-1.5,0.7-3,0.7-4.6c0-2-0.4-3.9-1.1-5.7h3.6c4.2,0,7.7,3.4,7.7,7.7L97.9,91.7z M84,97.9
	h7.8l-11.1,11.1L84,97.9z M151.3,74.2l-4.7,4.7l-14.3-14.3l4.7-4.7c1.9-1.9,4.5-3,7.2-3c5.6,0,10.1,4.5,10.1,10.1
	C154.3,69.8,153.2,72.3,151.3,74.2z M69.8,46.7c4.2,0,7.7-3.4,7.7-7.7s-3.4-7.7-7.7-7.7c-4.2,0-7.7,3.4-7.7,7.7S65.5,46.7,69.8,46.7
	z M69.8,36.5c1.4,0,2.6,1.1,2.6,2.6s-1.1,2.6-2.6,2.6c-1.4,0-2.6-1.1-2.6-2.6S68.3,36.5,69.8,36.5z M36.5,39c0,4.2,3.4,7.7,7.7,7.7
	s7.7-3.4,7.7-7.7s-3.4-7.7-7.7-7.7S36.5,34.8,36.5,39z M44.2,36.5c1.4,0,2.6,1.1,2.6,2.6s-1.1,2.6-2.6,2.6s-2.6-1.1-2.6-2.6
	S42.7,36.5,44.2,36.5z M46.7,103h20.5c2.8,0,5.1-2.3,5.1-5.1V82.6c0-2.8-2.3-5.1-5.1-5.1H46.7c-2.8,0-5.1,2.3-5.1,5.1v15.4
	C41.6,100.7,43.9,103,46.7,103z M46.7,82.6h20.5l0,15.4H46.7L46.7,82.6z M54.4,144h5.1v5.1h-5.1V144z M10.9,144h38.4v5.1H10.9V144z
	 M10.9,133.8h48.7v5.1H10.9V133.8z M128.7,10.9H92.8V57h35.8V10.9z M123.5,51.8H97.9V16h25.6V51.8z M118.4,26.2H103v-5.1h15.4V26.2z
	 M118.4,36.5H103v-5.1h15.4V36.5z M118.4,46.7H103v-5.1h15.4V46.7z"/>
</svg>
