<?xml version="1.0" encoding="utf-8"?>
<!-- Generator: Adobe Illustrator 21.0.0, SVG Export Plug-In . SVG Version: 6.00 Build 0)  -->
<svg version="1.1" id="Layer_1" xmlns="http://www.w3.org/2000/svg" xmlns:xlink="http://www.w3.org/1999/xlink" x="0px" y="0px"
	 viewBox="0 0 160 160" style="enable-background:new 0 0 160 160;" xml:space="preserve">
<style type="text/css">
	.st0{fill:url(#SVGID_1_);}
</style>
<linearGradient id="SVGID_1_" gradientUnits="userSpaceOnUse" x1="32.6524" y1="177.8766" x2="133.0249" y2="4.0263">
	<stop  offset="0" style="stop-color:#2FACF5"/>
	<stop  offset="0.1892" style="stop-color:#33AEF3"/>
	<stop  offset="0.3853" style="stop-color:#40B6ED"/>
	<stop  offset="0.5845" style="stop-color:#54C2E2"/>
	<stop  offset="0.7859" style="stop-color:#71D3D4"/>
	<stop  offset="0.9873" style="stop-color:#96E9C1"/>
	<stop  offset="1" style="stop-color:#99EBC0"/>
</linearGradient>
<path class="st0" d="M146.6,46.7h-5.2c-0.7-1-1.6-1.8-2.6-2.6c2.5-1.8,4.3-4.5,4.9-7.7h0.3c5.6,0,10.2-4.6,10.2-10.2
	S149.7,16,144,16h-1.3C139.5,7,131,0.6,121,0.6C111,0.6,102.4,7,99.3,16h-1.3c-5.6,0-10.2,4.6-10.2,10.2s4.6,10.2,10.2,10.2h0.3
	c0.6,3.1,2.5,5.8,4.9,7.7c-1,0.7-1.8,1.6-2.6,2.6h-5.2c-7.1,0-12.8,5.7-12.8,12.8v7.7h5.1V80c0,4.2,3.4,7.7,7.7,7.7h8
	c0.2,0.2,0.5,0.5,0.8,0.7c-0.7,1.4-1,2.9-1,4.4v25.6h-5.1v-5.1H82.6v46.1h15.4v-5.1H144v5.1h15.4v-46.1H144v5.1h-5.1V92.8
	c0-1.5-0.4-3-1-4.4c0.3-0.2,0.5-0.5,0.8-0.7h8c4.2,0,7.7-3.4,7.7-7.7V67.2h5.1v-7.7C159.4,52.5,153.6,46.7,146.6,46.7z M144,21.1
	c2.8,0,5.1,2.3,5.1,5.1s-2.3,5.1-5.1,5.1v-7.7c0-0.9-0.1-1.7-0.2-2.6H144z M92.8,26.2c0-2.8,2.3-5.1,5.1-5.1h0.2
	c-0.1,0.8-0.2,1.7-0.2,2.6v7.7C95.1,31.3,92.8,29,92.8,26.2z M126.7,36.5l1.3,5.1H114l1.3-5.1H126.7z M113.3,46.7h15.4v17.9
	c0,4.2-3.4,7.7-7.7,7.7c-4.2,0-7.7-3.4-7.7-7.7V46.7z M138.9,23.7v10.2c0,3.6-2.5,6.5-5.8,7.4l-2.5-10h-7.1V15.6
	c3.5-0.9,6.2-3.6,7.2-7C135.6,11.9,138.9,17.4,138.9,23.7L138.9,23.7z M126,6.5c-0.4,2.5-2.5,4.4-5,4.4c-2.6,0-4.7-1.9-5-4.4
	c1.6-0.5,3.3-0.7,5-0.7C122.7,5.7,124.4,6,126,6.5z M103,23.7c0-6.3,3.3-11.8,8.2-15c1,3.4,3.7,6.1,7.2,7v15.7h-7.1l-2.5,10
	c-3.3-0.9-5.8-3.8-5.8-7.4V23.7z M103,54.4c0-3.3,2.1-6.2,5.1-7.2v17.5c0,7.1,5.7,12.8,12.8,12.8s12.8-5.7,12.8-12.8V47.2
	c3,1.1,5.1,3.9,5.1,7.2v20.5c0,7.1-5.7,12.8-12.8,12.8h-10.2c-7.1,0-12.8-5.7-12.8-12.8V54.4z M118.4,97.9c-1.4,0-2.6-1.1-2.6-2.6
	v-2.6h10.2v2.6c0,1.4-1.1,2.6-2.6,2.6H118.4z M87.7,59.5c0-4.2,3.4-7.7,7.7-7.7h2.8c-0.2,0.8-0.3,1.7-0.3,2.6v7.7H87.7V59.5z
	 M92.8,80V67.2h5.1v7.7c0,2.8,0.6,5.3,1.8,7.7h-4.3C94,82.6,92.8,81.4,92.8,80z M108.2,92.8c0-0.6,0.1-1.1,0.3-1.6
	c0.7,0.3,1.5,0.6,2.3,0.9v3.3c0,4.2,3.4,7.7,7.7,7.7v15.4h-10.2V92.8z M97.9,133.8H144v5.1H97.9V133.8z M92.8,154.3h-5.1v-35.8h5.1
	V154.3z M97.9,149.1V144H144v5.1H97.9z M149.1,118.4h5.1v35.8h-5.1V118.4z M144,128.7H97.9v-5.1H144V128.7z M133.8,92.8v25.6h-10.2
	V103c4.2,0,7.7-3.4,7.7-7.7V92c0.8-0.2,1.5-0.5,2.3-0.9C133.7,91.7,133.8,92.2,133.8,92.8z M149.1,80c0,1.4-1.1,2.6-2.6,2.6h-4.3
	c1.1-2.3,1.8-4.9,1.8-7.7v-7.7h5.1V80z M154.3,62.1H144v-7.7c0-0.9-0.1-1.7-0.3-2.6h2.8c4.2,0,7.7,3.4,7.7,7.7V62.1z M64.6,46.7h-8
	c-0.5-0.5-1.1-1-1.7-1.4c3.4-1.7,6-4.9,6.8-8.8h0.3c5.6,0,10.2-4.6,10.2-10.2S67.7,16,62.1,16h-1.3C57.6,7,49,0.6,39,0.6
	S20.5,7,17.3,16H16c-5.6,0-10.2,4.6-10.2,10.2S10.3,36.5,16,36.5h0.3c0.8,3.9,3.4,7.1,6.8,8.8c-0.6,0.4-1.1,0.9-1.7,1.4h-8
	c-7.1,0-12.8,5.7-12.8,12.8v7.7h5.1v17.9c0,4.2,3.4,7.7,7.7,7.7h2.8c0.6,3.8,2.3,7.3,4.9,10v15.6H16v-5.1H0.6v46.1H16v-5.1h46.1v5.1
	h15.4v-46.1H62.1v5.1H57v-15.6c2.6-2.7,4.4-6.1,4.9-10h2.8c4.2,0,7.7-3.4,7.7-7.7V67.2h5.1v-7.7C77.4,52.5,71.7,46.7,64.6,46.7
	L64.6,46.7z M62.1,21.1c2.8,0,5.1,2.3,5.1,5.1s-2.3,5.1-5.1,5.1v-7.7c0-0.9-0.1-1.7-0.2-2.6H62.1z M10.9,26.2c0-2.8,2.3-5.1,5.1-5.1
	h0.2C16,21.9,16,22.8,16,23.7v7.7C13.2,31.3,10.9,29,10.9,26.2z M21.1,74.9V59.5c0-7.1,5.7-12.8,12.8-12.8h10.2
	c7.1,0,12.8,5.7,12.8,12.8v15.4c0,7.1-5.7,12.8-12.8,12.8H33.9C26.8,87.7,21.1,81.9,21.1,74.9z M44.2,36.5v5.1H33.9v-5.1H44.2z
	 M57,23.7v10.2c0,4.2-3.4,7.7-7.7,7.7V31.3h-7.7V15.6c3.5-0.9,6.2-3.6,7.2-7C53.7,11.9,57,17.4,57,23.7z M44.1,6.5
	c-0.4,2.5-2.5,4.4-5,4.4s-4.7-1.9-5-4.4c1.6-0.5,3.3-0.7,5-0.7S42.5,6,44.1,6.5z M21.1,23.7c0-6.3,3.3-11.8,8.2-15
	c1,3.4,3.7,6.1,7.2,7v15.7h-7.7v10.2c-4.2,0-7.7-3.4-7.7-7.7L21.1,23.7z M5.7,59.5c0-4.2,3.4-7.7,7.7-7.7h4.3
	c-1.1,2.3-1.8,4.9-1.8,7.7v2.6H5.7V59.5z M10.9,85.1V67.2H16v7.7c0,2.8,0.6,5.4,1.8,7.7c-0.8,1.6-1.3,3.3-1.6,5.1h-2.8
	C12,87.7,10.9,86.5,10.9,85.1z M26.2,106.4c2.3,1.1,4.9,1.8,7.7,1.8h2.6v10.2H26.2V106.4z M16,133.8h46.1v5.1H16L16,133.8z
	 M10.9,154.3H5.7v-35.8h5.1V154.3z M16,149.1V144h46.1v5.1H16z M67.2,118.4h5.1v35.8h-5.1V118.4z M62.1,128.7H16v-5.1h46.1V128.7z
	 M41.6,118.4v-10.2h2.6c2.8,0,5.3-0.6,7.7-1.8v12H41.6z M44.2,103H33.9c-7.1,0-12.8-5.7-12.8-12.8c0-0.9,0.1-1.7,0.3-2.6
	c3.2,3.2,7.6,5.1,12.5,5.1h10.2c4.9,0,9.3-2,12.5-5.1c0.2,0.8,0.3,1.7,0.3,2.6C57,97.3,51.2,103,44.2,103L44.2,103z M67.2,85.1
	c0,1.4-1.1,2.6-2.6,2.6h-2.8c-0.3-1.8-0.8-3.5-1.6-5.1c1.1-2.3,1.8-4.9,1.8-7.7v-7.7h5.1V85.1z M72.3,62.1H62.1v-2.6
	c0-2.8-0.6-5.3-1.8-7.7h4.3c4.2,0,7.7,3.4,7.7,7.7V62.1z M46.7,18.5h5.1v5.1h-5.1V18.5z M31.3,23.7h-5.1v-5.1h5.1V23.7z M128.7,18.5
	h5.1v5.1h-5.1V18.5z M113.3,23.7h-5.1v-5.1h5.1V23.7z M31.3,82.6h15.4c2.8,0,5.1-2.3,5.1-5.1V57c0-2.8-2.3-5.1-5.1-5.1H31.3
	c-2.8,0-5.1,2.3-5.1,5.1v20.5C26.2,80.3,28.5,82.6,31.3,82.6z M31.3,57h15.4l0,20.5H31.3L31.3,57z M123.5,67.2h-5.1v-5.1h5.1V67.2z
	 M123.5,57h-5.1v-5.1h5.1V57z"/>
</svg>
