<?xml version="1.0" encoding="utf-8"?>
<!-- Generator: Adobe Illustrator 21.0.0, SVG Export Plug-In . SVG Version: 6.00 Build 0)  -->
<svg version="1.1" id="Layer_1" xmlns="http://www.w3.org/2000/svg" xmlns:xlink="http://www.w3.org/1999/xlink" x="0px" y="0px"
	 viewBox="0 0 768 496" style="enable-background:new 0 0 768 496;" xml:space="preserve">
<style type="text/css">
	.st0{fill:url(#SVGID_1_);}
	.st1{fill:url(#SVGID_2_);}
	.st2{fill:url(#SVGID_3_);}
	.st3{fill:url(#SVGID_4_);}
	.st4{fill:url(#SVGID_5_);}
	.st5{fill:url(#SVGID_6_);}
	.st6{fill:url(#SVGID_7_);}
	.st7{fill:url(#SVGID_8_);}
	.st8{fill:url(#SVGID_9_);}
	.st9{fill:url(#SVGID_10_);}
	.st10{fill:url(#SVGID_11_);}
	.st11{fill:url(#SVGID_12_);}
	.st12{fill:url(#SVGID_13_);}
	.st13{fill:none;}
</style>
<g>
	
		<radialGradient id="SVGID_1_" cx="1036.7458" cy="1255.2946" r="190.1315" gradientTransform="matrix(0.9496 0.3135 -0.3135 0.9496 120.834 -1181.7985)" gradientUnits="userSpaceOnUse">
		<stop  offset="0" style="stop-color:#BFFFF2"/>
		<stop  offset="1" style="stop-color:#ACD9EB;stop-opacity:0"/>
	</radialGradient>
	<circle class="st0" cx="711.8" cy="335.2" r="190.1"/>
	
		<radialGradient id="SVGID_2_" cx="824.3462" cy="1278.8972" r="149.964" gradientTransform="matrix(0.9496 0.3135 -0.3135 0.9496 120.834 -1181.7985)" gradientUnits="userSpaceOnUse">
		<stop  offset="0" style="stop-color:#D1FFF6"/>
		<stop  offset="1" style="stop-color:#BCDEEB;stop-opacity:0"/>
	</radialGradient>
	<circle class="st1" cx="502.7" cy="291.1" r="150"/>
	<g>
		
			<radialGradient id="SVGID_3_" cx="889.2029" cy="1167.6719" r="95.9262" gradientTransform="matrix(0.9111 0.3008 -0.2984 0.9039 251.9652 -1134.6935)" gradientUnits="userSpaceOnUse">
			<stop  offset="0" style="stop-color:#80FFE3"/>
			<stop  offset="1" style="stop-color:#73C9EB;stop-opacity:0"/>
		</radialGradient>
		<path class="st2" d="M801,217c-15.8,47.9-67.8,73.8-116,57.8c-48.3-15.9-74.6-67.7-58.8-115.6c15.8-47.9,67.8-73.8,116-57.8
			S816.9,169.2,801,217z"/>
		
			<radialGradient id="SVGID_4_" cx="815.6292" cy="1250.8966" r="58.4044" gradientTransform="matrix(0.9111 0.3008 -0.2984 0.9039 251.9652 -1134.6935)" gradientUnits="userSpaceOnUse">
			<stop  offset="1.081081e-02" style="stop-color:#91DFFF"/>
			<stop  offset="1" style="stop-color:#96FFE8;stop-opacity:0"/>
		</radialGradient>
		<path class="st3" d="M675,258.8c-9.6,29.2-41.3,44.9-70.6,35.2c-29.4-9.7-45.4-41.2-35.8-70.4s41.3-44.9,70.6-35.2
			C668.6,198.2,684.6,229.7,675,258.8z"/>
	</g>
	<g>
		<linearGradient id="SVGID_5_" gradientUnits="userSpaceOnUse" x1="473.2635" y1="101.9302" x2="695.2623" y2="53.0445">
			<stop  offset="0" style="stop-color:#3B79EB"/>
			<stop  offset="0.2811" style="stop-color:#2FACF5"/>
			<stop  offset="1" style="stop-color:#31F5CB"/>
		</linearGradient>
		<path class="st4" d="M597.3,84.5c-1.4,2.4-3.7,3.7-6.8,3.7h-44.7c-3.4,0-6.5,1.4-9.2,4.1c-2.3,2.9-4.5,5.7-6.7,8.5
			c-2.2-2.8-4.4-5.7-6.7-8.5c-2.7-2.8-5.8-4.1-9.2-4.1h-44.7c-3.2,0-5.4-1.3-6.8-3.7c-4.8,1-8.7-0.1-11.8-2.6v0.8
			c0,5,1.6,9.2,4.9,12.4c3.3,3.3,7.4,4.9,12.4,4.9h47.6l13.2,14.2h2.4l13.2-14.2h47.6c5,0,9.2-1.6,12.4-4.9
			c3.3-3.3,4.9-7.4,4.9-12.4v-0.8C606,84.4,602.1,85.6,597.3,84.5z"/>
		<linearGradient id="SVGID_6_" gradientUnits="userSpaceOnUse" x1="530.2544" y1="87.4869" x2="675.5876" y2="79.9955">
			<stop  offset="0" style="stop-color:#2DB5EB"/>
			<stop  offset="1" style="stop-color:#33FFD3"/>
		</linearGradient>
		<path class="st5" d="M529.9,100.9c6.1-12.9,19.2-21.7,33.8-22.3c7.1-0.3,14.3-0.4,21.4,0c12.8,0.7,24.2-1.5,32.7-6.2
			c0.5-0.3,3-1.8,4.8-3c-2,6.9-6,11.6-11.6,15.1c-7.4,4.7-15.7,6.9-24.3,7.4c-6.7,0.4-13.4,0.2-20.1,0.5c-5.9,0.2-11.7,0.5-17.5,1
			C543.1,93.9,534.8,97.5,529.9,100.9z"/>
		<linearGradient id="SVGID_7_" gradientUnits="userSpaceOnUse" x1="617.1876" y1="79.9391" x2="539.4528" y2="98.5475">
			<stop  offset="0" style="stop-color:#3B79EB"/>
			<stop  offset="0.2811" style="stop-color:#2FACF5"/>
			<stop  offset="1" style="stop-color:#31F5CB"/>
		</linearGradient>
		<path class="st6" d="M542.8,97.7c3.8-6.6,8.8-10.1,15.1-11.9c2.8-0.8,5.8-1,8.6-0.9c5.7,0.1,11.3,0.4,17,1
			c8.1,0.8,15.2,0.4,22.3-3.4c0.5-0.3,1.7-1,3.1-1.9c-1.5,4.7-4.2,7.5-7.7,9.8c-5.1,3.4-11,4.8-17.1,4.8c-5.8,0-11.7-0.3-17.5-0.7
			C558.8,93.8,551.1,93.9,542.8,97.7z"/>
		
			<linearGradient id="SVGID_8_" gradientUnits="userSpaceOnUse" x1="-484.1075" y1="100.8655" x2="-484.1075" y2="100.8655" gradientTransform="matrix(-1 0 0 1 45.7933 0)">
			<stop  offset="0" style="stop-color:#2FACF5"/>
			<stop  offset="1" style="stop-color:#31F5CB"/>
		</linearGradient>
		<path class="st7" d="M529.9,100.9"/>
		<linearGradient id="SVGID_9_" gradientUnits="userSpaceOnUse" x1="487.5135" y1="85.3445" x2="393.4322" y2="79.9168">
			<stop  offset="0" style="stop-color:#2FACF5"/>
			<stop  offset="1" style="stop-color:#31C4F5"/>
		</linearGradient>
		<path class="st8" d="M529.9,100.9c-6.1-12.9-19.2-21.7-33.8-22.3c-7.1-0.3-14.3-0.4-21.4,0c-12.8,0.7-24.2-1.5-32.7-6.2
			c-0.5-0.3-3-1.8-4.8-3c2,6.9,6,11.6,11.6,15.1c7.4,4.7,15.7,6.9,24.3,7.4c6.7,0.4,13.4,0.2,20.1,0.5c5.9,0.2,11.7,0.5,17.5,1
			C516.7,93.9,525,97.5,529.9,100.9z"/>
		<linearGradient id="SVGID_10_" gradientUnits="userSpaceOnUse" x1="511.5986" y1="107.3216" x2="452.2573" y2="69.6446">
			<stop  offset="0" style="stop-color:#3B79EB"/>
			<stop  offset="0.2811" style="stop-color:#2FACF5"/>
			<stop  offset="1" style="stop-color:#31F5CB"/>
		</linearGradient>
		<path class="st9" d="M517,97.7c-3.8-6.6-8.8-10.1-15.1-11.9c-2.8-0.8-5.8-1-8.6-0.9c-5.7,0.1-11.3,0.4-17,1
			c-8.1,0.8-15.2,0.4-22.3-3.4c-0.5-0.3-1.7-1-3.1-1.9c1.5,4.7,4.2,7.5,7.7,9.8c5.1,3.4,11,4.8,17.1,4.8c5.8,0,11.7-0.3,17.5-0.7
			C501,93.8,508.7,93.9,517,97.7z"/>
		
			<linearGradient id="SVGID_11_" gradientUnits="userSpaceOnUse" x1="528.3774" y1="100.8655" x2="528.3774" y2="100.8655" gradientTransform="matrix(1 0 0 1 1.5235 0)">
			<stop  offset="0" style="stop-color:#2FACF5"/>
			<stop  offset="1" style="stop-color:#31F5CB"/>
		</linearGradient>
		<path class="st10" d="M529.9,100.9"/>
	</g>
	<g>
		
			<radialGradient id="SVGID_12_" cx="5803.938" cy="-1857.5485" r="56.0717" gradientTransform="matrix(-0.8741 -0.4858 0.4858 -0.8741 6454.7485 1416.2827)" gradientUnits="userSpaceOnUse">
			<stop  offset="1.081081e-02" style="stop-color:#8CDDFF"/>
			<stop  offset="1" style="stop-color:#7DFFE3;stop-opacity:0"/>
		</radialGradient>
		<circle class="st11" cx="479.3" cy="220.5" r="56.1"/>
		
			<radialGradient id="SVGID_13_" cx="5769.2578" cy="-1819.5857" r="31.1739" gradientTransform="matrix(-0.8741 -0.4858 0.4858 -0.8741 6454.7485 1416.2827)" gradientUnits="userSpaceOnUse">
			<stop  offset="1.081081e-02" style="stop-color:#8CDDFF"/>
			<stop  offset="1" style="stop-color:#8CFFE6;stop-opacity:0"/>
		</radialGradient>
		<circle class="st12" cx="528" cy="204.1" r="31.2"/>
	</g>
</g>
<rect y="-93.8" class="st13" width="768" height="530.2"/>
</svg>
