<?xml version="1.0" encoding="utf-8"?>
<!-- Generator: Adobe Illustrator 21.0.0, SVG Export Plug-In . SVG Version: 6.00 Build 0)  -->
<svg version="1.1" id="Layer_1" xmlns="http://www.w3.org/2000/svg" xmlns:xlink="http://www.w3.org/1999/xlink" x="0px" y="0px"
	 viewBox="0 0 96 80" style="enable-background:new 0 0 96 80;" xml:space="preserve">
<style type="text/css">
	.st0{fill:#424242;}
	.st1{fill:url(#SVGID_1_);}
	.st2{fill:url(#SVGID_2_);}
</style>
<g>
	<g>
		<path class="st0" d="M9.4,68.9V71H6.1v8.8H3.6V71H0.4v-2.1H9.4z"/>
		<path class="st0" d="M10.9,79.8V68.9h7.3V71h-4.9v2.1h4.3v2h-4.3v2.6h5.3v2.1L10.9,79.8L10.9,79.8z"/>
		<path class="st0" d="M25.4,80c-1.8,0-3.1-0.5-4-1.5c-0.9-1-1.4-2.4-1.4-4.2c0-0.9,0.1-1.7,0.4-2.4c0.3-0.7,0.7-1.3,1.2-1.8
			c0.5-0.5,1.1-0.9,1.8-1.1c0.7-0.3,1.4-0.4,2.2-0.4c0.5,0,0.9,0,1.3,0.1c0.4,0.1,0.7,0.1,1,0.2c0.3,0.1,0.5,0.2,0.7,0.3
			c0.2,0.1,0.3,0.2,0.4,0.2l-0.7,2c-0.3-0.2-0.7-0.3-1.2-0.5c-0.4-0.1-0.9-0.2-1.5-0.2c-0.4,0-0.7,0.1-1.1,0.2
			c-0.4,0.1-0.7,0.3-1,0.6c-0.3,0.3-0.5,0.6-0.7,1.1c-0.2,0.4-0.3,1-0.3,1.6c0,0.5,0.1,1,0.2,1.4c0.1,0.4,0.3,0.8,0.5,1.1
			c0.2,0.3,0.6,0.6,1,0.7c0.4,0.2,0.9,0.3,1.4,0.3c0.4,0,0.7,0,1-0.1c0.3,0,0.5-0.1,0.8-0.1c0.2-0.1,0.4-0.1,0.6-0.2
			c0.2-0.1,0.3-0.1,0.5-0.2l0.7,2c-0.3,0.2-0.8,0.4-1.5,0.6C27,79.9,26.2,80,25.4,80z"/>
		<path class="st0" d="M37.2,68.9h2.4v10.9h-2.4v-4.6h-4.1v4.6h-2.4V68.9h2.4v4.2h4.1V68.9z"/>
		<path class="st0" d="M45.1,77.9c0.3,0,0.6,0,0.9-0.1c0.2-0.1,0.4-0.1,0.5-0.2c0.1-0.1,0.2-0.2,0.3-0.4c0.1-0.1,0.1-0.3,0.1-0.5
			c0-0.4-0.2-0.7-0.5-0.9c-0.3-0.2-0.9-0.5-1.7-0.8c-0.4-0.1-0.7-0.3-1.1-0.4c-0.4-0.2-0.7-0.4-1-0.6c-0.3-0.2-0.5-0.5-0.7-0.9
			c-0.2-0.4-0.3-0.8-0.3-1.3c0-0.5,0.1-1,0.3-1.4c0.2-0.4,0.5-0.7,0.8-1c0.3-0.3,0.8-0.5,1.3-0.7c0.5-0.2,1-0.2,1.7-0.2
			c0.7,0,1.4,0.1,1.9,0.2c0.5,0.2,1,0.3,1.3,0.5l-0.7,1.9c-0.3-0.2-0.6-0.3-1-0.4c-0.4-0.1-0.8-0.2-1.3-0.2c-0.6,0-1,0.1-1.3,0.2
			c-0.3,0.2-0.4,0.4-0.4,0.7c0,0.2,0,0.4,0.1,0.5c0.1,0.1,0.2,0.3,0.4,0.4c0.2,0.1,0.4,0.2,0.6,0.3c0.2,0.1,0.5,0.2,0.7,0.3
			c0.6,0.2,1.1,0.4,1.5,0.6c0.4,0.2,0.8,0.4,1,0.7c0.3,0.3,0.5,0.6,0.6,1c0.1,0.4,0.2,0.8,0.2,1.3c0,1-0.4,1.8-1.1,2.4
			c-0.7,0.6-1.8,0.8-3.2,0.8c-0.5,0-0.9,0-1.3-0.1c-0.4-0.1-0.7-0.1-1-0.2c-0.3-0.1-0.6-0.2-0.8-0.3c-0.2-0.1-0.4-0.2-0.5-0.3
			l0.7-1.9c0.3,0.2,0.7,0.3,1.2,0.5C43.8,77.8,44.4,77.9,45.1,77.9z"/>
		<path class="st0" d="M57.8,68.9h2.4v10.9h-2.4v-4.6h-4.1v4.6h-2.4V68.9h2.4v4.2h4.1V68.9z"/>
		<path class="st0" d="M62.8,68.9h2.4v10.9h-2.4V68.9z"/>
		<path class="st0" d="M67.8,79.8V68.9h7.3V71h-4.9v2.1h4.3v2h-4.3v2.6h5.3v2.1L67.8,79.8L67.8,79.8z"/>
		<path class="st0" d="M84.5,77.7v2.1h-7.3V68.9h2.4v8.8H84.5z"/>
		<path class="st0" d="M95.6,74.3c0,0.9-0.1,1.8-0.4,2.5c-0.3,0.7-0.7,1.3-1.2,1.7c-0.5,0.5-1.2,0.8-2,1c-0.8,0.2-1.6,0.3-2.6,0.3
			c-0.4,0-1,0-1.5-0.1c-0.6,0-1.2-0.1-1.7-0.2V69c0.6-0.1,1.2-0.2,1.8-0.2c0.6,0,1.1-0.1,1.6-0.1c0.9,0,1.8,0.1,2.5,0.3
			c0.8,0.2,1.4,0.5,2,1c0.5,0.5,1,1,1.3,1.7C95.5,72.5,95.6,73.3,95.6,74.3z M88.6,77.8c0.1,0,0.2,0,0.4,0c0.2,0,0.3,0,0.5,0
			c1.2,0,2.1-0.3,2.7-0.9c0.6-0.6,0.9-1.5,0.9-2.6c0-1.1-0.3-2-0.8-2.6c-0.6-0.6-1.5-0.9-2.7-0.9c-0.2,0-0.3,0-0.5,0
			c-0.2,0-0.3,0-0.5,0L88.6,77.8L88.6,77.8z"/>
	</g>
	<g>
		
			<linearGradient id="SVGID_1_" gradientUnits="userSpaceOnUse" x1="62.4328" y1="441.0213" x2="2.6578" y2="504.2717" gradientTransform="matrix(1 0 0 -1 0 502)">
			<stop  offset="0" style="stop-color:#424242"/>
			<stop  offset="1" style="stop-color:#616161"/>
		</linearGradient>
		<path class="st1" d="M50.6,42.8c2.4-1,4.2-3.3,4.2-6.1c0-3.6-2.9-6.5-6.5-6.5c-3.6,0-6.5,2.9-6.5,6.5c0,2.8,1.7,5.1,4.2,6.1v14.1
			C29.3,50,26.6,24.1,25.2,11.3c-0.1-1.1-0.2-2.2-0.3-3.2c1.2-0.3,2.5-0.7,3.9-1V2.2c-2.7,0.6-5.2,1.3-7.2,1.9l-1.9,0.6l0.3,2
			c0.2,1.3,0.4,3,0.6,5c1.5,14.6,4.7,45,27.1,50.8l0.6,0.1l0.6-0.1c0.6-0.2,1.2-0.3,1.8-0.5V42.8z M48.2,38.9c-1.2,0-2.2-1-2.2-2.2
			c0-1.2,1-2.2,2.2-2.2s2.2,1,2.2,2.2C50.4,37.9,49.4,38.9,48.2,38.9z"/>
		
			<linearGradient id="SVGID_2_" gradientUnits="userSpaceOnUse" x1="78.6804" y1="456.3762" x2="18.905" y2="519.627" gradientTransform="matrix(1 0 0 -1 0 502)">
			<stop  offset="0" style="stop-color:#424242"/>
			<stop  offset="1" style="stop-color:#616161"/>
		</linearGradient>
		<path class="st2" d="M74.9,4.1C68.9,2.2,59.3,0,48.2,0c-5.3,0-10.3,0.5-14.7,1.3l0,18.5c-2.4,1-4.2,3.3-4.2,6.1
			c0,3.6,2.9,6.5,6.5,6.5c3.6,0,6.5-2.9,6.5-6.5c0-2.8-1.7-5.1-4.2-6.1V5.4c3.1-0.4,6.4-0.6,9.9-0.6s6.8,0.2,9.9,0.6v14.4
			c-2.4,1-4.2,3.3-4.2,6.1c0,3.6,2.9,6.5,6.5,6.5c3.6,0,6.5-2.9,6.5-6.5c0-2.8-1.7-5.1-4.2-6.1V6.1c3.3,0.6,6.2,1.3,8.7,2
			c-0.1,1-0.2,2-0.3,3.2C70,22.7,67.7,44.7,55.4,54.2v5.7c16.5-9.4,19.2-35.1,20.6-48.1c0.2-2,0.4-3.7,0.6-5l0.3-2L74.9,4.1z
			 M35.9,28.1c-1.2,0-2.2-1-2.2-2.2c0-1.2,1-2.2,2.2-2.2c1.2,0,2.2,1,2.2,2.2C38.1,27.1,37.1,28.1,35.9,28.1z M60.5,28.1
			c-1.2,0-2.2-1-2.2-2.2c0-1.2,1-2.2,2.2-2.2c1.2,0,2.2,1,2.2,2.2C62.7,27.1,61.7,28.1,60.5,28.1z"/>
	</g>
</g>
</svg>
