<?xml version="1.0" encoding="utf-8"?>
<!-- Generator: Adobe Illustrator 21.0.0, SVG Export Plug-In . SVG Version: 6.00 Build 0)  -->
<svg version="1.1" id="Layer_1" xmlns="http://www.w3.org/2000/svg" xmlns:xlink="http://www.w3.org/1999/xlink" x="0px" y="0px"
	 viewBox="0 0 106 80" style="enable-background:new 0 0 106 80;" xml:space="preserve">
<style type="text/css">
	.st0{fill:#525252;}
	.st1{fill:url(#SVGID_1_);}
	.st2{fill:url(#SVGID_2_);}
	.st3{fill:url(#SVGID_3_);}
	.st4{fill:url(#SVGID_4_);}
</style>
<g>
	<g>
		<path class="st0" d="M9.8,68.5v2.2H6.4v9.1H3.9v-9.1H0.5v-2.2H9.8z"/>
		<path class="st0" d="M11.4,79.8V68.5h7.6v2.1H14v2.2h4.5v2.1H14v2.7h5.4v2.1L11.4,79.8L11.4,79.8z"/>
		<path class="st0" d="M26.4,80c-1.8,0-3.2-0.5-4.2-1.5c-1-1-1.4-2.5-1.4-4.3c0-0.9,0.1-1.8,0.4-2.5c0.3-0.7,0.7-1.3,1.2-1.9
			c0.5-0.5,1.1-0.9,1.8-1.1c0.7-0.3,1.5-0.4,2.3-0.4c0.5,0,0.9,0,1.3,0.1c0.4,0.1,0.7,0.2,1,0.2c0.3,0.1,0.5,0.2,0.7,0.3
			c0.2,0.1,0.3,0.2,0.4,0.2l-0.7,2c-0.3-0.2-0.8-0.3-1.2-0.5c-0.5-0.1-1-0.2-1.6-0.2c-0.4,0-0.8,0.1-1.1,0.2c-0.4,0.1-0.7,0.3-1,0.6
			c-0.3,0.3-0.5,0.7-0.7,1.1c-0.2,0.5-0.3,1-0.3,1.7c0,0.5,0.1,1,0.2,1.5c0.1,0.4,0.3,0.8,0.6,1.2c0.3,0.3,0.6,0.6,1,0.8
			c0.4,0.2,0.9,0.3,1.5,0.3c0.4,0,0.7,0,1-0.1c0.3,0,0.6-0.1,0.8-0.2c0.2-0.1,0.4-0.1,0.6-0.2c0.2-0.1,0.3-0.1,0.5-0.2l0.7,2
			c-0.4,0.2-0.9,0.4-1.5,0.6C28,79.9,27.3,80,26.4,80z"/>
		<path class="st0" d="M38.6,68.5h2.5v11.3h-2.5V75h-4.3v4.8h-2.5V68.5h2.5v4.3h4.3L38.6,68.5L38.6,68.5z"/>
		<path class="st0" d="M48.9,80c-1.8,0-3.2-0.5-4.2-1.5c-1-1-1.4-2.5-1.4-4.3c0-0.9,0.1-1.8,0.4-2.5c0.3-0.7,0.7-1.3,1.2-1.9
			c0.5-0.5,1.1-0.9,1.8-1.1c0.7-0.3,1.5-0.4,2.3-0.4c0.5,0,0.9,0,1.3,0.1c0.4,0.1,0.7,0.2,1,0.2s0.5,0.2,0.7,0.3
			c0.2,0.1,0.3,0.2,0.4,0.2l-0.7,2c-0.3-0.2-0.8-0.3-1.2-0.5c-0.5-0.1-1-0.2-1.6-0.2c-0.4,0-0.8,0.1-1.1,0.2c-0.4,0.1-0.7,0.3-1,0.6
			c-0.3,0.3-0.5,0.7-0.7,1.1c-0.2,0.5-0.3,1-0.3,1.7c0,0.5,0.1,1,0.2,1.5c0.1,0.4,0.3,0.8,0.6,1.2c0.3,0.3,0.6,0.6,1,0.8
			c0.4,0.2,0.9,0.3,1.5,0.3c0.4,0,0.7,0,1-0.1c0.3,0,0.6-0.1,0.8-0.2c0.2-0.1,0.4-0.1,0.6-0.2c0.2-0.1,0.3-0.1,0.5-0.2l0.7,2
			c-0.4,0.2-0.9,0.4-1.5,0.6S49.8,80,48.9,80z"/>
		<path class="st0" d="M54.3,68.5h2.5v11.3h-2.5V68.5z"/>
		<path class="st0" d="M62.7,68.4c1.7,0,3,0.3,3.9,0.9c0.9,0.6,1.3,1.5,1.3,2.8c0,0.8-0.2,1.4-0.5,1.9c-0.4,0.5-0.9,0.9-1.6,1.2
			c0.2,0.3,0.5,0.6,0.7,1c0.2,0.4,0.5,0.7,0.7,1.1c0.2,0.4,0.5,0.8,0.7,1.2c0.2,0.4,0.4,0.8,0.6,1.3h-2.8c-0.2-0.4-0.4-0.7-0.6-1.1
			c-0.2-0.4-0.4-0.7-0.7-1.1c-0.2-0.4-0.4-0.7-0.7-1c-0.2-0.3-0.4-0.6-0.7-0.9H62v4.1h-2.5V68.7c0.6-0.1,1.1-0.2,1.7-0.2
			C61.7,68.4,62.3,68.4,62.7,68.4z M62.9,70.5c-0.2,0-0.3,0-0.5,0c-0.1,0-0.3,0-0.4,0v3.1h0.7c1,0,1.6-0.1,2-0.4
			c0.4-0.2,0.6-0.6,0.6-1.2c0-0.6-0.2-0.9-0.6-1.2C64.3,70.7,63.7,70.5,62.9,70.5z"/>
		<path class="st0" d="M75.1,80c-1.8,0-3.2-0.5-4.2-1.5c-1-1-1.4-2.5-1.4-4.3c0-0.9,0.1-1.8,0.4-2.5c0.3-0.7,0.7-1.3,1.2-1.9
			c0.5-0.5,1.1-0.9,1.8-1.1c0.7-0.3,1.5-0.4,2.3-0.4c0.5,0,0.9,0,1.3,0.1c0.4,0.1,0.7,0.2,1,0.2c0.3,0.1,0.5,0.2,0.7,0.3
			c0.2,0.1,0.3,0.2,0.4,0.2l-0.7,2c-0.3-0.2-0.8-0.3-1.2-0.5c-0.5-0.1-1-0.2-1.6-0.2c-0.4,0-0.8,0.1-1.1,0.2c-0.4,0.1-0.7,0.3-1,0.6
			s-0.5,0.7-0.7,1.1c-0.2,0.5-0.3,1-0.3,1.7c0,0.5,0.1,1,0.2,1.5c0.1,0.4,0.3,0.8,0.6,1.2c0.3,0.3,0.6,0.6,1,0.8
			c0.4,0.2,0.9,0.3,1.5,0.3c0.4,0,0.7,0,1-0.1c0.3,0,0.6-0.1,0.8-0.2c0.2-0.1,0.4-0.1,0.6-0.2c0.2-0.1,0.3-0.1,0.5-0.2l0.7,2
			c-0.4,0.2-0.9,0.4-1.5,0.6S76,80,75.1,80z"/>
		<path class="st0" d="M84.9,80c-0.8,0-1.5-0.1-2-0.3c-0.6-0.2-1-0.5-1.4-0.9c-0.4-0.4-0.7-0.9-0.8-1.4c-0.2-0.5-0.3-1.2-0.3-1.8v-7
			h2.5v6.8c0,0.5,0.1,0.8,0.2,1.2c0.1,0.3,0.2,0.6,0.4,0.8c0.2,0.2,0.4,0.3,0.7,0.4c0.3,0.1,0.5,0.1,0.8,0.1c0.6,0,1.1-0.2,1.5-0.6
			c0.4-0.4,0.6-1,0.6-1.9v-6.8h2.5v7c0,0.7-0.1,1.3-0.3,1.8c-0.2,0.6-0.5,1-0.8,1.4c-0.4,0.4-0.9,0.7-1.4,0.9
			C86.4,79.9,85.7,80,84.9,80z"/>
		<path class="st0" d="M92,68.5h2.5v11.3H92V68.5z"/>
		<path class="st0" d="M105.5,68.5v2.2h-3.4v9.1h-2.5v-9.1h-3.4v-2.2H105.5z"/>
	</g>
	<g>
		<g>
			
				<linearGradient id="SVGID_1_" gradientUnits="userSpaceOnUse" x1="60.8734" y1="495.9659" x2="60.8734" y2="443.7427" gradientTransform="matrix(1 0 0 -1 0 502)">
				<stop  offset="0" style="stop-color:#9F9F9F"/>
				<stop  offset="1" style="stop-color:#525252"/>
			</linearGradient>
			<path class="st1" d="M79.1,38.6c0.7,0,1.3-0.6,1.3-1.3V19.2c0-0.7-0.6-1.3-1.3-1.3h-0.6c-0.7,0-1.3,0.6-1.3,1.3v14.9
				c0,0.7-0.6,1.3-1.3,1.3H51.5c-0.7,0-1.7-0.5-2.1-1c0,0-1.5-2-3.5-2c-2.5,0-4.6,2.1-4.6,4.6s2.1,4.6,4.6,4.6c2,0,3.5-2,3.5-2
				c0.4-0.6,1.4-1,2.1-1H79.1z M45.9,38.4c-0.8,0-1.4-0.6-1.4-1.4c0-0.8,0.6-1.4,1.4-1.4c0.8,0,1.4,0.6,1.4,1.4
				C47.3,37.7,46.7,38.4,45.9,38.4z"/>
		</g>
		<g>
			
				<linearGradient id="SVGID_2_" gradientUnits="userSpaceOnUse" x1="59.0704" y1="495.9661" x2="59.0704" y2="443.7423" gradientTransform="matrix(1 0 0 -1 0 502)">
				<stop  offset="0" style="stop-color:#9F9F9F"/>
				<stop  offset="1" style="stop-color:#525252"/>
			</linearGradient>
			<path class="st2" d="M78.5,41.8c-0.7,0-1.3,0.6-1.3,1.3V44c0,0.7-0.5,1.6-1.1,2l-22,12.7c-0.6,0.4-1.6,0.4-2.3,0l-7.3-4.2
				c-0.6-0.4-1.7-0.7-2.4-0.7h-3.8c-0.7,0-0.8,0.3-0.2,0.7l13.7,7.9c0.6,0.4,1.6,0.4,2.3,0l25.2-14.5c0.6-0.4,1.1-1.2,1.1-2v-2.7
				c0-0.7-0.6-1.3-1.3-1.3L78.5,41.8L78.5,41.8z"/>
		</g>
		<g>
			
				<linearGradient id="SVGID_3_" gradientUnits="userSpaceOnUse" x1="42.7257" y1="495.9664" x2="42.7257" y2="443.7426" gradientTransform="matrix(1 0 0 -1 0 502)">
				<stop  offset="0" style="stop-color:#9F9F9F"/>
				<stop  offset="1" style="stop-color:#525252"/>
			</linearGradient>
			<path class="st3" d="M49.6,50.5c0.7,0,1.7,0.5,2.1,1c0,0,1.5,2,3.5,2c2.5,0,4.6-2.1,4.6-4.6c0-2.5-2.1-4.6-4.6-4.6
				c-2,0-3.5,2-3.5,2c-0.4,0.6-1.4,1-2.1,1h-16c-0.7,0-1.8-0.3-2.4-0.7l-1.3-0.8c-0.6-0.4-1.1-1.2-1.1-2V31.1c0-0.7-0.6-1.3-1.3-1.3
				h-0.6c-0.7,0-1.3,0.6-1.3,1.3v14.7c0,0.7,0.5,1.6,1.1,2l3.6,2.1c0.6,0.4,1.7,0.7,2.4,0.7L49.6,50.5L49.6,50.5z M55.3,47.5
				c0.8,0,1.4,0.6,1.4,1.4c0,0.8-0.6,1.4-1.4,1.4c-0.8,0-1.4-0.6-1.4-1.4C53.9,48.1,54.5,47.5,55.3,47.5z"/>
		</g>
		<g>
			
				<linearGradient id="SVGID_4_" gradientUnits="userSpaceOnUse" x1="51.9845" y1="495.966" x2="51.9845" y2="443.7424" gradientTransform="matrix(1 0 0 -1 0 502)">
				<stop  offset="0" style="stop-color:#9F9F9F"/>
				<stop  offset="1" style="stop-color:#525252"/>
			</linearGradient>
			<path class="st4" d="M54.5,26.6c0.7,0,1.7,0.5,2.1,1c0,0,1.5,2,3.5,2c2.5,0,4.6-2.1,4.6-4.6c0-2.5-2.1-4.6-4.6-4.6
				c-2,0-3.5,2-3.5,2c-0.4,0.6-1.4,1-2.1,1H30.1c-0.7,0-1.3-0.6-1.3-1.3v-3.5c0-0.7,0.5-1.6,1.1-2L51.9,4c0.6-0.4,1.6-0.4,2.3,0
				l11.9,6.9c0.6,0.4,0.5,0.7-0.2,0.7H55.6c-0.7,0-1.7-0.5-2.1-1c0,0-1.5-2-3.5-2c-2.5,0-4.6,2.1-4.6,4.6s2.1,4.6,4.6,4.6
				c2,0,3.5-2,3.5-2c0.4-0.6,1.4-1,2.1-1h22.2c0.7,0,0.8-0.3,0.2-0.7L54.1,0.3c-0.6-0.4-1.6-0.4-2.3,0L26.7,14.8
				c-0.6,0.4-1.1,1.2-1.1,2v8.6c0,0.7,0.6,1.3,1.3,1.3L54.5,26.6L54.5,26.6z M60.1,23.6c0.8,0,1.4,0.6,1.4,1.4
				c0,0.8-0.6,1.4-1.4,1.4c-0.8,0-1.4-0.6-1.4-1.4C58.7,24.3,59.3,23.6,60.1,23.6z M50,14.5c-0.8,0-1.4-0.6-1.4-1.4
				c0-0.8,0.6-1.4,1.4-1.4c0.8,0,1.4,0.6,1.4,1.4C51.4,13.9,50.8,14.5,50,14.5z"/>
		</g>
	</g>
</g>
</svg>
