<?xml version="1.0" encoding="utf-8"?>
<!-- Generator: Adobe Illustrator 21.0.0, SVG Export Plug-In . SVG Version: 6.00 Build 0)  -->
<svg version="1.1" id="Layer_1" xmlns="http://www.w3.org/2000/svg" xmlns:xlink="http://www.w3.org/1999/xlink" x="0px" y="0px"
	 viewBox="0 0 116 80" style="enable-background:new 0 0 116 80;" xml:space="preserve">
<style type="text/css">
	.st0{enable-background:new    ;}
	.st1{fill:#383838;}
	.st2{fill:url(#SVGID_1_);}
	.st3{fill:url(#SVGID_2_);}
	.st4{fill:url(#SVGID_3_);}
	.st5{fill:url(#SVGID_4_);}
	.st6{fill:url(#SVGID_5_);}
	.st7{fill:url(#SVGID_6_);}
</style>
<g>
	<g class="st0">
		<path class="st1" d="M12.9,64.5v2.9H8.3v12.3H4.9V67.4H0.3v-2.9H12.9z"/>
		<path class="st1" d="M15.1,79.7V64.5h10.3v2.9h-6.8v3h6.1v2.8h-6.1v3.7h7.3v2.9L15.1,79.7L15.1,79.7z"/>
		<path class="st1" d="M35.3,80c-2.5,0-4.4-0.7-5.6-2.1c-1.3-1.4-1.9-3.3-1.9-5.9c0-1.3,0.2-2.4,0.6-3.4c0.4-1,0.9-1.8,1.6-2.5
			c0.7-0.7,1.5-1.2,2.5-1.5c1-0.4,2-0.5,3.1-0.5c0.6,0,1.2,0,1.8,0.1c0.5,0.1,1,0.2,1.4,0.3c0.4,0.1,0.7,0.3,1,0.4
			c0.3,0.1,0.5,0.2,0.6,0.3l-1,2.8c-0.5-0.2-1-0.5-1.6-0.6c-0.6-0.2-1.3-0.3-2.1-0.3c-0.5,0-1,0.1-1.5,0.3c-0.5,0.2-1,0.5-1.3,0.8
			c-0.4,0.4-0.7,0.9-0.9,1.5c-0.2,0.6-0.4,1.4-0.4,2.2c0,0.7,0.1,1.4,0.2,2c0.2,0.6,0.4,1.1,0.7,1.6c0.3,0.4,0.8,0.8,1.3,1
			c0.6,0.3,1.2,0.4,2,0.4c0.5,0,0.9,0,1.3-0.1c0.4-0.1,0.7-0.1,1.1-0.2c0.3-0.1,0.6-0.2,0.8-0.3c0.2-0.1,0.4-0.2,0.6-0.3l0.9,2.7
			c-0.5,0.3-1.2,0.6-2,0.8C37.5,79.9,36.5,80,35.3,80z"/>
		<path class="st1" d="M51.8,64.5h3.4v15.2h-3.4v-6.4H46v6.4h-3.4V64.5H46v5.8h5.7V64.5z"/>
		<path class="st1" d="M66.1,67.1c-1.6,0-2.7,0.4-3.5,1.3c-0.7,0.9-1.1,2.1-1.1,3.6c0,0.7,0.1,1.4,0.3,2c0.2,0.6,0.4,1.1,0.8,1.6
			c0.4,0.4,0.8,0.8,1.3,1c0.5,0.2,1.1,0.4,1.8,0.4c0.4,0,0.7,0,1,0c0.3,0,0.5,0,0.7-0.1v-5.3h3.4v7.5c-0.4,0.2-1.1,0.3-2,0.5
			c-0.9,0.2-2,0.3-3.4,0.3c-1.1,0-2.2-0.2-3.1-0.5c-0.9-0.4-1.7-0.9-2.4-1.5c-0.7-0.7-1.2-1.5-1.5-2.5c-0.4-1-0.5-2.1-0.5-3.4
			c0-1.3,0.2-2.4,0.6-3.4c0.4-1,0.9-1.8,1.6-2.5c0.7-0.7,1.5-1.2,2.4-1.5c0.9-0.4,1.9-0.5,3-0.5c0.7,0,1.4,0,1.9,0.1
			c0.6,0.1,1.1,0.2,1.5,0.3c0.4,0.1,0.8,0.3,1,0.4c0.3,0.1,0.5,0.2,0.6,0.3l-1,2.7c-0.5-0.2-1-0.5-1.6-0.6
			C67.5,67.2,66.9,67.1,66.1,67.1z"/>
		<path class="st1" d="M74.1,79.7V64.5h10.3v2.9h-6.8v3h6.1v2.8h-6.1v3.7h7.3v2.9L74.1,79.7L74.1,79.7z"/>
		<path class="st1" d="M97.6,79.7c-0.2-0.5-0.4-1.1-0.5-1.6c-0.2-0.6-0.4-1.1-0.6-1.7h-5.9c-0.2,0.6-0.4,1.1-0.6,1.7
			c-0.2,0.6-0.4,1.1-0.5,1.6h-3.6c0.6-1.6,1.1-3.2,1.6-4.5c0.5-1.4,1-2.7,1.5-3.9c0.5-1.2,1-2.4,1.5-3.5c0.5-1.1,1-2.2,1.5-3.2h3.2
			c0.5,1.1,1,2.1,1.5,3.2c0.5,1.1,1,2.3,1.5,3.5c0.5,1.2,1,2.5,1.5,3.9c0.5,1.4,1.1,2.9,1.6,4.5L97.6,79.7L97.6,79.7z M93.5,67.9
			c-0.1,0.2-0.2,0.5-0.3,0.9c-0.1,0.4-0.3,0.8-0.5,1.3c-0.2,0.5-0.4,1-0.6,1.6c-0.2,0.6-0.5,1.2-0.7,1.9h4.3
			c-0.2-0.7-0.5-1.3-0.7-1.9c-0.2-0.6-0.4-1.1-0.6-1.6c-0.2-0.5-0.4-0.9-0.5-1.3C93.7,68.5,93.6,68.2,93.5,67.9z"/>
		<path class="st1" d="M107.7,64.3c2.3,0,4,0.4,5.2,1.2c1.2,0.8,1.8,2.1,1.8,3.8c0,1.1-0.2,1.9-0.7,2.6c-0.5,0.7-1.2,1.2-2.1,1.6
			c0.3,0.4,0.6,0.8,1,1.3c0.3,0.5,0.7,1,1,1.5c0.3,0.5,0.6,1.1,1,1.7c0.3,0.6,0.6,1.1,0.9,1.7h-3.8c-0.3-0.5-0.6-1-0.8-1.5
			c-0.3-0.5-0.6-1-0.9-1.5c-0.3-0.5-0.6-0.9-0.9-1.4c-0.3-0.4-0.6-0.8-0.9-1.2h-1.7v5.5h-3.4v-15c0.7-0.1,1.5-0.2,2.3-0.3
			C106.3,64.3,107,64.3,107.7,64.3z M107.9,67.2c-0.2,0-0.5,0-0.7,0c-0.2,0-0.4,0-0.6,0v4.1h1c1.3,0,2.2-0.2,2.8-0.5
			c0.6-0.3,0.8-0.9,0.8-1.6c0-0.7-0.3-1.3-0.8-1.6C109.8,67.4,109,67.2,107.9,67.2z"/>
	</g>
	<g>
		
			<linearGradient id="SVGID_1_" gradientUnits="userSpaceOnUse" x1="-95.5576" y1="-572.1903" x2="-116.9754" y2="-515.8112" gradientTransform="matrix(1 0 0 1 164.04 573.3398)">
			<stop  offset="0" style="stop-color:#8D8D8D"/>
			<stop  offset="1" style="stop-color:#383838"/>
		</linearGradient>
		<path class="st2" d="M83,32.9c0.5-2.9,0.5-5.8-0.1-8.7c1.2-1.2,2.4-2.5,3.7-3.7c-0.3-1.1-0.7-2.2-1.2-3.3c-0.5-1.1-1-2.2-1.6-3.2
			c-1.7,0-3.5,0-5.2,0c-1.7-2.4-3.9-4.5-6.2-6.1c0-1.7,0-3.5,0-5.2c-2.1-1.1-4.3-2-6.5-2.6c-1.2,1.2-2.4,2.5-3.7,3.7
			c-2.9-0.5-5.8-0.5-8.7,0.1c-1.2-1.2-2.5-2.4-3.7-3.7c-1.1,0.3-2.2,0.7-3.3,1.2c-1.1,0.5-2.2,1-3.2,1.6c0,1.7,0,3.5,0,5.2
			c-2.4,1.7-4.5,3.9-6.1,6.2c-1.7,0-3.5,0-5.2,0c-1.1,2.1-2,4.3-2.6,6.5c1.2,1.2,2.5,2.4,3.7,3.7c-0.5,2.9-0.5,5.8,0.1,8.7
			c-1.2,1.2-2.4,2.5-3.7,3.7c0.3,1.1,0.7,2.2,1.2,3.3c0.5,1.1,1,2.2,1.6,3.2c1.7,0,3.5,0,5.2,0c1.7,2.4,3.9,4.5,6.2,6.1
			c0,1.7,0,3.5,0,5.2c2.1,1.1,4.3,2,6.5,2.6c1.2-1.2,2.4-2.5,3.7-3.7c2.9,0.5,5.8,0.5,8.7-0.1c1.2,1.2,2.5,2.4,3.7,3.7
			c1.1-0.3,2.2-0.7,3.3-1.2c1.1-0.5,2.2-1,3.2-1.6c0-1.7,0-3.5,0-5.2c2.4-1.7,4.5-3.9,6.1-6.2c1.7,0,3.5,0,5.2,0
			c1.1-2.1,2-4.3,2.6-6.5C85.5,35.3,84.3,34.1,83,32.9z M66.3,48.3C55.5,52.8,43.1,47.8,38.5,37c-4.6-10.8,0.5-23.2,11.2-27.8
			c10.8-4.6,23.2,0.5,27.8,11.2C82.1,31.2,77.1,43.7,66.3,48.3z"/>
		
			<linearGradient id="SVGID_2_" gradientUnits="userSpaceOnUse" x1="-94.822" y1="-571.9103" x2="-116.2394" y2="-515.5323" gradientTransform="matrix(1 0 0 1 164.04 573.3398)">
			<stop  offset="0" style="stop-color:#8D8D8D"/>
			<stop  offset="1" style="stop-color:#383838"/>
		</linearGradient>
		<path class="st3" d="M71.3,18.1c-1.3-1.7-3-3.1-4.9-4.2h-4.6c-0.6-0.9-1.7-1.5-2.9-1.5c-2,0-3.5,1.6-3.5,3.5s1.6,3.5,3.5,3.5
			c1.2,0,2.2-0.6,2.9-1.5L71.3,18.1L71.3,18.1z"/>
		
			<linearGradient id="SVGID_3_" gradientUnits="userSpaceOnUse" x1="-89.0183" y1="-569.7062" x2="-110.436" y2="-513.3271" gradientTransform="matrix(1 0 0 1 164.04 573.3398)">
			<stop  offset="0" style="stop-color:#8D8D8D"/>
			<stop  offset="1" style="stop-color:#383838"/>
		</linearGradient>
		<path class="st4" d="M75.1,28.7c0-0.7,0-1.4-0.1-2.1H61.9c-0.6-0.9-1.7-1.5-2.9-1.5c-2,0-3.5,1.6-3.5,3.5s1.6,3.5,3.5,3.5
			c1.2,0,2.2-0.6,2.9-1.5h13.1C75,30.1,75.1,29.4,75.1,28.7z"/>
		
			<linearGradient id="SVGID_4_" gradientUnits="userSpaceOnUse" x1="-103.0825" y1="-575.0489" x2="-124.5002" y2="-518.6697" gradientTransform="matrix(1 0 0 1 164.04 573.3398)">
			<stop  offset="0" style="stop-color:#8D8D8D"/>
			<stop  offset="1" style="stop-color:#383838"/>
		</linearGradient>
		<path class="st5" d="M49.5,31.6c-1.2,0-2.2,0.6-2.9,1.5h-5.1c0.4,1.5,1,2.9,1.7,4.2h3.4c0.6,0.9,1.7,1.5,2.9,1.5
			c2,0,3.5-1.6,3.5-3.5C53,33.2,51.4,31.6,49.5,31.6z"/>
		
			<linearGradient id="SVGID_5_" gradientUnits="userSpaceOnUse" x1="-106.6667" y1="-576.4096" x2="-128.0838" y2="-520.0323" gradientTransform="matrix(1 0 0 1 164.04 573.3398)">
			<stop  offset="0" style="stop-color:#8D8D8D"/>
			<stop  offset="1" style="stop-color:#383838"/>
		</linearGradient>
		<path class="st6" d="M49.5,18.8c-1.2,0-2.2,0.6-2.9,1.5h-3.4c-0.7,1.3-1.3,2.7-1.7,4.2h5.1c0.6,0.9,1.7,1.5,2.9,1.5
			c2,0,3.5-1.6,3.5-3.5C53,20.4,51.4,18.8,49.5,18.8z"/>
		
			<linearGradient id="SVGID_6_" gradientUnits="userSpaceOnUse" x1="-87.0571" y1="-568.9617" x2="-108.4754" y2="-512.5814" gradientTransform="matrix(1 0 0 1 164.04 573.3398)">
			<stop  offset="0" style="stop-color:#8D8D8D"/>
			<stop  offset="1" style="stop-color:#383838"/>
		</linearGradient>
		<path class="st7" d="M61.9,39.4c-0.6-0.9-1.7-1.5-2.9-1.5c-2,0-3.5,1.6-3.5,3.5c0,2,1.6,3.5,3.5,3.5c1.2,0,2.2-0.6,2.9-1.5h4.6
			c1.9-1.1,3.5-2.5,4.9-4.2L61.9,39.4L61.9,39.4z"/>
	</g>
</g>
</svg>
