<?xml version="1.0" encoding="utf-8"?>
<!-- Generator: Adobe Illustrator 21.0.0, SVG Export Plug-In . SVG Version: 6.00 Build 0)  -->
<svg version="1.1" id="Layer_1" xmlns="http://www.w3.org/2000/svg" xmlns:xlink="http://www.w3.org/1999/xlink" x="0px" y="0px"
	 viewBox="0 0 94 80" style="enable-background:new 0 0 94 80;" xml:space="preserve">
<style type="text/css">
	.st0{fill:#3A3A3A;}
	.st1{fill:#808080;}
	.st2{fill:#F2F2F2;}
	.st3{fill:#6E6E6E;}
</style>
<g>
	<g>
		<g>
			<g>
				<path class="st0" d="M49.6,63.9H55c4.9,0,7.6,2.4,7.6,7.5c0,5.3-2.3,8.3-7.6,8.3h-5.4V63.9z M51.7,77.9h3.5
					c1.4,0,5.3-0.4,5.3-6.2c0-3.8-1.4-6-5.3-6h-3.5V77.9z"/>
				<path class="st0" d="M75,79.6c-0.3,0.2-0.8,0.3-1.4,0.3c-1,0-1.6-0.5-1.6-1.8c-1,1.2-2.4,1.8-4,1.8c-2.1,0-3.8-0.9-3.8-3.2
					c0-2.6,1.9-3.1,3.9-3.5c2.1-0.4,3.9-0.3,3.9-1.7c0-1.6-1.4-1.9-2.5-1.9c-1.6,0-2.8,0.5-2.9,2.2h-1.9C64.8,69,67,68,69.5,68
					c2.1,0,4.3,0.5,4.3,3.1V77c0,0.9,0,1.3,0.6,1.3c0.2,0,0.3,0,0.6-0.1V79.6z M72,73.8c-0.7,0.5-2.1,0.6-3.4,0.8
					c-1.2,0.2-2.3,0.7-2.3,2.1c0,1.2,1.1,1.7,2.2,1.7c2.5,0,3.5-1.6,3.5-2.6V73.8z"/>
				<path class="st0" d="M79.4,68.2h2.3v1.7h-2.3V77c0,0.9,0.2,1,1.4,1h0.9v1.7h-1.4c-1.9,0-2.7-0.4-2.7-2.5v-7.3h-2v-1.7h2v-3.4
					h1.9V68.2z"/>
				<path class="st0" d="M93.9,79.6c-0.3,0.2-0.8,0.3-1.4,0.3c-1,0-1.6-0.5-1.6-1.8c-1,1.2-2.4,1.8-4,1.8c-2.1,0-3.8-0.9-3.8-3.2
					c0-2.6,1.9-3.1,3.9-3.5c2.1-0.4,3.9-0.3,3.9-1.7c0-1.6-1.4-1.9-2.5-1.9c-1.6,0-2.8,0.5-2.9,2.2h-1.9c0.1-2.8,2.3-3.8,4.9-3.8
					c2.1,0,4.3,0.5,4.3,3.1V77c0,0.9,0,1.3,0.6,1.3c0.2,0,0.3,0,0.6-0.1V79.6z M90.8,73.8c-0.7,0.5-2.1,0.6-3.4,0.8
					c-1.2,0.2-2.3,0.7-2.3,2.1c0,1.2,1.1,1.7,2.2,1.7c2.5,0,3.5-1.6,3.5-2.6V73.8z"/>
			</g>
			<g>
				<path class="st0" d="M0.1,63.9h12.8v2.4h-5v13.4H5.1V66.3h-5V63.9z"/>
				<path class="st0" d="M13.9,74.6c0,1.8,1,3.4,3.1,3.4c1.5,0,2.3-0.6,2.8-1.9h2.4C21.6,78.6,19.5,80,17,80c-3.6,0-5.6-2.5-5.6-6
					c0-3.3,2.1-6,5.5-6c3.6,0,5.8,3.3,5.4,6.7H13.9z M19.8,73c-0.1-1.6-1.2-3-2.9-3c-1.8,0-2.9,1.3-3,3H19.8z"/>
				<path class="st0" d="M32,72.1c-0.2-1.4-1.2-2.1-2.6-2.1c-1.3,0-3.1,0.7-3.1,4.2c0,1.9,0.8,3.9,3,3.9c1.5,0,2.5-1,2.7-2.6h2.5
					c-0.5,3-2.3,4.6-5.3,4.6c-3.6,0-5.6-2.5-5.6-5.9c0-3.5,1.9-6.2,5.7-6.2c2.7,0,4.9,1.3,5.2,4.1H32z"/>
				<path class="st0" d="M36.6,63.9h2.5v5.9h0c0.6-1,1.9-1.8,3.4-1.8c2.5,0,4.1,1.3,4.1,3.9v7.9h-2.5v-7.2c0-1.8-0.8-2.6-2.2-2.6
					c-1.7,0-2.8,1.3-2.8,3v6.8h-2.5V63.9z"/>
			</g>
		</g>
	</g>
	<g>
		<path class="st1" d="M54.6,1.1c-0.2-0.1-0.3-0.1-0.6-0.2C54.3,1,54.5,1.1,54.6,1.1"/>
		<path class="st2" d="M53.3,23.4c0,0-0.1-0.1-0.1-0.2c0-0.1,0.1-0.2,0.1-0.2c0.2,0,0.3,0.3,0.4,0.4C53.6,23.4,53.4,23.5,53.3,23.4"
			/>
		<path class="st3" d="M53.1,2.9c-0.6,1.3-2.8,1.3-3.2,0.3c-0.4-1.1,1.7-2,2.8-1.7C53.4,1.7,53.3,2.5,53.1,2.9"/>
		<path class="st3" d="M46.4,1.1c-3.7,1-3.8,0.5-3.7,0.4c0.2-0.7,4.7-1.4,6.1-1.1c0,0,0,0,0,0c0,0,0,0,0,0c-0.1,0-0.1,0-0.8,0.2
			C47.6,0.7,47.6,0.7,46.4,1.1"/>
		<path class="st3" d="M53.7,0.9C53.7,0.9,53.7,0.9,53.7,0.9c-0.4-0.1-0.7-0.1-1.1-0.1c-0.5,0-0.7-0.1-0.7-0.1c0,0,0.8-0.1,2.2,0.3
			C54,0.9,53.7,0.9,53.7,0.9"/>
		<path class="st3" d="M54.1,0.9c-0.2,0-0.3,0.1-0.5,0.1c-0.1,0-0.1,0-0.3,0c0,0-0.1,0-0.1,0l0,0c-0.7-0.2-2.5,0.1-3.3,0.6
			c-0.2,0.1-0.4,0.2-0.6,0.4c-0.4,0.2-0.5,0.2-0.8,0.3c-1.6,0.6-2.8,0.3-2.6-0.3c0.3-0.6,2.1-1.2,3.9-1.3c0.4,0,0.5,0,0.7,0.1l0,0
			l0,0l0,0l0,0c1.1,0.2,2.1-0.1,3.2,0l0,0c0,0,0,0,0.1,0C53.9,0.9,53.9,0.9,54.1,0.9C54.1,1,54.1,0.9,54.1,0.9"/>
		<path class="st3" d="M53.4,0.8c-0.4-0.1-0.7-0.1-0.9-0.2c-0.4-0.1-0.6-0.1-1.1-0.1c-0.4-0.1-0.5-0.1-0.5-0.1c0.1,0,1.2,0,3.2,0.6
			C54,0.9,53.4,0.8,53.4,0.8"/>
		<path class="st3" d="M44.2,0.5c-3.5,0.6-3.5,0.6-3.7,0.5c0.3-0.6,5.6-1.2,7.1-1c-0.1,0-0.1,0-0.4,0.1C46.5,0.2,45.6,0.3,44.2,0.5"
			/>
		<path class="st3" d="M53.1,0.7c-0.1,0-0.1,0-0.2,0c-1-0.2-1.7-0.3-2.2-0.4c1.1,0.2,2.2,0.4,3.3,0.7C53.9,0.9,53.2,0.7,53.1,0.7"/>
		<path class="st3" d="M53.5,0.8c-1.1-0.3-2.1-0.4-2.9-0.5c-0.2,0-0.2,0-0.4-0.1l0,0l0,0c-0.3,0-2.6-0.4-5.8-0.1
			c-0.4,0-0.4,0-1.3,0.2c-0.5,0.1-0.9,0.2-1.3,0.2c-0.5,0.1-0.8,0.2-1,0.2c0.2-0.1,0.4-0.1,0.6-0.1c1.4-0.3,2.7-0.5,4.1-0.6
			c0.7,0,1.3,0,2,0c1.9,0,3.7,0.3,5.6,0.7l0,0c0.1,0,0.1,0,0.2,0.1c0.2,0.1,0.2,0.1,0.7,0.2C53.9,0.9,53.7,0.8,53.5,0.8"/>
		<path class="st3" d="M46.4,24.7c-1.2,3.2-5.7,3.4-7,0.3c-1.1-2.7,1.1-6,4.5-5.2C46.4,20.6,47.1,22.9,46.4,24.7"/>
		<path class="st3" d="M39.7,4.5c-2.3,1.6-4.5,1.9-4.3,0.8c0.2-1.4,4.3-3.3,5.8-3C42.3,2.7,39.7,4.5,39.7,4.5"/>
		<path class="st3" d="M29.3,19.9c-1.1,2.7-3.4,3.7-4.2,1.8c-1-2.3,1.1-6.8,3.5-6.3C30,16,30,18.1,29.3,19.9"/>
		<path class="st3" d="M51.4,7.8c-0.2,0.5-1.1,2-3.6,1.5c0,0,0,0,0,0c0,0-0.4-0.1-0.4-0.2l0,0c-1.9-0.5-4.7,0.3-6.3,2.8c0,0,0,0,0,0
			c0,0,0,0,0,0.1c0,0.1,0,0.1,0,0.1l0,0l0,0c0,0,0,0.1-0.1,0.1c-0.1,0.2-0.1,0.2-0.5,0.9l-0.1,0.1c-1.8,2.3-5.2,2.3-5.5-0.1
			c-0.2-1.6,1.6-4.1,4.3-4.2l0.6,0.1c0.1,0,0.1,0.1,0.2,0.1c0.2,0.1,0.2,0.1,0.2,0.1l0,0c1.8,0.5,4.7-0.4,6.2-2.6c0,0,0-0.1,0-0.1
			l0,0l0,0l0.1-0.1c0.1-0.1,0.1-0.1,0.5-0.7c1-0.9,2.1-1.3,3.2-1C51.7,5.3,51.8,6.9,51.4,7.8"/>
		<path class="st3" d="M49.1,15.3c-0.5,1.3-1.8,2-2.8,2.1c-0.5,0.1-0.5,0.1-1.6-0.1c0,0-0.5-0.2-0.5-0.2l0,0c-3.4-1-6.3,1.7-6.8,4
			c-0.2,0.7-0.2,0.7-0.4,1.3c-0.4,0.7-0.4,0.8-0.8,1.2c-2.1,2.2-5.1,1.1-5.1-2c0-1.8,1.1-3.6,2.7-4.1c0.7-0.2,1-0.2,1.8-0.1
			c0.1,0,0.2,0.1,0.2,0.1c0,0,0.1,0,0.1,0l0,0l0.1,0c2.9,0.8,6-1.6,6.7-3.7l0,0c0-0.1,0-0.1,0.1-0.2c0.1-0.2,0.1-0.2,0.4-0.9
			c0.4-0.5,1.7-2.1,4-1.5C49.3,11.9,49.6,14.1,49.1,15.3"/>
		<path class="st3" d="M44.9,6c-0.6,0.7-1.7,1.5-3.4,1.5l-0.6-0.1c-0.2-0.1-0.3-0.1-0.3-0.1l0,0c-2.1-0.6-5.2,1.1-6.4,3l0,0
			c0,0-0.1,0.1-0.1,0.2c-0.1,0.2-0.1,0.2-0.6,0.9c-0.5,0.5-0.5,0.6-0.9,0.9c-1.8,1.5-3.6,1.3-3.5-0.3c0.1-1.5,2-3.6,3.8-4.2
			c0.4-0.1,0.5-0.1,0.8-0.2c0,0,0,0,0.1,0l0,0L34,7.6c0,0,0.1,0,0.1,0.1c0,0,0.1,0,0.1,0.1l0,0c1.4,0.4,4.2-0.7,6.3-2.6l0,0
			c0,0,0,0,0,0c0,0,0.1-0.1,0.1-0.1c0.2-0.2,0.2-0.2,0.8-0.6l0.1-0.1c0.3-0.2,2-1.2,3.4-0.9C46.3,3.9,45.6,5.2,44.9,6"/>
		<path class="st3" d="M24.1,18.7c-0.9,2.3-2,3.6-2.5,2.8c-0.7-1.3,1.3-7.1,2.8-7C25.2,14.8,24.6,17.2,24.1,18.7"/>
		<path class="st3" d="M36.1,3.6c-2.7,1.5-3.3,1.5-3.6,1.5c0,0,0,0,0,0c0,0-0.1,0-0.1-0.1l0,0c-0.6-0.1-2.4,0.9-4.7,3.3c0,0,0,0,0,0
			c0,0-0.1,0.1-0.1,0.1c0,0,0,0,0,0l0,0l0,0c0,0-0.1,0.1-0.1,0.1c-0.2,0.2-0.2,0.2-0.8,0.8l-0.1,0.1c-0.8,0.9-1.1,1.4-1.4,1.7
			c0.7-0.9,1.4-1.8,2.1-2.6c0.8-0.8,1.6-1.6,2.5-2.4C30.2,6,32,4.7,34.3,3.4c0,0,0.1,0,0.1,0l0,0l0,0c0,0,0.1-0.1,0.1-0.1
			c0.2-0.1,0.2-0.1,1-0.5c1.6-0.7,2.8-1.1,3.2-1c0,0,0,0,0.1,0.1C38.6,2.1,37.7,2.7,36.1,3.6"/>
		<path class="st3" d="M28.9,9.9c-0.3,0.4-1.5,1.7-2.5,2.2c-0.3,0.1-0.3,0.1-0.6,0.1c0,0-0.1-0.1-0.1-0.1l0,0
			c-1.1-0.1-2.7,2.7-3.5,4.8c-0.1,0.3-0.1,0.3-0.5,1.3c-0.1,0.2-0.2,0.7-0.4,1.3c-0.1,0.3-0.2,0.6-0.3,1.1c0.1-0.3,0.1-0.5,0.2-0.8
			c0.4-1.4,0.9-2.8,1.5-4.1c0.3-0.6,0.5-1.1,0.8-1.7c0.6-1.1,2.2-3,3.4-4.4l0,0c0,0,0.1-0.1,0.1-0.2c0.2-0.2,0.2-0.2,0.8-0.9
			C29,7.3,30,6.6,30.5,6.7C31.2,7,29.6,9.1,28.9,9.9"/>
		<path class="st3" d="M40.4,49c-0.5,1.5-2.3,1.6-3.4-0.4c-0.8-1.5-0.2-2.9,1.6-2.5C40.1,46.6,40.7,47.9,40.4,49"/>
		<path class="st3" d="M27.5,29.5c-0.3,2.5-1.9,3.5-3.1,2c-1.8-2.2-1.1-6.9,1-6.7c0.1,0,0.1,0,0.2,0C27.3,25.4,27.7,27.9,27.5,29.5"
			/>
		<path class="st3" d="M31.5,46.4c1.2,1.9,0.8,1.8,0.6,1.8c-1.3-0.3-5-4.4-4-5c0.1-0.1,0.2,0,0.3,0C29.6,43.6,31.1,45.8,31.5,46.4"
			/>
		<path class="st3" d="M44,33.8c-0.4,1.1-1.4,3-4.3,2.4c0,0,0,0,0,0c0,0-0.4-0.2-0.5-0.2l0,0c-1.9-0.6-4.7,0.1-4.8,3.5c0,0,0,0,0,0
			c0,0,0,0.1,0,0.1c0,0,0,0.1,0,0.1l0,0l0,0c0,0,0,0.1,0,0.1c0,0.2,0,0.2,0,0.9l0,0.1C34,43.1,32,43.1,30.5,41
			c-1.3-1.8-1.5-4.6,0.6-4.8l0.6,0.1c0.1,0,0.1,0,0.2,0.1c0.2,0.1,0.2,0.1,0.2,0.1l0,0c2.2,0.7,4.5-1.2,4.9-3.9c0,0,0,0,0,0l0,0l0,0
			c0,0,0-0.1,0-0.1c0-0.3,0-0.3,0.2-1.1c0.8-1.7,2.2-2.4,4-2l0,0h0c0,0,0,0,0,0l0,0h0l0,0h0h0C43.4,29.9,44.4,31.7,44,33.8
			C44,33.8,44,33.8,44,33.8"/>
		<path class="st3" d="M41.8,42.6c-0.1,0.3-0.6,1.5-2.1,1.7c-0.4,0.1-0.4,0.1-1.1-0.1c0,0-0.3-0.1-0.4-0.2l0,0
			c-2.3-0.7-3.5,1-2.8,2.9c0.2,0.5,0.2,0.5,0.3,0.8c0.1,0.5,0.1,0.5,0.1,0.7c0,1.5-1.9-0.1-2.5-0.8c-1.1-1.2-1.6-2.6-1.1-3.1
			c0.3-0.2,0.4-0.2,0.9-0.1c0.1,0,0.1,0,0.2,0.1c0,0,0.1,0,0.1,0l0,0l0.1,0c2,0.6,3-1.8,2.9-3.3l0,0c0-0.1,0-0.1,0-0.2
			c0-0.2,0-0.2,0-0.9c0.5-1.5,1.6-2.1,3.2-1.7C41.6,39.2,42.3,41.1,41.8,42.6"/>
		<path class="st3" d="M34.8,31.6c-0.2,0.8-0.8,2.3-2.6,2.4L31.5,34c0,0-0.4-0.1-0.4-0.2l0,0c-2.3-0.7-3.8,1.3-3.1,4.1l0,0
			c0,0.1,0,0.1,0,0.2c0.1,0.2,0.1,0.2,0.2,1c0.1,0.7,0.1,0.7,0,1c-0.1,1.3-0.8,1.5-1.9,0.4c-1.5-1.6-2.4-4.6-1.7-5.5
			c0.2-0.2,0.3-0.2,0.4-0.3c0.1,0,0.1,0,0.1,0l0,0l0.4,0.1c0.1,0,0.1,0.1,0.2,0.1c0,0,0.1,0,0.2,0.1l0,0c1.8,0.5,3.1-1.9,3.2-4.4
			l0,0c0,0,0,0,0,0c0,0,0-0.1,0-0.1c0-0.3,0-0.3,0.1-1.2l0-0.1c0.1-0.4,0.9-2.6,3.1-2.1C34.7,27.5,35.2,30.1,34.8,31.6"/>
		<path class="st3" d="M28.9,45.8c1.7,1.9,1.7,1.9,1.7,2c0,0,0,0,0,0c-1.3-0.5-5.4-5.1-4.8-5.3c0,0,0,0,0.1,0
			C26.3,42.8,27.2,43.8,28.9,45.8"/>
		<path class="st3" d="M22.5,27.9c-0.1,3.2-0.8,3.3-1,3.3l0,0c-0.1-0.1-0.1-0.1-0.2-0.1l0,0c-0.7-0.1-0.5,2,0.5,4.9c0,0,0,0,0,0
			c0,0,0,0.1,0,0.1c0,0.1,0,0.1,0,0.1l0,0l0,0c0,0,0,0.1,0.1,0.2c0.1,0.2,0.1,0.2,0.4,1l0.1,0.1c0.3,0.8,0.6,1.3,0.9,1.9
			c-0.5-1-1-2-1.4-3.1c-0.4-1-0.7-2.1-1-3.1c-0.1-0.4-0.3-1.6-0.5-5.3c0,0,0,0,0,0l0,0l0,0c0,0,0-0.1,0-0.2c0-0.3,0-0.3,0-1.2
			c0.1-1.9,0.5-2.9,1-2.8h0l0,0l0,0l0,0h0h0h0h0C22.1,24.1,22.5,25.7,22.5,27.9L22.5,27.9"/>
		<path class="st3" d="M24.2,37.8c0.3,0.8,0.6,1.9,0.5,2.4c0,0.1,0,0.1-0.1,0.2c0,0-0.1,0-0.1,0c-0.1,0-0.1,0-0.1-0.1l0,0
			c0,0-0.1,0-0.1,0c-0.3,0.3,0.9,2.3,2.7,4.3c0.2,0.3,0.2,0.3,0.9,1c0.4,0.4,0.8,0.7,0.9,0.9c0.2,0.2,0.4,0.4,0.8,0.7
			c-0.2-0.2-0.4-0.4-0.7-0.6c-1-0.9-2-2-2.8-3c-0.4-0.4-0.7-0.9-1-1.4c-0.3-0.4-1.1-1.7-2.4-4.6l0,0c0-0.1-0.1-0.1-0.1-0.2
			c-0.1-0.2-0.1-0.2-0.4-1.1c-0.5-1.7-0.6-2.7-0.2-2.6C22.8,34.1,23.7,36.5,24.2,37.8"/>
		<path class="st3" d="M20.2,27.7c0,0.6,0.1,1.7,0.2,2.6c-0.1-0.6-0.1-1.3-0.2-1.9c-0.1-1.4,0-2.7,0.1-4.1
			C20.2,25.5,20.2,27,20.2,27.7"/>
		<path class="st3" d="M36.7,51.4c0.6,0.4,0.6,0.4,2.1,1c-2.8-0.9-5.2-2.5-5.4-3c0,0,0,0,0,0c0,0,0,0,0.1,0c0.3,0.1,0.8,0.4,1.6,1
			C35.6,50.7,36.1,51.1,36.7,51.4"/>
		<path class="st3" d="M39.9,52.3c0,0-0.1,0.4-0.2,0.4c0,0,0,0,0,0c0,0,0,0,0,0l0,0c0,0,0,0,0,0c0,0,0,0,0,0c0.1,0,0.2,0.1,0.4,0.1
			c-0.6-0.2-0.9-0.4-1.3-0.8c0,0,0,0,0,0l0,0l0,0c0,0,0,0,0,0c-0.1-0.1-0.1-0.1-0.3-0.3c-0.4-0.6,0-0.8,0.4-0.8c0,0,0.1,0,0.1,0
			C39.6,51.1,40,51.8,39.9,52.3"/>
		<path class="st3" d="M38.1,51.8c0.5,0.4,0.8,0.6,1.1,0.7l0,0c0,0,0,0-0.1,0l0,0c0.2,0.1,0.7,0.2,0.9,0.3c-1-0.3-1.8-0.6-2.8-1.2
			l0,0c0,0,0,0,0,0c0,0-0.1,0-0.1,0c-0.2-0.1-0.2-0.1-0.7-0.4c0,0-0.1,0-0.1-0.1c-0.8-0.6-1-1-0.7-1c0,0,0.1,0,0.2,0
			C36.3,50.2,36.3,50.2,38.1,51.8"/>
		<path class="st3" d="M35.8,51.2c1.2,0.6,2.1,0.9,2.8,1.2l0,0c0,0,0,0-0.1,0l0,0c0.6,0.2,1.2,0.4,1.5,0.5
			C38.5,52.4,37.1,51.9,35.8,51.2C35.7,51.2,35.7,51.2,35.8,51.2l-0.1,0l0,0c0,0-0.1,0-0.1-0.1c-0.2-0.1-0.2-0.1-1-0.5
			c-1.4-0.7-2.1-1.3-2.3-1.5c0,0,0,0,0,0c0.1,0.1,0.3,0.2,0.9,0.5C33.8,50.1,34.7,50.6,35.8,51.2"/>
		<path class="st3" d="M35.3,51c1.2,0.6,2.2,0.9,2.5,1c-0.7-0.2-1.3-0.5-1.9-0.8c-1.1-0.5-2.5-1.3-3.5-1.9
			C33.3,50,34.3,50.6,35.3,51"/>
		<path class="st3" d="M63.5,5.7c1.1,0.9,2,1.8,2.1,2.1c-0.1,0-0.1,0-0.6-0.3c-0.1,0-0.1-0.1-0.2-0.1c-1-0.8-1.9-1.6-2.9-2.4
			c-0.6-0.5-1.3-0.9-1.9-1.4c0,0,0,0,0,0C60.2,3.5,61.8,4.4,63.5,5.7"/>
		<path class="st3" d="M57.1,2c-0.9-0.4-1.8-0.7-3-1C55.1,1.2,56.1,1.6,57.1,2"/>
		<path class="st3" d="M65.6,7.4c-1.4-1.3-3-2.5-4.5-3.5C62.7,4.9,64.2,6.1,65.6,7.4"/>
		<path class="st3" d="M55,1.2c0.4,0.1,0.8,0.3,1.2,0.4c0.9,0.3,1.5,0.6,1.5,0.6c0,0,0,0-0.3-0.1c-1.1-0.5-2.1-0.8-3.4-1.2l0,0
			C54.3,1,55,1.2,55,1.2"/>
		<path class="st3" d="M62.4,5.5c1.2,1.1,1.6,1.9,1.2,1.9c-0.9,0-4.5-3.9-4.6-4.1c0,0,0,0,0,0c0,0,0,0,0,0
			C59.4,3.3,61.1,4.3,62.4,5.5"/>
		<path class="st3" d="M56.7,3.9C57,5,56.1,5.4,55.1,4.9c-1.5-0.7-1.5-2.5-0.5-2.9C54.8,2,54.9,2,55,2C55.6,2.3,56.4,3.1,56.7,3.9"
			/>
		<path class="st3" d="M54.7,1.1C54.7,1.1,54.7,1.1,54.7,1.1c0.9,0.3,1.4,0.6,1.4,0.7c-0.1,0-0.3-0.1-0.7-0.3
			c-0.6-0.3-0.9-0.4-1.3-0.6C54.2,1,54.7,1.1,54.7,1.1"/>
		<path class="st3" d="M54.7,1.1c1.1,0.3,2,0.7,2.4,0.9c0.1,0,0.1,0,0.1,0.1c0,0,0,0,0,0c0,0-0.1,0-0.1,0l0,0c0,0,0,0,0,0
			c0,0,0,0,0.2,0.2c0.8,0.6,1.2,1,2.1,1.9c0,0,0,0,0,0c0,0,0.1,0.1,0.1,0.1c0.2,0.2,0.2,0.2,0.6,0.7c0.2,0.2,0.3,0.4,0.4,0.7
			c0.3,0.7-0.2,0.9-0.7,0.6c-1.6-0.6-2.8-3-2.7-3.5c0-0.1,0-0.1,0.2-0.1c0,0,0.1,0,0.1,0l0,0l0,0l0,0c0.2,0,0.2,0,0.2,0
			c0-0.3-1.1-1-2.8-1.6L54.7,1.1C54.7,1.1,54.7,1.1,54.7,1.1c-0.2-0.1-0.2-0.1-0.6-0.2C54.3,1,54.5,1.1,54.7,1.1"/>
		<path class="st3" d="M54.4,1c0.2,0.1,0.3,0.1,0.3,0.2c0.2,0.1,0.2,0.2,0.1,0.2c-0.1,0-0.5-0.1-0.7-0.4c0,0,0,0,0,0
			C54.1,1,54.4,1,54.4,1"/>
		<path class="st3" d="M69.6,12.7c1,1.7,1.3,2.8,0.9,2.7c-0.2,0-0.7-0.4-2-2.5c0,0-2.1-3.5-1.7-3.6c0,0,0,0,0.1,0
			C67.3,9.5,68.7,11,69.6,12.7"/>
		<path class="st3" d="M73.1,31.8c-0.5,2.4-1.5,3.8-2,2.9c-0.8-1.3,0.3-7.5,1.7-7.3C73.4,27.8,73.5,29.9,73.1,31.8"/>
		<path class="st3" d="M73.8,24.4c-0.2-1.7-0.7-4.1-1.1-5.5C73.2,20.6,73.6,22.5,73.8,24.4"/>
		<path class="st3" d="M73,33.9c-0.1,0.2-0.1,0.4-0.2,0.6c0.5-1.8,0.9-4.5,1.1-5.8C73.7,30.4,73.4,32.2,73,33.9"/>
		<path class="st3" d="M71.5,15.8c0.5,1.4,1.1,3.8,1.3,4.7c0,0,0,0,0,0c0,0.1,0,0.1,0,0.2l0,0c0,0.1,0,0.1,0,0.2
			c0.1,0.3,0.1,0.3,0.2,1.1c0.1,0.4,0.1,0.7,0.1,1.2c0,1.3-0.3,1.8-0.8,1.4c-1-0.9-1.9-5.3-1.5-6.7c0.1-0.2,0.1-0.2,0.2-0.3
			c0,0,0,0,0,0l0,0l0.2,0l0.1,0c0,0,0.1,0,0.1,0l0,0c0.6,0.1,0.2-1.7-1.4-4.6c0,0,0,0,0,0c0-0.1-0.1-0.1-0.1-0.2l0,0
			c0,0-0.1-0.1-0.1-0.1c-0.1-0.2-0.1-0.2-0.6-1l-0.1-0.1c-0.3-0.4-0.7-1-1.2-1.6C69.5,11.9,70.6,13.8,71.5,15.8"/>
		<path class="st3" d="M69.9,31.1C69.2,34,67,35,66,33.1c-1.2-2.3,0.2-7,2.6-6.6C70.2,27.1,70.3,29.6,69.9,31.1"/>
		<path class="st3" d="M57.8,9.4c-0.1,2.2-2.6,2.4-4.1,0.9C52,8.5,53.2,6,55.1,6.2c0.1,0,0.3,0,0.4,0.1C57.1,6.7,57.8,8.5,57.8,9.4"
			/>
		<path class="st3" d="M55.6,27.1c-1.1,3.2-5.5,3.4-6.8,0.3c-1.2-2.7,0.9-6,4.3-5.3C55.6,22.9,56.2,25.3,55.6,27.1"/>
		<path class="st3" d="M67.6,12.2c0.2,0.4,1.2,2.5-0.3,2.4c0,0,0,0,0,0c-0.1,0-0.3-0.1-0.3-0.1l0,0c-1.6-0.5-2.4,1.8-2.2,4.1
			c0,0,0,0,0,0l0,0l0,0c0,0.1,0,0.1,0,0.2c0,0.3,0,0.3,0,1.1l0,0.1c-0.4,2.6-3,2.7-4.5,0.7c-1.5-2.1-1.1-5.4,1.3-5.6l0.6,0.1
			c0.1,0,0.1,0.1,0.2,0.1c0.2,0.1,0.2,0.1,0.2,0.1l0,0c1.9,0.5,3.2-1,2.1-3.8c0,0,0,0,0,0l0,0l0,0c0,0,0-0.1-0.1-0.1
			c-0.1-0.2-0.1-0.2-0.4-0.9c-0.2-0.8-0.6-2,0.2-1.8C65.5,9.1,66.9,10.8,67.6,12.2"/>
		<path class="st3" d="M70.3,21.1c0.1,1.5-0.3,2.4-0.8,2.6c-0.2,0.1-0.2,0.1-0.9,0.1c0,0-0.3-0.1-0.3-0.2l0,0
			c-1.5-0.4-3.4,0.9-4.2,4.4c0,0,0,0,0,0c0,0.1,0,0.2,0,0.2c-0.1,0.6-0.1,0.6-0.3,1.4c-0.3,0.6-0.3,0.8-0.7,1.2
			c-1.9,2.3-4.9,1.1-5.2-2c-0.2-1.9,0.8-3.7,2.3-4.2c0.7-0.3,0.9-0.2,1.7-0.1c0.1,0,0.2,0.1,0.2,0.1c0,0,0.1,0,0.1,0l0,0l0.1,0
			c2.7,0.8,4.4-1.8,4.1-4.4l0,0c0-0.1,0-0.1,0-0.2c0-0.2,0-0.2-0.1-1.1c0.1-0.7,0.2-2.5,1.5-2.2C69.2,17.3,70.2,19.4,70.3,21.1"/>
		<path class="st3" d="M63.3,11c0.2,0.6,0.4,2-1,2.1l-0.5-0.1c-0.2-0.1-0.4-0.2-0.4-0.2l0,0c-2.4-0.7-4,1.7-4,3.7l0,0c0,0,0,0,0,0
			c0,0,0,0.1,0,0.1c0,0.3,0,0.3-0.1,1c-0.2,0.5-0.3,0.6-0.6,1c-1.8,2.2-5.6,0.6-5.8-2.4c-0.1-1.5,0.9-2.8,2.3-3.2
			c0.4-0.1,0.4-0.1,1.1-0.1c0,0,0,0,0,0h0l0.6,0.1c0.1,0,0.1,0,0.3,0.1c0.2,0.1,0.2,0.1,0.2,0.1l0,0c2.4,0.7,4.3-0.8,4-3.3l0,0
			c0,0,0-0.1,0-0.1c0-0.2,0-0.2-0.1-0.8l0-0.1c0-0.5,0.2-1.7,1.3-1.4C61.7,8.1,63,9.7,63.3,11"/>
		<path class="st3" d="M69.5,41c-1.3,2-2.8,3.1-2.9,2.2c-0.2-1.4,2.6-6.2,4-6.1C71.3,37.4,70.6,39.3,69.5,41"/>
		<path class="st3" d="M54.3,52.6c-1.7,0.5-3.4,0.7-3.6,0.6c0.2-0.2,6-2.3,6.7-2.2c0.3,0.2-0.9,0.8-2.2,1.2
			C55,52.4,54.6,52.6,54.3,52.6"/>
		<path class="st3" d="M61.1,49.7c1.9-1.2,3.7-2.8,4.4-3.4C64.2,47.6,62.7,48.8,61.1,49.7"/>
		<path class="st3" d="M52,53.3c2.4-0.5,4.4-1.2,5.4-1.6C55.7,52.4,53.9,52.9,52,53.3"/>
		<path class="st3" d="M67.8,44c-0.2,0.2-1.3,1.3-3.9,3.5c0,0,0,0,0,0c0,0-0.1,0.1-0.1,0.1l0,0c0,0-0.1,0.1-0.1,0.1
			c-0.2,0.2-0.2,0.2-0.9,0.7c-0.3,0.2-0.6,0.4-1.1,0.7c-0.8,0.5-1.8,0.9-2.1,0.7c0-0.8,3.1-3.4,4.7-4.2c0.4-0.2,0.4-0.2,0.6-0.2
			c0.1,0,0.1,0,0.1,0l0,0l0.2,0l0.1,0l0.1,0l0,0c0.7,0.1,2.3-1.1,4.2-3.9c0,0,0,0,0,0c0,0,0.1-0.1,0.1-0.2l0,0c0,0,0.1-0.1,0.1-0.1
			c0.1-0.2,0.1-0.2,0.6-1l0.1-0.1c0.3-0.5,0.7-1.2,1-1.9C70.4,40.3,69.2,42.2,67.8,44"/>
		<path class="st3" d="M52.5,52.3c-1.7,0.6-3.9,0.8-3.8,0.4c0.1-0.4,4.2-2.6,5.9-2.3c0.7,0.3,0,1-1.2,1.5
			C53.2,52,52.8,52.2,52.5,52.3"/>
		<path class="st3" d="M52.8,36.4c-1.4,3-5.7,2.9-6.7-0.2c-0.8-2.5,1.4-5.3,4.6-4.6C53.4,32.5,53.5,35,52.8,36.4"/>
		<path class="st3" d="M45.2,50.2c-1.3,1.2-3.8,1.3-3.8-0.7c0-1.2,1.4-2.3,3.1-1.9C46.1,48.1,46.1,49.3,45.2,50.2"/>
		<path class="st3" d="M66.7,39.9c-0.6,1.1-2,2.8-3.8,2.6c0,0,0,0,0,0c0,0-0.2-0.1-0.3-0.1l0,0c-1.7-0.5-4.5,1-6.3,3.2c0,0,0,0,0,0
			l0,0l0,0c0,0-0.1,0.1-0.1,0.1c-0.1,0.2-0.1,0.2-0.7,0.7l-0.1,0.1c-2.1,1.7-5,1.7-4.7-0.6c0.2-1.4,1.8-3.3,4.2-3.3l0.7,0.1
			c0.1,0,0.1,0.1,0.2,0.1c0.2,0.1,0.2,0.1,0.2,0.1l0,0c2.1,0.6,5.1-1,6.4-3.5c0,0,0,0,0,0l0,0l0,0c0,0,0-0.1,0.1-0.1
			c0.1-0.3,0.1-0.3,0.5-1c0.4-0.6,1.8-2.5,3.5-2.2h0h0l0,0c0,0,0,0,0,0h0h0l0,0l0,0C67.5,36.4,67.7,38,66.7,39.9
			C66.7,39.9,66.7,39.9,66.7,39.9"/>
		<path class="st3" d="M60.4,47.7c-0.7,0.6-1.9,1.3-3,1.5c-0.4,0.1-0.4,0.1-0.9,0c0,0-0.2-0.1-0.2-0.1l0,0c-1.4-0.3-3.5,0.4-6,1.9
			c0,0,0,0,0,0c0,0-0.1,0.1-0.1,0.1c-0.3,0.2-0.3,0.2-0.9,0.5c-0.4,0.2-0.6,0.2-1,0.4c-0.9,0.3-3.1,0.6-2.3-0.7
			c0.5-0.8,1.6-1.7,3-1.9c0.6-0.1,0.7-0.1,1.3,0c0,0,0.1,0,0.1,0.1l0.1,0l0,0l0.1,0c1.8,0.5,4.9-0.9,6.2-2.4l0,0
			c0,0,0.1-0.1,0.1-0.1c0.1-0.2,0.1-0.2,0.7-0.7c0.6-0.5,2.2-1.9,3.7-1.6C62.6,44.9,61.8,46.5,60.4,47.7"/>
		<path class="st3" d="M60.6,38.6c-0.5,0.8-1.5,2.1-3.5,2.2l-0.7-0.1c-0.1,0-0.4-0.2-0.4-0.2l0,0c-2.3-0.7-5.4,0.8-6.5,3.2l0,0
			c0,0,0,0,0,0c0,0,0,0.1,0,0.1c-0.1,0.2-0.1,0.2-0.5,0.8c-0.4,0.4-0.4,0.5-0.8,0.8c-2.5,1.7-5.1-0.1-4.7-2.5
			c0.2-1.1,1.1-2.1,2.3-2.3c0.4-0.1,0.4-0.1,1.1-0.1c0,0,0,0,0,0l0,0l0.7,0.1c0.1,0,0.1,0,0.3,0.1c0.2,0.1,0.2,0.1,0.2,0.1l0,0
			c2.6,0.8,5.6-0.8,6.6-3.5l0,0c0,0,0-0.1,0.1-0.2c0.1-0.3,0.1-0.3,0.4-1.1l0.1-0.1c0.3-0.4,1.7-2.4,4-1.9
			C61.6,34.9,61.4,37.2,60.6,38.6"/>
		<path class="st3" d="M44.9,53.6c-1.4-0.1-2.6-0.3-3.4-0.5c0.8,0.1,1.9,0.3,3.7,0.4c1.2,0,2.3-0.2,3.5,0
			C48.6,53.7,46.9,53.8,44.9,53.6"/>
		<path class="st3" d="M41.4,53.1C40.8,53,40.6,53,40,52.8l0,0c2,0.5,3.5,0.7,4.4,0.8c0,0,0,0,0,0c0.1,0,0.1,0,0.2,0l0,0
			c0.1,0,0.1,0,0.2,0c0.3,0,0.3,0,1.2,0.1c0,0,0.1,0,0.1,0c0.7,0,1.4,0,2.1,0C46,53.8,43.7,53.6,41.4,53.1"/>
		<path class="st3" d="M41.6,52.8c-0.6,0.2-1.3,0.1-1.4,0.1c-0.1,0,0-0.4,0.1-0.6c0.2-0.4,0.8-0.7,1.6-0.5c0.7,0.2,0.5,0.7,0.1,0.9
			C41.9,52.7,41.8,52.7,41.6,52.8"/>
		<path class="st3" d="M44.3,53.5c-1.6-0.1-2.8-0.4-3.1-0.4l0,0l0,0l0,0c-0.4-0.1-0.8-0.2-1.2-0.3c1,0.3,2.1,0.4,3.2,0.5
			c0,0,0,0,0.1,0l0,0l0,0c0,0,0.1,0,0.1,0c0.2,0,0.2,0,0.9,0c2.8-0.1,2.8-0.1,3-0.1c0,0,0,0,0.1,0c0,0,0,0,0,0.1
			C47,53.4,45.8,53.6,44.3,53.5"/>
		<path class="st3" d="M43.1,53.2c-0.7,0-1.5-0.1-2.3-0.2l-0.1,0l0,0l0,0c-0.3-0.1-0.5-0.1-0.8-0.2c0.2,0.1,1,0.2,1.9,0.1l0,0
			c0,0,0,0,0.1,0c0.1,0,0.1,0,0.5-0.1c0,0,0.1,0,0.1,0c0.8-0.2,1.7-0.3,2.3-0.2c0.4,0.1,0.2,0.3,0,0.4C44.6,53,44,53.2,43.1,53.2"/>
	</g>
</g>
</svg>
