<?xml version="1.0" encoding="utf-8"?>
<!-- Generator: Adobe Illustrator 21.0.0, SVG Export Plug-In . SVG Version: 6.00 Build 0)  -->
<svg version="1.1" id="Layer_1" xmlns="http://www.w3.org/2000/svg" xmlns:xlink="http://www.w3.org/1999/xlink" x="0px" y="0px"
	 viewBox="0 0 104 80" style="enable-background:new 0 0 104 80;" xml:space="preserve">
<style type="text/css">
	.st0{fill:#585858;}
	.st1{fill:url(#SVGID_1_);}
</style>
<g>
	<g>
		<path class="st0" d="M10.1,64.9c0.7,0,1,0.7,1,1.4c0,0.8-0.3,1.4-1,1.4H7.3v11.1c0,0.7-0.8,1-1.6,1c-0.8,0-1.6-0.3-1.6-1V67.7H1.3
			c-0.6,0-1-0.7-1-1.4c0-0.7,0.3-1.4,1-1.4H10.1z"/>
		<path class="st0" d="M12.3,65.8c0-0.5,0.4-1,1-1h4.2c2.8,0,5,1,5,4.4c0,2.3-1,3.6-2.5,4.1l2.5,4.5c0.1,0.1,0.1,0.3,0.1,0.4
			c0,0.8-1.1,1.7-2,1.7c-0.4,0-0.8-0.2-1-0.6l-2.8-5.4h-1.3v4.9c0,0.7-0.8,1-1.6,1c-0.8,0-1.6-0.3-1.6-1L12.3,65.8L12.3,65.8z
			 M15.5,67.6v3.8h2c1.1,0,1.8-0.5,1.8-1.9s-0.7-1.9-1.8-1.9L15.5,67.6L15.5,67.6z"/>
		<path class="st0" d="M23.2,78.5c0-0.1,0-0.1,0-0.2l3.8-12.5c0.2-0.7,1.1-1.1,2.1-1.1s1.9,0.3,2.1,1.1l3.8,12.5c0,0.1,0,0.2,0,0.2
			c0,0.8-1.2,1.3-2,1.3c-0.5,0-0.9-0.2-1-0.6l-0.7-2.6H27l-0.7,2.6c-0.1,0.4-0.5,0.6-1,0.6C24.4,79.8,23.2,79.2,23.2,78.5z
			 M30.7,74.2l-1.5-5.5l-1.5,5.5H30.7z"/>
		<path class="st0" d="M43.4,78.9l-3.9-7.1v6.9c0,0.7-0.8,1-1.6,1c-0.8,0-1.6-0.3-1.6-1v-13c0-0.7,0.8-1,1.6-1
			c1.1,0,1.6,0.1,2.3,1.6l3.3,6.3v-6.9c0-0.7,0.8-1,1.6-1c0.8,0,1.6,0.3,1.6,1v13c0,0.7-0.8,1-1.6,1C44.4,79.8,43.7,79.7,43.4,78.9z
			"/>
		<path class="st0" d="M55.1,75.8c0-2.5-6.5-2-6.5-6.8c0-3.1,2.7-4.2,5.2-4.2c1.1,0,4.1,0.2,4.1,1.8c0,0.6-0.4,1.7-1.3,1.7
			c-0.7,0-1.1-0.8-2.8-0.8c-1.4,0-2,0.6-2,1.2c0,2,6.5,1.7,6.5,6.8c0,2.9-2.1,4.5-5.1,4.5c-2.7,0-4.9-1.3-4.9-2.7
			c0-0.7,0.6-1.7,1.4-1.7c1,0,1.6,1.5,3.5,1.5C54,77.1,55.1,76.8,55.1,75.8z"/>
		<path class="st0" d="M68.7,64.9c0.7,0,1,0.7,1,1.4c0,0.8-0.3,1.4-1,1.4h-2.8v11.1c0,0.7-0.8,1-1.6,1c-0.8,0-1.6-0.3-1.6-1V67.7
			h-2.8c-0.6,0-1-0.7-1-1.4c0-0.7,0.3-1.4,1-1.4H68.7z"/>
		<path class="st0" d="M74.1,71.1h3.1c0.6,0,1,0.6,1,1.2c0,0.6-0.3,1.2-1,1.2h-3.1V77h5.5c0.6,0,1,0.7,1,1.4c0,0.7-0.3,1.4-1,1.4
			h-7.3c-0.7,0-1.4-0.3-1.4-1v-13c0-0.7,0.7-1,1.4-1h7.3c0.7,0,1,0.7,1,1.4c0,0.8-0.3,1.4-1,1.4h-5.5V71.1z"/>
		<path class="st0" d="M86.6,67.6c-1.2,0-1.8,0.7-1.8,2v5.4c0,1.4,0.7,2,1.9,2c1.6,0,1.7-1.2,1.8-2c0.1-0.8,0.8-1,1.6-1
			c1.1,0,1.6,0.3,1.6,1.5c0,2.7-2.2,4.3-5.1,4.3c-2.7,0-4.9-1.3-4.9-4.8v-5.4c0-3.5,2.2-4.8,4.9-4.8c2.9,0,5.1,1.5,5.1,4.1
			c0,1.2-0.5,1.5-1.6,1.5c-0.9,0-1.6-0.2-1.6-1C88.4,69,88.3,67.6,86.6,67.6z"/>
		<path class="st0" d="M100.5,73.3h-4.1v5.5c0,0.7-0.8,1-1.6,1c-0.8,0-1.6-0.3-1.6-1v-13c0-0.7,0.8-1,1.6-1c0.8,0,1.6,0.3,1.6,1v5
			h4.1v-5c0-0.7,0.8-1,1.6-1c0.8,0,1.6,0.3,1.6,1v13c0,0.7-0.8,1-1.6,1c-0.8,0-1.6-0.3-1.6-1V73.3z"/>
	</g>
	<g>
		
			<linearGradient id="SVGID_1_" gradientUnits="userSpaceOnUse" x1="64.8977" y1="449.1168" x2="48.7898" y2="505.968" gradientTransform="matrix(1 0 0 -1 0 502)">
			<stop  offset="0" style="stop-color:#979797"/>
			<stop  offset="1" style="stop-color:#585858"/>
		</linearGradient>
		<path class="st1" d="M52.5,56c-5,0-9-4-9-9V24.9c0-7.4,6-13.3,13.3-13.3h12.1c1.4,0,2.6-1.2,2.6-2.6s-1.2-2.6-2.6-2.6H36
			c-1.4,0-2.6,1.2-2.6,2.6s1.2,2.6,2.6,2.6h2.5c1.8,0,3.2,1.4,3.2,3.2S40.4,18,38.6,18H36c-5,0-9-4-9-9s4-9,9-9h32.9c5,0,9,4,9,9
			s-4,9-9,9H56.8c-3.8,0-6.9,3.1-6.9,6.9V47c0,1.4,1.2,2.6,2.6,2.6c1.4,0,2.6-1.2,2.6-2.6V25.7c0-1.8,1.4-3.2,3.2-3.2
			s3.2,1.4,3.2,3.2V47C61.5,52,57.4,56,52.5,56z"/>
	</g>
</g>
</svg>
