<?xml version="1.0" encoding="utf-8"?>
<!-- Generator: Adobe Illustrator 21.0.0, SVG Export Plug-In . SVG Version: 6.00 Build 0)  -->
<svg version="1.1" id="Layer_1" xmlns="http://www.w3.org/2000/svg" xmlns:xlink="http://www.w3.org/1999/xlink" x="0px" y="0px"
	 viewBox="0 0 45 45" style="enable-background:new 0 0 45 45;" xml:space="preserve">
<style type="text/css">
	.st0{fill:url(#SVGID_1_);}
</style>
<linearGradient id="SVGID_1_" gradientUnits="userSpaceOnUse" x1="8.3537" y1="47.0021" x2="36.6463" y2="-2.0021">
	<stop  offset="0" style="stop-color:#2FACF5"/>
	<stop  offset="0.1892" style="stop-color:#33AEF3"/>
	<stop  offset="0.3853" style="stop-color:#40B6ED"/>
	<stop  offset="0.5845" style="stop-color:#54C2E2"/>
	<stop  offset="0.7859" style="stop-color:#71D3D4"/>
	<stop  offset="0.9873" style="stop-color:#96E9C1"/>
	<stop  offset="1" style="stop-color:#99EBC0"/>
</linearGradient>
<path class="st0" d="M40.9,1H4.1C2.3,1,1,2.3,1,4.1v36.9C1,42.7,2.3,44,4.1,44h36.9c1.7,0,3.1-1.4,3.1-3.1V4.1C44,2.3,42.7,1,40.9,1
	z M32.3,17.8c0,0.2,0,0.4,0,0.6c0,6.5-5,14.1-14.1,14.1h0h0c-2.8,0-5.4-0.8-7.6-2.2c0.4,0,0.8,0.1,1.2,0.1c2.3,0,4.4-0.8,6.1-2.1
	c-2.2,0-4-1.5-4.6-3.4c0.3,0.1,0.6,0.1,0.9,0.1c0.5,0,0.9-0.1,1.3-0.2c-2.3-0.5-4-2.5-4-4.8c0,0,0,0,0-0.1c0.7,0.4,1.4,0.6,2.2,0.6
	c-1.3-0.9-2.2-2.4-2.2-4.1c0-0.9,0.2-1.8,0.7-2.5c2.4,3,6.1,5,10.2,5.2c-0.1-0.4-0.1-0.7-0.1-1.1c0-2.7,2.2-4.9,4.9-4.9
	c1.4,0,2.7,0.6,3.6,1.6c1.1-0.2,2.2-0.6,3.1-1.2C33.8,14.4,33,15.4,32,16c1-0.1,2-0.4,2.8-0.8C34.1,16.2,33.3,17.1,32.3,17.8z"/>
</svg>
