<?xml version="1.0" encoding="utf-8"?>
<!-- Generator: Adobe Illustrator 21.0.0, SVG Export Plug-In . SVG Version: 6.00 Build 0)  -->
<svg version="1.1" id="Layer_1" xmlns="http://www.w3.org/2000/svg" xmlns:xlink="http://www.w3.org/1999/xlink" x="0px" y="0px"
	 viewBox="0 0 120 80" style="enable-background:new 0 0 120 80;" xml:space="preserve">
<style type="text/css">
	.st0{fill:#373737;}
	.st1{fill:#A3A3A3;}
	.st2{fill:#606060;}
	.st3{fill:#848484;}
</style>
<g>
	<g>
		<path class="st0" d="M6.7,79.7c-0.6-1.3-1.2-2.7-1.8-4.1c-0.6-1.4-1.2-2.8-1.7-4.2c-0.5-1.4-1-2.7-1.5-4c-0.5-1.3-0.9-2.4-1.2-3.4
			h3.9C4.6,65,5,66,5.3,67c0.4,1,0.7,2.1,1.1,3.1c0.4,1,0.7,2,1.1,3c0.3,0.9,0.7,1.8,1,2.5c0.3-0.7,0.6-1.5,1-2.4
			c0.3-0.9,0.7-1.9,1.1-3c0.4-1,0.7-2.1,1.1-3.1c0.4-1,0.7-2,1-2.9h3.7c-0.3,1-0.8,2.1-1.2,3.4c-0.5,1.3-1,2.6-1.5,4
			c-0.5,1.4-1.1,2.8-1.7,4.2c-0.6,1.4-1.2,2.8-1.8,4.1L6.7,79.7L6.7,79.7z"/>
		<path class="st0" d="M18.3,79.7V64.1h10.5v3h-7v3.1h6.2V73h-6.2v3.8h7.5v2.9H18.3z"/>
		<path class="st0" d="M32,79.7V64.1h10.5v3h-7v3.1h6.2V73h-6.2v3.8H43v2.9H32z"/>
		<path class="st0" d="M50.3,63.9c2.3,0,4.1,0.4,5.4,1.2c1.2,0.8,1.9,2.2,1.9,4c0,1.9-0.6,3.2-1.9,4.1s-3.1,1.2-5.4,1.2h-1.1v5.2
			h-3.5V64.3c0.8-0.2,1.6-0.3,2.4-0.3S49.6,63.9,50.3,63.9z M50.5,66.9c-0.3,0-0.5,0-0.8,0c-0.2,0-0.5,0-0.6,0v4.5h1.1
			c1.2,0,2.1-0.2,2.7-0.5c0.6-0.3,0.9-0.9,0.9-1.8c0-0.4-0.1-0.8-0.2-1.1s-0.4-0.5-0.7-0.7c-0.3-0.2-0.6-0.3-1.1-0.4
			C51.5,66.9,51,66.9,50.5,66.9z"/>
		<path class="st0" d="M60.1,64.1h3.5v15.6h-3.5V64.1z"/>
		<path class="st0" d="M76.2,79.7c-0.4-0.9-0.9-1.7-1.4-2.6c-0.5-0.9-1.1-1.6-1.8-2.3c-0.2,0.2-0.5,0.6-0.8,1
			c-0.3,0.4-0.6,0.9-1,1.3c-0.3,0.5-0.6,0.9-0.9,1.4c-0.3,0.5-0.5,0.9-0.6,1.2h-4c0.7-1.2,1.4-2.5,2.3-3.8c0.9-1.3,1.9-2.7,3-4.1
			l-5.1-7.7h4.3l3,4.5l3-4.5h4l-5.1,7.5c1.3,1.7,2.4,3.2,3.3,4.6s1.5,2.6,2,3.5L76.2,79.7L76.2,79.7z"/>
		<path class="st0" d="M82.4,79.7V64.1H93v3h-7v3.1h6.2V73h-6.2v3.8h7.5v2.9H82.4z"/>
		<path class="st0" d="M106.5,76.7v3H96.1V64.1h3.5v12.6L106.5,76.7L106.5,76.7z"/>
		<path class="st0" d="M113.4,77c0.5,0,0.9,0,1.2-0.1c0.3-0.1,0.6-0.2,0.8-0.3c0.2-0.1,0.3-0.3,0.4-0.5c0.1-0.2,0.1-0.4,0.1-0.7
			c0-0.5-0.2-0.9-0.7-1.3c-0.5-0.3-1.3-0.7-2.5-1.1c-0.5-0.2-1-0.4-1.5-0.6c-0.5-0.2-1-0.5-1.4-0.9c-0.4-0.4-0.7-0.8-1-1.3
			c-0.3-0.5-0.4-1.1-0.4-1.8s0.1-1.4,0.4-1.9c0.3-0.6,0.7-1.1,1.1-1.5c0.5-0.4,1.1-0.7,1.8-0.9c0.7-0.2,1.5-0.3,2.4-0.3
			c1.1,0,2,0.1,2.7,0.3c0.8,0.2,1.4,0.5,1.9,0.7l-1,2.8c-0.4-0.2-0.9-0.4-1.5-0.6c-0.5-0.2-1.2-0.3-1.9-0.3c-0.8,0-1.4,0.1-1.8,0.3
			c-0.4,0.2-0.6,0.6-0.6,1.1c0,0.3,0.1,0.5,0.2,0.7c0.1,0.2,0.3,0.4,0.6,0.5c0.2,0.2,0.5,0.3,0.9,0.4c0.3,0.1,0.7,0.3,1.1,0.4
			c0.8,0.3,1.5,0.6,2.1,0.9c0.6,0.3,1.1,0.6,1.5,1c0.4,0.4,0.7,0.8,0.9,1.4c0.2,0.5,0.3,1.2,0.3,1.9c0,1.5-0.5,2.6-1.5,3.4
			c-1,0.8-2.6,1.2-4.6,1.2c-0.7,0-1.3,0-1.9-0.1c-0.6-0.1-1-0.2-1.5-0.3c-0.4-0.1-0.8-0.2-1.1-0.4c-0.3-0.1-0.6-0.3-0.8-0.4l1-2.8
			c0.5,0.3,1,0.5,1.7,0.7C111.6,76.9,112.4,77,113.4,77z"/>
	</g>
	<g>
		<polygon class="st1" points="84.8,0 79.7,8.8 101.1,0 		"/>
		<polygon class="st2" points="90.1,19.1 79.7,8.8 73.7,19.1 73.7,19.1 		"/>
		<polygon class="st1" points="53.9,53.5 70.2,53.5 78.1,39.8 62,39.4 		"/>
		<polygon class="st0" points="77.9,20.9 88.3,31.2 94.3,20.9 94.3,20.9 		"/>
		<polygon class="st3" points="101.1,0 79.7,8.8 79.7,8.8 90.1,19.1 90.1,19.1 101.1,0 		"/>
		<polygon class="st1" points="73.7,19.1 67.8,29.5 67.8,29.5 84.1,29.5 84.1,29.5 		"/>
		<polygon class="st3" points="78.1,39.8 84.1,29.5 67.8,29.5 		"/>
		<polygon class="st0" points="67.8,29.5 62,39.4 78.1,39.8 78.1,39.8 67.8,29.5 		"/>
		<polygon class="st3" points="39.3,0 44.4,8.8 23,0 		"/>
		<polygon class="st0" points="34,19.1 44.4,8.8 50.3,19.1 50.3,19.1 		"/>
		<polygon class="st2" points="50.3,19.1 40,29.5 34,19.1 34,19.1 		"/>
		<polygon class="st1" points="19.6,0.7 40.9,9.5 40.9,9.5 30.6,19.9 30.6,19.9 19.6,0.7 		"/>
		<polygon class="st3" points="55.8,17 61.7,27.4 61.7,27.4 45.4,27.4 45.4,27.4 		"/>
		<polygon class="st1" points="46,39.8 40,29.5 56.3,29.5 		"/>
		<polygon class="st0" points="56.3,29.5 62,39.4 46,39.8 46,39.8 56.3,29.5 		"/>
		<polygon class="st2" points="58.5,41.5 42.4,41.9 50.3,55.6 		"/>
		<polygon class="st3" points="53.9,53.5 53.9,53.5 70.2,53.5 62,39.4 		"/>
	</g>
</g>
</svg>
