<?xml version="1.0" encoding="utf-8"?>
<!-- Generator: Adobe Illustrator 21.0.0, SVG Export Plug-In . SVG Version: 6.00 Build 0)  -->
<svg version="1.1" id="Layer_1" xmlns="http://www.w3.org/2000/svg" xmlns:xlink="http://www.w3.org/1999/xlink" x="0px" y="0px"
	 viewBox="0 0 136 80" style="enable-background:new 0 0 136 80;" xml:space="preserve">
<style type="text/css">
	.st0{fill:#373737;}
	.st1{fill:url(#SVGID_1_);}
	.st2{fill:url(#SVGID_2_);}
</style>
<g>
	<g>
		<path class="st0" d="M12.8,64.5c0.3,0.9,0.5,1.8,0.8,2.8c0.3,1,0.6,1.9,0.9,2.9c0.3,1,0.6,1.9,1,2.8c0.3,0.9,0.6,1.8,0.9,2.6
			c0.2-0.9,0.5-1.9,0.7-2.9c0.2-1,0.5-2.1,0.7-3.3c0.2-1.1,0.5-2.3,0.7-3.4c0.2-1.2,0.4-2.3,0.6-3.4h3.2c-0.6,3.1-1.2,6.1-1.9,8.9
			c-0.7,2.8-1.5,5.6-2.4,8.2h-3c-1.3-3.3-2.5-6.9-3.7-10.9c-0.6,2-1.2,3.9-1.8,5.7c-0.6,1.8-1.2,3.5-1.9,5.2h-3
			C3.8,77,3,74.3,2.3,71.5c-0.7-2.8-1.3-5.8-1.9-8.9h3.3c0.2,1.1,0.4,2.3,0.6,3.4c0.2,1.2,0.5,2.3,0.7,3.4c0.2,1.1,0.5,2.2,0.7,3.3
			c0.2,1.1,0.5,2,0.7,2.9c0.3-0.8,0.6-1.7,0.9-2.6c0.3-0.9,0.6-1.9,0.9-2.8c0.3-1,0.6-1.9,0.9-2.9c0.3-1,0.6-1.9,0.8-2.8H12.8z"/>
		<path class="st0" d="M35.9,79.6c-0.2-0.7-0.5-1.3-0.7-2c-0.2-0.7-0.5-1.3-0.7-2h-7.2c-0.2,0.7-0.5,1.4-0.7,2
			c-0.2,0.7-0.5,1.3-0.7,2h-3.2c0.6-1.8,1.2-3.5,1.8-5c0.6-1.5,1.1-3,1.7-4.4c0.5-1.4,1.1-2.7,1.6-3.9c0.5-1.2,1.1-2.5,1.7-3.7h3
			c0.6,1.2,1.1,2.4,1.7,3.7c0.5,1.2,1.1,2.6,1.6,3.9c0.6,1.4,1.1,2.8,1.7,4.4c0.6,1.5,1.2,3.2,1.8,5H35.9z M30.9,65.9
			c-0.4,0.9-0.8,1.9-1.3,3.2c-0.5,1.2-1,2.6-1.5,4.1h5.6c-0.5-1.5-1-2.8-1.5-4.1C31.7,67.7,31.2,66.7,30.9,65.9z"/>
		<path class="st0" d="M51.9,62.6v2.7h-5.2v14.4h-3.1V65.2h-5.2v-2.7H51.9z"/>
		<path class="st0" d="M54.3,79.6V62.6h11v2.6h-7.9v4.2h7V72h-7v5h8.4v2.6H54.3z"/>
		<path class="st0" d="M75.7,80c-1.3,0-2.4-0.2-3.4-0.6c-1-0.4-1.9-1-2.6-1.7c-0.7-0.8-1.2-1.7-1.6-2.8c-0.4-1.1-0.6-2.4-0.6-3.8
			c0-1.4,0.2-2.7,0.7-3.8c0.4-1.1,1-2,1.8-2.8c0.8-0.8,1.6-1.3,2.7-1.7c1-0.4,2.1-0.6,3.3-0.6c0.7,0,1.3,0.1,1.9,0.2
			c0.6,0.1,1.1,0.2,1.5,0.4c0.4,0.1,0.8,0.3,1.1,0.4c0.3,0.1,0.5,0.3,0.6,0.3L80,66c-0.4-0.2-1-0.5-1.7-0.7
			c-0.7-0.2-1.5-0.3-2.4-0.3c-0.7,0-1.4,0.1-2.1,0.4c-0.6,0.3-1.2,0.6-1.7,1.1c-0.5,0.5-0.8,1.1-1.1,1.9c-0.3,0.8-0.4,1.7-0.4,2.7
			c0,0.9,0.1,1.7,0.3,2.5c0.2,0.8,0.5,1.4,0.9,2c0.4,0.6,1,1,1.6,1.3c0.7,0.3,1.4,0.5,2.4,0.5c1.1,0,2-0.1,2.7-0.3
			c0.7-0.2,1.2-0.4,1.6-0.6l0.8,2.5c-0.2,0.1-0.5,0.3-0.8,0.4c-0.3,0.1-0.7,0.3-1.2,0.4c-0.5,0.1-1,0.2-1.6,0.3
			C76.9,80,76.3,80,75.7,80z"/>
		<path class="st0" d="M94.3,62.6h3.1v17.1h-3.1v-7.6h-7.4v7.6h-3.1V62.6h3.1v6.8h7.4V62.6z"/>
		<path class="st0" d="M113,79.6c-0.6-0.9-1.2-1.9-1.9-3c-0.7-1.1-1.4-2.2-2.1-3.3c-0.7-1.1-1.5-2.2-2.3-3.2c-0.8-1-1.5-1.9-2.2-2.8
			v12.2h-3.1V62.6h2.5c0.7,0.7,1.4,1.5,2.1,2.5c0.8,0.9,1.5,1.9,2.3,2.9c0.8,1,1.5,2,2.2,3.1c0.7,1,1.4,2,1.9,2.9V62.6h3.1v17.1H113
			z"/>
		<path class="st0" d="M135.6,71.1c0,1.5-0.2,2.8-0.7,3.9c-0.4,1.1-1,2-1.8,2.8c-0.7,0.7-1.6,1.3-2.6,1.7c-1,0.4-2.1,0.6-3.2,0.6
			c-1.1,0-2.2-0.2-3.2-0.6c-1-0.4-1.9-0.9-2.6-1.7c-0.7-0.7-1.3-1.7-1.8-2.8c-0.4-1.1-0.7-2.4-0.7-3.9c0-1.5,0.2-2.7,0.7-3.9
			c0.4-1.1,1-2,1.8-2.8c0.8-0.8,1.6-1.3,2.6-1.7c1-0.4,2.1-0.6,3.2-0.6c1.1,0,2.2,0.2,3.2,0.6c1,0.4,1.9,0.9,2.6,1.7
			c0.7,0.8,1.3,1.7,1.8,2.8C135.4,68.3,135.6,69.6,135.6,71.1z M122.3,71.1c0,0.9,0.1,1.8,0.3,2.5c0.2,0.8,0.6,1.4,1,1.9
			c0.4,0.5,1,0.9,1.6,1.2c0.6,0.3,1.3,0.4,2.1,0.4c0.8,0,1.5-0.1,2.1-0.4c0.6-0.3,1.2-0.7,1.6-1.2c0.4-0.5,0.8-1.2,1-1.9
			c0.2-0.8,0.3-1.6,0.3-2.5c0-0.9-0.1-1.8-0.3-2.5c-0.2-0.8-0.6-1.4-1-1.9c-0.4-0.5-1-0.9-1.6-1.2c-0.6-0.3-1.3-0.4-2.1-0.4
			c-0.8,0-1.5,0.1-2.1,0.4c-0.6,0.3-1.2,0.7-1.6,1.3c-0.4,0.5-0.8,1.2-1,1.9C122.4,69.3,122.3,70.1,122.3,71.1z"/>
	</g>
	<g>
		<linearGradient id="SVGID_1_" gradientUnits="userSpaceOnUse" x1="103.7626" y1="-8.167" x2="27.7921" y2="43.542">
			<stop  offset="0" style="stop-color:#2F2F2F"/>
			<stop  offset="1" style="stop-color:#4F4F4F"/>
		</linearGradient>
		<polygon class="st1" points="103.5,0 79.3,42 61.7,11.6 57.3,20.7 45.3,0 39.3,0 57.6,31.8 62.1,22.7 65.3,28.3 57.4,42 33.2,0 
			27.1,0 57.4,52.5 68.4,33.5 79.3,52.5 109.6,0 		"/>
		<linearGradient id="SVGID_2_" gradientUnits="userSpaceOnUse" x1="104.2641" y1="-7.4306" x2="28.2933" y2="44.2786">
			<stop  offset="0" style="stop-color:#2F2F2F"/>
			<stop  offset="1" style="stop-color:#4F4F4F"/>
		</linearGradient>
		<polygon class="st2" points="91.4,0 79.3,21 67.2,0 61.1,0 79.3,31.5 97.5,0 		"/>
	</g>
</g>
</svg>
