<?xml version="1.0" encoding="utf-8"?>
<!-- Generator: Adobe Illustrator 21.0.0, SVG Export Plug-In . SVG Version: 6.00 Build 0)  -->
<svg version="1.1" id="Layer_1" xmlns="http://www.w3.org/2000/svg" xmlns:xlink="http://www.w3.org/1999/xlink" x="0px" y="0px"
	 viewBox="0 0 30 30" style="enable-background:new 0 0 30 30;" xml:space="preserve">
<style type="text/css">
	.st0{fill:#BCBAB9;}
</style>
<path class="st0" d="M15,14.5c-1-1-2-1-15-1c0,1.6,1.4,3,3,3c10.2,0,11.1,0.1,12,1c0.9-0.9,1.8-1,12-1c1.6,0,3-1.4,3-3
	C17,13.5,16,13.5,15,14.5z"/>
<path class="st0" d="M15,23.3c-1-1-2-1-15-1c0,1.6,1.4,3,3,3c10.2,0,11.1,0.1,12,1c0.9-0.9,1.8-1,12-1c1.6,0,3-1.4,3-3
	C17,22.3,16,22.3,15,23.3z"/>
<path class="st0" d="M15,5.7c-1-1-2-1-15-1c0,1.6,1.4,3,3,3c10.2,0,11.1,0.1,12,1c0.9-0.9,1.8-1,12-1c1.6,0,3-1.4,3-3
	C17,4.7,16,4.7,15,5.7z"/>
</svg>
